<?xml version="1.0" encoding="utf-8"?>
<!-- Generator: Adobe Illustrator 24.0.1, SVG Export Plug-In . SVG Version: 6.00 Build 0)  -->
<svg version="1.1" id="Слой_1" xmlns="http://www.w3.org/2000/svg" xmlns:xlink="http://www.w3.org/1999/xlink" x="0px" y="0px"
	 viewBox="0 0 800 457" style="enable-background:new 0 0 800 457;" xml:space="preserve">
<style type="text/css">
	.st0{fill:#282250;}
	.st1{fill:#0C1F2A;}
	.st2{fill:#FFFFFF;}
</style>
<rect x="0" y="-0.1" class="st0" width="800" height="457.1"/>
<path class="st1" d="M310.6,274.7"/>
<path class="st1" d="M455,223"/>
<g>
	<path class="st2" d="M122.6,73l5.8-5.7c1.1,2.1,3.3,3.5,5.4,3.5c2.8,0,4.8-2.1,4.8-5V42.6h8.9v24c0,7.2-5.2,12.3-12.6,12.3
		C130.2,78.9,125,76.5,122.6,73z"/>
	<path class="st2" d="M151.7,60.5c0-10,8.8-18.4,19.2-18.4c10.4,0,19.2,8.4,19.2,18.4s-8.8,18.5-19.2,18.5
		C160.5,78.9,151.7,70.5,151.7,60.5z M180.9,60.5c0-5.6-4.6-10.4-10.1-10.4c-5.5,0-10.1,4.8-10.1,10.4c0,5.7,4.6,10.4,10.1,10.4
		C176.3,70.9,180.9,66.1,180.9,60.5z"/>
	<path class="st2" d="M192,73l5-6c3.5,2.9,7.4,4.5,11.7,4.5c3.3,0,5-1.4,5-3.3c0-2.1-1.7-2.6-6.9-3.8c-7.6-1.7-13.3-3.8-13.3-11
		c0-6.9,5.5-11.4,13.7-11.4c6,0,10.6,1.7,14.4,4.9l-4.5,6.3c-3.3-2.5-6.9-3.8-10.2-3.8c-2.9,0-4.5,1.4-4.5,3.1c0,2.2,1.7,2.9,7,4
		c8,1.7,13.1,4,13.1,10.7c0,7.2-5.5,11.6-14.3,11.6C202.1,78.9,196.3,76.9,192,73z"/>
	<path class="st2" d="M259.2,42.6v35.7h-8.9V64.1h-14.6v14.2h-8.9V42.6h8.9v13.5h14.6V42.6H259.2z"/>
	<path class="st2" d="M264.9,62.7v-20h8.9v19.6c0,5,3.2,8.6,7.7,8.6c4.5,0,7.7-3.6,7.7-8.6V42.6h8.8v20c0,9.6-6.8,16.3-16.6,16.3
		C271.7,78.9,264.9,72.2,264.9,62.7z"/>
	<path class="st2" d="M326.9,73.1h-14.1l-2.1,5.2h-10l14.1-35.7h10l14.1,35.7h-10L326.9,73.1z M324.1,66.2l-4.3-11l-4.3,11H324.1z"
		/>
	<path class="st2" d="M373.5,64.9l9.5,13.4h-3.8l-9.3-13.2h-10.3v13.2h-3.3V42.6h14.6c7.3,0,12.9,4.7,12.9,11.3
		C383.7,59.7,379.5,63.9,373.5,64.9z M359.5,62h10.7c6,0,10.1-3.1,10.1-8c0-5-4.2-8.1-10.1-8.1h-10.7V62z"/>
	<path class="st2" d="M414.3,69.9h-20.5l-3.7,8.4h-3.6l15.7-35.7h3.6l15.7,35.7H418L414.3,69.9z M412.8,66.7L404,46.7l-8.8,19.9
		H412.8z"/>
	<path class="st2" d="M427.3,42.6h3.3l13.6,25.5l13.6-25.5h3.3v35.7h-3.3V49.7l-13.6,25.5l-13.6-25.5v28.6h-3.3V42.6z"/>
	<path class="st2" d="M469.4,42.6h3.3v35.7h-3.3V42.6z"/>
	<path class="st2" d="M497.5,64.9l9.5,13.4h-3.8l-9.3-13.2h-10.3v13.2h-3.3V42.6h14.6c7.3,0,12.9,4.7,12.9,11.3
		C507.7,59.7,503.5,63.9,497.5,64.9z M483.5,62h10.7c6,0,10.1-3.1,10.1-8c0-5-4.2-8.1-10.1-8.1h-10.7V62z"/>
	<path class="st2" d="M516.3,45.8v12.7h19.5v3.2h-19.5v13.4h21.5v3.2h-24.9V42.6h24.9v3.2H516.3z"/>
	<path class="st2" d="M542.9,75.7l22.2-29.9h-21.9v-3.2h26.3v2.6l-22.3,29.9h22.5v3.2h-26.9V75.7z"/>
</g>
<g>
	<g>
		<path class="st2" d="M133.1,274.6l0.4-2c0.5,0.2,1.4,0.4,2.1,0.4c1.1,0,1.8-0.9,1.8-2.1v-18.3h2.4v18.3c0,2.5-1.7,4.3-4.1,4.3
			C134.8,275.1,133.7,274.9,133.1,274.6z M137,247.8c0-0.8,0.7-1.6,1.6-1.6c0.9,0,1.6,0.8,1.6,1.6c0,0.9-0.7,1.6-1.6,1.6
			C137.7,249.4,137,248.7,137,247.8z"/>
		<path class="st2" d="M144.3,260.9c0-4.8,4-8.8,8.7-8.8c4.7,0,8.7,4,8.7,8.8s-4,8.8-8.7,8.8C148.3,269.7,144.3,265.7,144.3,260.9z
			 M159.2,260.9c0-3.6-2.8-6.6-6.1-6.6c-3.4,0-6.2,3-6.2,6.6c0,3.6,2.8,6.6,6.2,6.6C156.4,267.5,159.2,264.5,159.2,260.9z"/>
		<path class="st2" d="M165.3,267.2l1.3-1.8c1.9,1.4,3.8,2.1,5.7,2.1c2.2,0,3.7-1,3.7-2.6c0-1.8-2-2.4-4.2-3.1
			c-4.1-1.2-5.6-2.4-5.6-4.8c0-3.1,2.5-5,5.9-5c2.1,0,4.2,0.7,6,1.9l-1.2,1.9c-1.7-1.1-3.4-1.6-4.9-1.6c-1.9,0-3.5,0.8-3.5,2.5
			c0,1.5,1.2,1.9,4.4,2.9c2.7,0.8,5.5,1.8,5.5,5c0,3.1-2.7,5.1-6.2,5.1C169.9,269.7,167.3,268.8,165.3,267.2z"/>
		<path class="st2" d="M197.2,258.6v10.7h-2.4v-10.4c0-2.7-1.7-4.7-4.2-4.7c-2.8,0-5.2,2-5.2,4.3v10.7h-2.4v-22.8h2.4v8.6
			c1-1.8,3.2-3.1,5.5-3.1C194.6,252.1,197.2,254.8,197.2,258.6z"/>
		<path class="st2" d="M217,252.5v16.8h-2.4v-2.7c-1,1.8-3.2,3.1-5.5,3.1c-3.7,0-6.3-2.7-6.3-6.5v-10.7h2.4v10.4
			c0,2.7,1.7,4.7,4.2,4.7c2.8,0,5.2-2,5.2-4.3v-10.7H217z"/>
		<path class="st2" d="M236.1,259.1v10.3h-2.4v-2.6c-1.2,2-3.7,3-5.9,3c-3.6,0-6.2-2.1-6.2-5.4c0-3.4,3-5.6,6.6-5.6
			c1.8,0,3.7,0.4,5.5,0.9v-0.6c0-2.3-0.9-4.9-4.6-4.9c-1.7,0-3.4,0.8-4.9,1.5l-1-2c2.4-1.2,4.4-1.6,6.1-1.6
			C233.9,252.1,236.1,255,236.1,259.1z M233.7,264.1v-2.6c-1.5-0.4-3.3-0.7-5.1-0.7c-2.5,0-4.6,1.4-4.6,3.5c0,2.1,1.8,3.3,4.2,3.3
			C230.4,267.6,233.1,266.4,233.7,264.1z"/>
		<path class="st2" d="M240.6,260.9c0-7.4,6.2-13.5,13.6-13.5c6.6,0,12.2,5.3,12.2,11.6c0,5.3-3,7.9-5.9,7.9c-2,0-3.4-1.1-3.7-2.8
			c-1.2,1.6-3,2.8-5.3,2.8c-3.1,0-5.4-2.2-5.4-5.6c0-4.6,3.8-8.1,7.6-8.1c2.3,0,3.7,1.2,4.5,2.6l0.4-2.2l2.2,0.2
			c-1,5.2-1.7,8.6-1.7,9.4c0,1.4,0.8,2.2,2.2,2.2c1.8,0,4-1.8,4-6.3c0-5.7-5.1-10.4-11.1-10.4c-6.7,0-12.3,5.6-12.3,12.3
			c0,6,5.1,11.1,11.3,11.1c2.7,0,4.7-0.6,7-2l0.6,0.9c-2.5,1.6-4.7,2.2-7.7,2.2C246.3,273.1,240.6,267.5,240.6,260.9z M257.5,259.2
			c0.3-2.6-0.9-4.3-3.5-4.3c-3,0-5.5,2.8-5.5,6.1c0,2.3,1.4,3.8,3.6,3.8C255.2,264.9,257.1,262.4,257.5,259.2z"/>
		<path class="st2" d="M287.4,260.9c0,5.2-3.3,8.8-7.8,8.8c-2.7,0-4.9-1.3-6.1-3.5v3.2H271v-22.8h2.4v9.1c1.3-2.2,3.4-3.6,6.1-3.6
			C284,252.1,287.4,255.8,287.4,260.9z M284.8,260.9c0-3.9-2.3-6.6-5.6-6.6c-3.3,0-5.7,2.7-5.7,6.6c0,3.9,2.3,6.6,5.7,6.6
			C282.5,267.5,284.8,264.8,284.8,260.9z"/>
		<path class="st2" d="M305,265.5l1.5,1.6c-1.5,1.6-4.4,2.6-6.8,2.6c-4.5,0-8.5-3.7-8.5-8.9c0-5,3.8-8.8,8.3-8.8c5.1,0,8,3.8,8,9.7
			h-13.8c0.4,3.3,2.7,5.7,6,5.7C301.7,267.5,304,266.7,305,265.5z M293.7,259.7h11.3c-0.3-3-2.1-5.4-5.5-5.4
			C296.6,254.3,294.2,256.4,293.7,259.7z"/>
		<path class="st2" d="M311.8,274.6l0.6-2.1c0.6,0.3,1.3,0.4,2,0.4c1.1,0,1.8-0.4,2.4-1.5l1-2.1l-7.3-16.9h2.7l5.9,14l5.6-14h2.6
			l-7.7,18.7c-1.2,2.9-2.8,3.9-5.1,4C313.5,275.2,312.6,275,311.8,274.6z"/>
		<path class="st2" d="M330.2,260.9c0-4.8,4-8.8,8.7-8.8c4.7,0,8.7,4,8.7,8.8s-4,8.8-8.7,8.8C334.2,269.7,330.2,265.7,330.2,260.9z
			 M345.1,260.9c0-3.6-2.8-6.6-6.1-6.6c-3.4,0-6.2,3-6.2,6.6c0,3.6,2.8,6.6,6.2,6.6C342.3,267.5,345.1,264.5,345.1,260.9z"/>
		<path class="st2" d="M366.5,258.6v10.7h-2.4v-10.4c0-2.7-1.7-4.7-4.2-4.7c-2.8,0-5.2,2-5.2,4.3v10.7h-2.4v-16.8h2.4v2.7
			c1-1.8,3.2-3.1,5.5-3.1C363.9,252.1,366.5,254.8,366.5,258.6z"/>
		<path class="st2" d="M387.6,246.6v22.8h-2.4v-3.2c-1.3,2.2-3.4,3.5-6.1,3.5c-4.4,0-7.8-3.6-7.8-8.8c0-5.1,3.3-8.8,7.8-8.8
			c2.7,0,4.9,1.3,6.1,3.6v-9.1H387.6z M385.1,260.9c0-3.9-2.3-6.6-5.7-6.6c-3.3,0-5.6,2.7-5.6,6.6c0,3.9,2.3,6.6,5.6,6.6
			C382.8,267.5,385.1,264.8,385.1,260.9z"/>
		<path class="st2" d="M406.1,265.5l1.5,1.6c-1.5,1.6-4.4,2.6-6.8,2.6c-4.5,0-8.5-3.7-8.5-8.9c0-5,3.8-8.8,8.3-8.8
			c5.1,0,8,3.8,8,9.7h-13.8c0.4,3.3,2.7,5.7,6,5.7C402.8,267.5,405.1,266.7,406.1,265.5z M394.9,259.7h11.3c-0.3-3-2.1-5.4-5.5-5.4
			C397.7,254.3,395.3,256.4,394.9,259.7z"/>
		<path class="st2" d="M428.7,252.5v15c0,4.3-3.4,7.4-8.3,7.4c-2.7,0-5.3-0.9-6.8-2.2l1.1-1.9c1.3,1.2,3.3,2,5.4,2
			c3.9,0,6.2-1.9,6.2-5.2v-2.7c-1.3,2.1-3.5,3.3-6.1,3.3c-4.5,0-7.8-3.3-7.8-8c0-4.7,3.2-8,7.8-8c2.7,0,4.8,1.2,6.1,3.3v-2.9H428.7z
			 M426.2,260.1c0-3.4-2.3-5.8-5.7-5.8c-3.3,0-5.6,2.4-5.6,5.8c0,3.4,2.3,5.8,5.6,5.8C423.9,265.9,426.2,263.5,426.2,260.1z"/>
		<path class="st2" d="M433.4,260.9c0-4.8,4-8.8,8.7-8.8c4.7,0,8.7,4,8.7,8.8s-4,8.8-8.7,8.8C437.4,269.7,433.4,265.7,433.4,260.9z
			 M448.3,260.9c0-3.6-2.8-6.6-6.1-6.6c-3.4,0-6.2,3-6.2,6.6c0,3.6,2.8,6.6,6.2,6.6C445.5,267.5,448.3,264.5,448.3,260.9z"/>
		<path class="st2" d="M455.3,267.9c0-0.9,0.8-1.7,1.8-1.7c0.9,0,1.7,0.8,1.7,1.7c0,1-0.8,1.8-1.7,1.8
			C456.1,269.7,455.3,268.9,455.3,267.9z"/>
		<path class="st2" d="M463.2,260.9c0-4.8,4-8.8,8.7-8.8c2.3,0,4.4,0.9,6,2.5l-1.7,1.7c-1.1-1.2-2.6-2-4.3-2c-3.4,0-6.2,3-6.2,6.6
			c0,3.6,2.8,6.6,6.2,6.6c1.7,0,3.3-0.8,4.4-2.1l1.7,1.7c-1.6,1.6-3.7,2.6-6.1,2.6C467.2,269.7,463.2,265.7,463.2,260.9z"/>
		<path class="st2" d="M481,260.9c0-4.8,4-8.8,8.7-8.8c4.7,0,8.7,4,8.7,8.8s-4,8.8-8.7,8.8C485,269.7,481,265.7,481,260.9z
			 M495.8,260.9c0-3.6-2.8-6.6-6.1-6.6c-3.4,0-6.2,3-6.2,6.6c0,3.6,2.8,6.6,6.2,6.6C493,267.5,495.8,264.5,495.8,260.9z"/>
	</g>
</g>
<g>
	<g>
		<path class="st2" d="M136.1,325.6h2.6l4.2,13.6l4.6-13.6h2.1l4.6,13.6l4.2-13.6h2.6l-5.7,16.8H153l-4.5-13.5l-4.5,13.5h-2.3
			L136.1,325.6z"/>
		<path class="st2" d="M163.7,325.6h2.6l4.2,13.6l4.6-13.6h2.1l4.6,13.6l4.2-13.6h2.6l-5.7,16.8h-2.3l-4.5-13.5l-4.5,13.5h-2.3
			L163.7,325.6z"/>
		<path class="st2" d="M191.3,325.6h2.6l4.2,13.6l4.6-13.6h2.1l4.6,13.6l4.2-13.6h2.6l-5.7,16.8h-2.3l-4.5-13.5l-4.5,13.5H197
			L191.3,325.6z"/>
		<path class="st2" d="M216.9,341.1c0-0.9,0.8-1.7,1.8-1.7c0.9,0,1.7,0.8,1.7,1.7c0,1-0.8,1.8-1.7,1.8
			C217.7,342.8,216.9,342,216.9,341.1z"/>
		<path class="st2" d="M242.3,334c0,5.2-3.3,8.8-7.8,8.8c-2.7,0-4.9-1.3-6.1-3.5v3.2H226v-22.8h2.4v9.1c1.3-2.2,3.4-3.6,6.1-3.6
			C239,325.2,242.3,328.9,242.3,334z M239.7,334c0-3.9-2.3-6.6-5.6-6.6c-3.3,0-5.7,2.7-5.7,6.6c0,3.9,2.3,6.6,5.7,6.6
			C237.4,340.7,239.7,337.9,239.7,334z"/>
		<path class="st2" d="M259.9,338.6l1.5,1.6c-1.5,1.6-4.4,2.6-6.8,2.6c-4.5,0-8.5-3.7-8.5-8.9c0-5,3.8-8.8,8.3-8.8
			c5.1,0,8,3.8,8,9.7h-13.8c0.4,3.3,2.7,5.7,6,5.7C256.6,340.7,258.9,339.8,259.9,338.6z M248.7,332.8H260c-0.3-3-2.1-5.4-5.5-5.4
			C251.5,327.4,249.1,329.5,248.7,332.8z"/>
		<path class="st2" d="M266.7,347.8l0.6-2.1c0.6,0.3,1.3,0.4,2,0.4c1.1,0,1.8-0.4,2.4-1.5l1-2.1l-7.3-16.9h2.7l5.9,14l5.6-14h2.6
			l-7.7,18.7c-1.2,2.9-2.8,3.9-5.1,4C268.4,348.3,267.5,348.1,266.7,347.8z"/>
		<path class="st2" d="M285.2,334c0-4.8,4-8.8,8.7-8.8c4.7,0,8.7,4,8.7,8.8c0,4.8-4,8.8-8.7,8.8C289.2,342.8,285.2,338.8,285.2,334z
			 M300,334c0-3.6-2.8-6.6-6.1-6.6c-3.4,0-6.2,3-6.2,6.6c0,3.6,2.8,6.6,6.2,6.6C297.2,340.7,300,337.6,300,334z"/>
		<path class="st2" d="M321.5,331.7v10.7H319v-10.4c0-2.7-1.7-4.7-4.2-4.7c-2.8,0-5.2,2-5.2,4.3v10.7h-2.4v-16.8h2.4v2.7
			c1-1.8,3.2-3.1,5.5-3.1C318.8,325.2,321.5,327.9,321.5,331.7z"/>
		<path class="st2" d="M342.5,319.7v22.8h-2.4v-3.2c-1.3,2.2-3.4,3.5-6.1,3.5c-4.4,0-7.8-3.6-7.8-8.8c0-5.1,3.3-8.8,7.8-8.8
			c2.7,0,4.9,1.3,6.1,3.6v-9.1H342.5z M340.1,334c0-3.9-2.3-6.6-5.7-6.6c-3.3,0-5.6,2.7-5.6,6.6c0,3.9,2.3,6.6,5.6,6.6
			C337.7,340.7,340.1,337.9,340.1,334z"/>
		<path class="st2" d="M361.1,338.6l1.5,1.6c-1.5,1.6-4.4,2.6-6.8,2.6c-4.5,0-8.5-3.7-8.5-8.9c0-5,3.8-8.8,8.3-8.8
			c5.1,0,8,3.8,8,9.7h-13.8c0.4,3.3,2.7,5.7,6,5.7C357.8,340.7,360,339.8,361.1,338.6z M349.8,332.8h11.3c-0.3-3-2.1-5.4-5.5-5.4
			C352.7,327.4,350.3,329.5,349.8,332.8z"/>
		<path class="st2" d="M383.6,325.6v15c0,4.3-3.4,7.4-8.3,7.4c-2.7,0-5.3-0.9-6.8-2.2l1.1-1.9c1.3,1.2,3.3,2,5.4,2
			c3.9,0,6.2-1.9,6.2-5.2v-2.7c-1.3,2.1-3.5,3.3-6.1,3.3c-4.5,0-7.8-3.3-7.8-8c0-4.7,3.2-8,7.8-8c2.7,0,4.8,1.2,6.1,3.3v-2.9H383.6z
			 M381.1,333.2c0-3.4-2.3-5.8-5.7-5.8c-3.3,0-5.6,2.4-5.6,5.8c0,3.4,2.3,5.8,5.6,5.8C378.8,339,381.1,336.6,381.1,333.2z"/>
		<path class="st2" d="M388.4,334c0-4.8,4-8.8,8.7-8.8c4.7,0,8.7,4,8.7,8.8c0,4.8-4,8.8-8.7,8.8C392.4,342.8,388.4,338.8,388.4,334z
			 M403.2,334c0-3.6-2.8-6.6-6.1-6.6c-3.4,0-6.2,3-6.2,6.6c0,3.6,2.8,6.6,6.2,6.6C400.4,340.7,403.2,337.6,403.2,334z"/>
		<path class="st2" d="M410.2,341.1c0-0.9,0.8-1.7,1.8-1.7c0.9,0,1.7,0.8,1.7,1.7c0,1-0.8,1.8-1.7,1.8
			C411,342.8,410.2,342,410.2,341.1z"/>
		<path class="st2" d="M418.1,334c0-4.8,4-8.8,8.7-8.8c2.3,0,4.4,0.9,6,2.5l-1.7,1.7c-1.1-1.2-2.6-2-4.3-2c-3.4,0-6.2,3-6.2,6.6
			c0,3.6,2.8,6.6,6.2,6.6c1.7,0,3.3-0.8,4.4-2.1l1.7,1.7c-1.6,1.6-3.7,2.6-6.1,2.6C422.1,342.8,418.1,338.8,418.1,334z"/>
		<path class="st2" d="M435.9,334c0-4.8,4-8.8,8.7-8.8c4.7,0,8.7,4,8.7,8.8c0,4.8-4,8.8-8.7,8.8C439.9,342.8,435.9,338.8,435.9,334z
			 M450.8,334c0-3.6-2.8-6.6-6.1-6.6c-3.4,0-6.2,3-6.2,6.6c0,3.6,2.8,6.6,6.2,6.6C448,340.7,450.8,337.6,450.8,334z"/>
	</g>
</g>
<g>
	<g>
		<path class="st2" d="M577.3,410.5c0-6.2,5.2-11.3,11.4-11.3c5.6,0,10.2,4.4,10.2,9.7c0,4.4-2.5,6.6-4.9,6.6
			c-1.7,0-2.8-0.9-3.1-2.3c-1,1.3-2.5,2.3-4.4,2.3c-2.6,0-4.5-1.9-4.5-4.7c0-3.8,3.2-6.8,6.4-6.8c1.9,0,3.1,1,3.7,2.2l0.4-1.8
			l1.8,0.1c-0.8,4.3-1.4,7.2-1.4,7.9c0,1.1,0.7,1.8,1.8,1.8c1.5,0,3.4-1.5,3.4-5.3c0-4.7-4.3-8.7-9.3-8.7c-5.6,0-10.3,4.7-10.3,10.3
			c0,5,4.3,9.3,9.4,9.3c2.2,0,3.9-0.5,5.9-1.7l0.5,0.7c-2.1,1.3-4,1.9-6.4,1.9C582.1,420.7,577.3,416,577.3,410.5z M591.5,409.1
			c0.2-2.2-0.7-3.6-2.9-3.6c-2.5,0-4.6,2.4-4.6,5.1c0,1.9,1.2,3.2,3.1,3.2C589.6,413.8,591.2,411.7,591.5,409.1z"/>
		<path class="st2" d="M616.5,410.5c0,4.3-2.8,7.4-6.5,7.4c-2.3,0-4.1-1.1-5.1-3v2.6h-2v-19.1h2v7.6c1.1-1.9,2.9-3,5.1-3
			C613.7,403.1,616.5,406.2,616.5,410.5z M614.3,410.5c0-3.2-2-5.5-4.7-5.5c-2.8,0-4.7,2.3-4.7,5.5c0,3.2,2,5.6,4.7,5.6
			C612.4,416,614.3,413.7,614.3,410.5z"/>
		<path class="st2" d="M631.2,414.4l1.3,1.3c-1.2,1.3-3.7,2.2-5.7,2.2c-3.8,0-7.1-3.1-7.1-7.4c0-4.2,3.2-7.3,7-7.3
			c4.3,0,6.7,3.2,6.7,8.2h-11.5c0.3,2.8,2.2,4.8,5,4.8C628.5,416,630.4,415.3,631.2,414.4z M621.8,409.4h9.5
			c-0.3-2.5-1.8-4.5-4.6-4.5C624.2,404.9,622.2,406.7,621.8,409.4z"/>
		<path class="st2" d="M636.9,422l0.5-1.7c0.5,0.2,1.1,0.4,1.7,0.4c0.9,0,1.5-0.3,2-1.3l0.8-1.7l-6.1-14.2h2.3l4.9,11.7l4.7-11.7
			h2.2l-6.4,15.7c-1,2.4-2.3,3.3-4.3,3.3C638.4,422.5,637.6,422.3,636.9,422z"/>
		<path class="st2" d="M652.3,410.5c0-4,3.4-7.4,7.3-7.4c4,0,7.3,3.4,7.3,7.4c0,4-3.3,7.4-7.3,7.4
			C655.7,417.9,652.3,414.5,652.3,410.5z M664.8,410.5c0-3-2.3-5.5-5.1-5.5c-2.8,0-5.2,2.5-5.2,5.5c0,3,2.3,5.6,5.2,5.6
			C662.4,416,664.8,413.5,664.8,410.5z"/>
		<path class="st2" d="M682.7,408.6v9h-2v-8.7c0-2.3-1.4-3.9-3.5-3.9c-2.4,0-4.4,1.7-4.4,3.6v9h-2v-14.1h2v2.3
			c0.8-1.5,2.6-2.6,4.6-2.6C680.5,403.1,682.7,405.4,682.7,408.6z"/>
		<path class="st2" d="M700.3,398.5v19.1h-2v-2.6c-1.1,1.9-2.9,3-5.1,3c-3.7,0-6.5-3.1-6.5-7.4c0-4.3,2.8-7.4,6.5-7.4
			c2.3,0,4.1,1.1,5.1,3v-7.6H700.3z M698.3,410.5c0-3.2-2-5.5-4.7-5.5c-2.8,0-4.7,2.3-4.7,5.5c0,3.2,2,5.6,4.7,5.6
			C696.3,416,698.3,413.7,698.3,410.5z"/>
		<path class="st2" d="M702.9,419.6h16.3v1.8h-16.3V419.6z"/>
		<path class="st2" d="M732.4,414.4l1.3,1.3c-1.2,1.3-3.7,2.2-5.7,2.2c-3.8,0-7.1-3.1-7.1-7.4c0-4.2,3.2-7.3,7-7.3
			c4.3,0,6.7,3.2,6.7,8.2h-11.5c0.3,2.8,2.2,4.8,5,4.8C729.6,416,731.5,415.3,732.4,414.4z M723,409.4h9.5c-0.3-2.5-1.8-4.5-4.6-4.5
			C725.4,404.9,723.4,406.7,723,409.4z"/>
		<path class="st2" d="M751.2,403.4V416c0,3.6-2.9,6.2-6.9,6.2c-2.3,0-4.4-0.8-5.7-1.9l0.9-1.6c1.1,1,2.8,1.7,4.5,1.7
			c3.2,0,5.2-1.6,5.2-4.4v-2.3c-1.1,1.7-2.9,2.8-5.1,2.8c-3.8,0-6.5-2.8-6.5-6.7c0-3.9,2.7-6.7,6.5-6.7c2.2,0,4,1,5.1,2.8v-2.4
			H751.2z M749.2,409.8c0-2.8-2-4.9-4.7-4.9c-2.8,0-4.7,2-4.7,4.9c0,2.9,2,4.9,4.7,4.9C747.2,414.7,749.2,412.7,749.2,409.8z"/>
		<path class="st2" d="M755.2,410.5c0-4,3.4-7.4,7.3-7.4s7.3,3.4,7.3,7.4c0,4-3.3,7.4-7.3,7.4S755.2,414.5,755.2,410.5z
			 M767.7,410.5c0-3-2.3-5.5-5.1-5.5c-2.8,0-5.2,2.5-5.2,5.5c0,3,2.3,5.6,5.2,5.6C765.3,416,767.7,413.5,767.7,410.5z"/>
	</g>
</g>
<g>
	<line class="st0" x1="132" y1="140.3" x2="201.2" y2="140.3"/>
	<rect x="132" y="139.5" class="st2" width="69.3" height="1.5"/>
</g>
<path class="st2" d="M78.4,253.6c-0.1,0-0.2,0-0.4,0V139.6h-1.5v114.3c-3,0.8-5.3,3.6-5.3,6.9s2.3,6.1,5.3,6.9V457H78V268
	c0.1,0,0.2,0,0.4,0c4,0,7.2-3.2,7.2-7.2C85.5,256.8,82.3,253.6,78.4,253.6z"/>
<circle class="st2" cx="78.4" cy="334.8" r="7.2"/>
<g>
	<path class="st0" d="M59.7,71.9c0-9.6,7.8-17.3,17.3-17.3s17.3,7.8,17.3,17.3"/>
	<path class="st2" d="M95.1,71.9h-1.5c0-9.1-7.4-16.6-16.6-16.6c-9.1,0-16.6,7.4-16.6,16.6h-1.5c0-10,8.1-18.1,18.1-18.1
		S95.1,62,95.1,71.9z"/>
</g>
<g>
	<circle class="st0" cx="77" cy="50.2" r="8.3"/>
	<path class="st2" d="M77,59.3c-5,0-9.1-4.1-9.1-9.1s4.1-9.1,9.1-9.1c5,0,9.1,4.1,9.1,9.1S82,59.3,77,59.3z M77,42.7
		c-4.2,0-7.6,3.4-7.6,7.6s3.4,7.6,7.6,7.6c4.2,0,7.6-3.4,7.6-7.6S81.2,42.7,77,42.7z"/>
</g>
<g>
	<path class="st2" d="M650.7,230.6c0,4.7,0,9.5,0,14.2c0,0.2,0,0.5,0,0.7c0.1,0.8,0.6,1.3,1.4,1.3c0.2,0,0.5,0,0.7,0c3,0,6,0,8.9,0
		c0.2,0,0.4,0,0.6,0c0.8,0.1,1.3,0.6,1.3,1.3c0,1.3,0,2.5,0,3.8c0,0.8-0.5,1.2-1.2,1.3c-0.3,0-0.6,0-0.8,0c-7.3,0-14.5,0-21.8,0
		c-1.7,0-2.1,0.7-2.1,2.1c0,3,0,6,0,9c0,0.2,0,0.5,0,0.7c-0.1,0.6-0.4,1-1,1.2c-0.3,0.1-0.6,0.1-0.9,0.1c-5.2,0-10.3,0-15.5,0
		c-1.4,0-2.1,0.4-2,2c0.1,1,0,1.9,0,2.9c0,1.1,0.5,1.6,1.6,1.6c3.1,0,6.2,0,9.2,0c0.2,0,0.4,0,0.5,0c1,0,1.5,0.5,1.6,1.6
		c0,0.9,0,1.8,0,2.7c0,0.3,0,0.5,0,0.8c0,0.9,0.5,1.4,1.5,1.5c0.7,0,1.3,0,2,0c0.5,0,1,0,1.4,0c1.1,0,1.5,0.5,1.6,1.5
		c0,3.3,0,6.6,0,9.8c0,1-0.5,1.6-1.5,1.6c-1,0-2,0-3.1,0c-1.3-0.1-2,0.5-1.9,1.8c0.1,1,0,2,0,3.1c0,1.1,0.5,1.6,1.6,1.6
		c1.1,0,2.2,0,3.3,0c1.1,0,1.6,0.5,1.6,1.6c0,7.6,0,15.2,0,22.7c0,1.1-0.5,1.6-1.6,1.6c-1.1,0-2.2,0-3.3,0c-1.1,0-1.6-0.5-1.6-1.6
		c0-1,0-2,0-3c0-1.5-0.4-1.9-1.9-1.9c-3,0-6.1,0-9.1,0c-0.2,0-0.5,0-0.7,0c-0.8-0.1-1.3-0.6-1.3-1.4c0-1.2,0-2.4,0-3.7
		c0-0.9,0.5-1.4,1.5-1.4c1.3,0,2.6,0,3.9,0c2,0,3.9,0,5.9,0c1.3,0,1.8-0.8,1.8-1.8c0-0.9,0-1.8,0-2.7c0.1-1.3-0.3-2.1-2.1-2.1
		c-2.9,0.1-5.9,0-8.9,0c-0.2,0-0.5,0-0.7,0c-0.9-0.1-1.3-0.6-1.4-1.4c0-1.2,0-2.4,0-3.6c0-0.9,0.5-1.4,1.5-1.5c1.1,0,2.2-0.1,3.3,0
		c0.9,0.1,1.8-0.5,1.7-1.7c-0.1-1.1,0-2.1,0-3.2c0-1.1-0.5-1.6-1.6-1.6c-1,0-2.1,0-3.1,0c-1,0-1.8-0.5-1.7-1.7c0.1-1,0-2.1,0-3.1
		c0-1.1,0.5-1.6,1.6-1.6c1.1,0,2.1,0,3.2,0c1.1,0,1.6-0.5,1.6-1.6c0-1.1,0-2.1,0-3.2c0-1.2-0.5-1.6-1.7-1.6c-3.1,0-6.2,0-9.2,0
		c-1.5,0-2.2-0.5-2.1-2.1c0.1-1,0-1.9,0-2.9c0-1-0.5-1.5-1.5-1.5c-3.3,0-6.6,0-9.9,0c-1,0-1.5,0.5-1.5,1.6c0,1.1,0,2.2,0,3.3
		c0,1.1-0.5,1.6-1.6,1.6c-3.1,0-6.2,0-9.2,0c-0.3,0-0.5,0-0.8,0c-0.8,0.1-1.3,0.5-1.3,1.3c0,0.2,0,0.4,0,0.6c0,3,0,6,0,9
		c0,0.2,0,0.4,0,0.6c0,0.8-0.5,1.4-1.3,1.4c-1.3,0-2.5,0-3.8,0c-0.8,0-1.3-0.6-1.3-1.4c0-0.2,0-0.4,0-0.5c0-5.2,0-10.4,0-15.6
		c0-0.2,0-0.3,0-0.5c0-0.9,0.5-1.4,1.4-1.4c0.9,0,1.9,0,2.8,0c2.3,0,4.7,0,7,0c1.1,0,1.7-0.7,1.7-1.7c0-1.1,0-2.1,0-3.2
		c0-1.1,0.5-1.6,1.6-1.6c3.1,0,6.2,0,9.2,0c0.2,0,0.5,0,0.7,0c0.9-0.1,1.4-0.6,1.5-1.5c0-1.2,0-2.3,0-3.5c0-0.9-0.6-1.5-1.5-1.5
		c-3.3,0-6.7,0-10,0c-0.9,0-1.5,0.5-1.5,1.5c0,1.1,0,2.2,0,3.3c0,1.2-0.5,1.7-1.7,1.7c-1,0-2.1,0-3.1,0c-1.2,0-1.7-0.5-1.7-1.7
		c0-1.1,0-2.1,0-3.2c0-1.1-0.5-1.6-1.6-1.6c-1.1,0-2.2,0-3.3,0c-1.1,0-1.6-0.5-1.6-1.6c0-1.1,0-2.1,0-3.2c-0.1-1,0.6-1.7,1.7-1.7
		c2.7,0,5.4,0,8.2,0c3,0,3.2-0.1,3.2-3.2c0-0.6,0-1.2,0-1.8c0-1,0.5-1.5,1.6-1.5c5.4,0,10.9,0,16.3,0c1,0,1.5,0.5,1.5,1.6
		c0,3.1,0,6.3,0,9.4c0,0.2,0,0.5,0,0.7c0.1,0.8,0.6,1.3,1.4,1.3c0.2,0,0.3,0,0.5,0c5.2,0,10.5,0,15.7,0c0.2,0,0.4,0,0.5,0
		c0.7-0.1,1.2-0.5,1.3-1.2c0-0.3,0-0.6,0-0.8c0-9.3,0-18.6,0-27.9c0-0.2,0-0.5,0-0.7c-0.1-1.3,0.6-1.9,1.8-1.8c3,0,6.1,0,9.1,0
		c0.3,0,0.5,0,0.8,0c0.8-0.1,1.2-0.6,1.3-1.3c0-0.2,0-0.4,0-0.6c0-3,0-6,0-9c0-0.2,0-0.5,0-0.7c0.1-0.7,0.5-1.3,1.3-1.3
		c1.3,0,2.6,0,4,0c0.7,0,1.2,0.5,1.2,1.2c0,0.2,0,0.5,0,0.7C650.7,221.1,650.7,225.8,650.7,230.6z M641,233.8c-0.6,0-1.2,0-1.8,0
		c-0.9,0-1.5,0.5-1.5,1.5c0,1.2,0,2.4,0,3.6c0,0.9,0.5,1.4,1.4,1.4c1.2,0,2.5,0,3.7,0c0.8,0,1.4-0.6,1.4-1.4c0-1.2,0-2.4,0-3.6
		c0-0.9-0.6-1.4-1.5-1.5C642.1,233.8,641.6,233.8,641,233.8z"/>
	<path class="st2" d="M696.1,334.3c0-2.5,0-5.1,0-7.6c0-0.2,0-0.4,0-0.5c0-1,0.5-1.5,1.5-1.5c1.1,0,2.3,0,3.4,0c1,0,1.5,0.5,1.5,1.5
		c0,1.1,0,2.2,0,3.3c0,1.2,0.5,1.7,1.7,1.7c1,0,2.1,0,3.1,0c1.2,0,1.7-0.5,1.7-1.7c0-3.1,0-6.2,0-9.3c0-0.2,0-0.5,0-0.7
		c0.1-0.7,0.5-1.2,1.2-1.2c1.4,0,2.7-0.1,4.1,0c0.7,0,1.2,0.6,1.2,1.4c0,1.1,0,2.2,0,3.3c0,0.3,0,0.6,0.1,0.8c0.2,0.6,0.6,0.9,1.2,1
		c1.3,0,2.6,0,4,0c0.7,0,1.2-0.6,1.3-1.4c0-0.5,0-1,0-1.5c0-0.6,0-1.2,0-1.8c-0.1-1.3,0.6-1.9,1.8-1.8c1,0,2,0,3.1,0
		c1.1,0,1.6,0.5,1.6,1.6c0,1.1,0,2.1,0,3.2c0,1,0.6,1.7,1.7,1.7c1.1-0.1,2.1,0,3.2,0c1.1,0,1.6-0.5,1.6-1.6c0-1.1,0-2.1,0-3.2
		c0-1.1,0.5-1.6,1.6-1.6c3.2,0,6.5,0,9.7,0c1.1,0,1.6,0.5,1.6,1.6c0,1.1,0,2.1,0,3.2c0,1.1-0.5,1.6-1.6,1.6c-1.1,0-2.1,0-3.2,0
		c-1.1,0-1.7,0.5-1.7,1.6c0,1.1,0,2.2,0,3.3c0,1.1,0.5,1.6,1.6,1.6c0.9,0,1.9,0,2.8,0c1.7-0.1,2.2,0.7,2.1,2.1c0,0.9,0,1.9,0,2.8
		c0,1.1,0.5,1.6,1.6,1.6c3.1,0,6.2,0,9.2,0c0.2,0,0.4,0,0.5,0c1,0,1.5,0.5,1.6,1.6c0,0.7,0,1.4,0,2.1c0,0.4,0,0.8,0,1.2
		c0,1,0.5,1.5,1.5,1.6c0.9,0,1.8,0,2.7,0c0.3,0,0.5,0,0.8,0c1,0,1.5,0.5,1.5,1.5c0,1.2,0,2.3,0,3.5c0,1-0.5,1.5-1.5,1.5
		c-3.3,0-6.6,0-9.8,0c-1.1,0-1.6-0.5-1.6-1.6c0-1.1,0-2.2,0-3.3c0-1.1-0.5-1.6-1.6-1.6c-1.1,0-2.2,0-3.3,0c-1.1,0-1.6,0.5-1.6,1.6
		c0,1.1,0,2.1,0,3.2c0,1-0.6,1.7-1.7,1.7c-1.1-0.1-2.1,0-3.2,0c-1.1,0-1.6,0.5-1.6,1.6c0,1.1,0,2.2,0,3.4c0,1,0.5,1.5,1.6,1.6
		c1.1,0,2.1,0,3.2,0c1.2,0,1.7,0.5,1.7,1.7c0,1,0,2.1,0,3.1c0,1.1-0.5,1.6-1.6,1.6c-1.1,0-2.1,0-3.2,0c-1.2,0-1.7,0.5-1.7,1.7
		c0,1.1,0,2.1,0,3.2c0,1.1-0.5,1.6-1.6,1.6c-1.1,0-2.1,0-3.2,0c-1.2,0-1.7,0.5-1.7,1.7c0,1.1,0,2.1,0,3.2c0,1.1,0.5,1.6,1.6,1.6
		c1.1,0,2.2,0,3.3,0c1.1,0,1.6-0.5,1.6-1.6c0-1.1,0-2.1,0-3.2c0-1.2,0.5-1.7,1.7-1.7c1.1,0,2.2,0,3.3,0c1,0,1.6,0.5,1.6,1.6
		c0,3.3,0,6.6,0,9.8c0,1-0.5,1.5-1.6,1.6c-1.1,0-2.2,0-3.4,0c-4.1,0-8.3,0-12.4,0c-0.3,0-0.5,0-0.8,0c-0.8-0.1-1.3-0.6-1.4-1.4
		c0-0.2,0-0.4,0-0.6c0-3,0-6,0-8.9c0-0.2,0-0.4,0-0.6c0-0.9-0.5-1.4-1.4-1.4c-0.5,0-1,0-1.5,0c-2.6,0-5.3,0-7.9,0
		c-0.2,0-0.4,0-0.5,0c-1.1,0-1.6-0.5-1.6-1.6c0-0.5,0-1.1,0-1.6c0-0.6,0-1.1,0-1.7c0-1.1-0.5-1.6-1.6-1.6c-1,0-1.9,0-2.9,0
		c-0.2,0-0.4,0-0.5,0c-0.9,0-1.4-0.5-1.4-1.4c0-0.9,0-1.7,0-2.6c0-0.3,0-0.6,0-0.9c0-1-0.5-1.5-1.5-1.5c-0.8,0-1.7,0-2.5,0
		c-0.3,0-0.6,0-0.9,0c-1,0-1.5-0.5-1.6-1.6c0-1.2,0-2.3,0-3.5c0-0.8-0.5-1.4-1.4-1.4c-0.2,0-0.4,0-0.5,0c-1.6,0-3.3,0-4.9,0
		c-1.5,0-3,0-4.5,0c-1.1,0-1.6-0.5-1.7-1.6c0-1.1,0-2.2,0-3.3c0-1,0.5-1.5,1.5-1.6c1.1,0,2.1,0,3.2,0c1.3,0,1.8-0.5,1.8-1.8
		C696.1,339.6,696.1,337,696.1,334.3z M725.3,350.6c2.6,0,5.2,0,7.8,0c0.2,0,0.4,0,0.5,0c0.8,0,1.3-0.5,1.4-1.3c0-0.2,0-0.5,0-0.7
		c0-5.1,0-10.3,0-15.4c0-1.3-0.4-2.1-2-2c-5.2,0-10.3,0-15.5,0c-0.3,0-0.5,0-0.8,0c-0.6,0.1-1,0.4-1.2,1c-0.1,0.2-0.1,0.5-0.1,0.7
		c0,5.3,0,10.6,0,15.9c0,1.3,0.5,1.8,1.7,1.8C719.9,350.6,722.6,350.6,725.3,350.6z M731.7,363.5c0.6,0,1.2,0,1.8,0
		c0.9,0,1.5-0.5,1.5-1.4c0-1.2,0-2.4,0-3.6c0-0.9-0.5-1.4-1.4-1.4c-1.2,0-2.4,0-3.6,0c-0.9,0-1.5,0.5-1.5,1.5c0,1.2,0,2.3,0,3.5
		c0,1,0.6,1.5,1.6,1.5C730.6,363.5,731.2,363.5,731.7,363.5z"/>
	<path class="st2" d="M679.9,331.1c2.6,0,5.2,0,7.8,0c0.3,0,0.5,0,0.8,0c0.7,0.1,1.1,0.5,1.2,1.2c0,1.3,0,2.6,0,4
		c0,0.7-0.5,1.2-1.2,1.3c-0.2,0-0.5,0-0.7,0c-3.1,0-6.2,0-9.2,0c-0.3,0-0.5,0-0.8,0c-0.7,0.2-1.1,0.7-1.1,1.6c0,1.6,0,3.2,0,4.7
		c0,1.6,0,3.3,0,4.9c0,1.3,0.5,1.7,1.8,1.7c3.1,0,6.2,0,9.3,0c0.2,0,0.5,0,0.7,0c0.7,0.1,1.2,0.6,1.2,1.3c0,1.3,0,2.6,0,3.9
		c0,0.7-0.5,1.2-1.2,1.3c-0.2,0-0.5,0-0.8,0c-3,0-6,0-9,0c-0.2,0-0.5,0-0.7,0c-0.7,0.1-1.2,0.5-1.3,1.2c0,0.2,0,0.4,0,0.6
		c0,3.1,0,6.2,0,9.2c0,0.2,0,0.4,0,0.6c0.1,0.7,0.5,1.2,1.2,1.2c1.3,0,2.6,0.1,4,0c0.8,0,1.3-0.6,1.3-1.5c0-1.1,0-2.2,0-3.4
		c0-0.3,0-0.6,0.1-0.8c0.3-0.6,0.8-0.8,1.4-0.8c1.1,0,2.2,0,3.3,0c1.2,0,1.6-0.5,1.7-1.7c0-1,0-2.1,0-3.1c0-1.2,0.5-1.7,1.7-1.7
		c1.1,0,2.1,0,3.2,0c1.1,0,1.6,0.5,1.6,1.7c0,1.1,0,2.2,0,3.3c0,1,0.5,1.5,1.6,1.5c1.1,0,2.1,0,3.2,0c0.9-0.1,1.7,0.5,1.7,1.7
		c0,5.4,0,10.8,0,16.2c0,1.1-0.5,1.6-1.6,1.6c-3.2,0-6.5,0-9.7,0c-1.2,0-1.6-0.5-1.7-1.7c0-1.1,0-2.1,0-3.2c0-1.1-0.5-1.6-1.6-1.6
		c-3.3,0-6.5,0-9.8,0c-1.1,0-1.6,0.5-1.6,1.6c0,1.1,0,2.2,0,3.3c0,1.1-0.5,1.6-1.6,1.6c-1.1,0-2.1,0-3.2,0c-1.1,0-1.7-0.6-1.7-1.7
		c0-3.1,0-6.1,0-9.2c0-0.2,0-0.4,0-0.6c0-1-0.5-1.5-1.5-1.5c-1,0-2,0-3.1,0c-0.2,0-0.5,0-0.7,0c-0.7-0.1-1.1-0.5-1.2-1.2
		c0-0.2,0-0.4,0-0.6c0-3.1,0-6.2,0-9.2c0-0.2,0-0.3,0-0.5c0.1-0.9,0.6-1.4,1.4-1.4c1,0,2-0.1,3.1,0c1.5,0.1,2.1-0.6,2.1-2
		c0-0.9,0-1.9,0-2.8c0-1-0.7-1.7-1.7-1.7c-1.1,0.1-2.1,0-3.2,0c-1.1,0-1.6-0.5-1.6-1.6c0-3.3,0-6.5,0-9.8c0-1.1,0.5-1.6,1.7-1.6
		c1.1,0,2.1,0,3.2,0c1.1,0,1.6-0.5,1.6-1.6c0-1.1,0-2.1,0-3.2c0-1.1,0.5-1.6,1.6-1.6C674.5,331.1,677.2,331.1,679.9,331.1z"/>
	<path class="st2" d="M709.1,266.3c0-5.8,0-11.6,0-17.4c0-0.2,0-0.5,0-0.7c-0.1-0.9-0.6-1.4-1.5-1.4c-1.2,0-2.3,0-3.5,0
		c-1,0-1.5,0.5-1.5,1.5c0,1,0,2,0,3c0,0.2,0,0.4,0,0.6c0,0.8-0.5,1.3-1.2,1.3c-1.3,0.1-2.7,0.1-4,0c-0.7,0-1.2-0.6-1.2-1.3
		c0-0.3,0-0.5,0-0.8c0-9.4,0-18.8,0-28.2c0-1.3-0.3-2.2-2.1-2.1c-0.9,0.1-1.9,0-2.8,0c-0.9,0.1-1.7-0.6-1.6-1.6c0-1.1,0-2.2,0-3.4
		c0-1,0.5-1.5,1.6-1.5c3.3,0,6.6,0,9.8,0c0.9,0,1.6,0.5,1.6,1.7c0,6.8,0,13.7,0,20.5c0,0.7,0,1.3,0,2c0,1.2,0.5,1.7,1.7,1.7
		c1,0,2.1,0,3.1,0c1.2,0,1.7-0.5,1.7-1.7c0-3.1,0-6.2,0-9.3c0-0.2,0-0.5,0-0.7c0.1-0.7,0.5-1.2,1.2-1.2c1.3,0,2.7,0,4,0
		c0.7,0,1.1,0.5,1.2,1.3c0,0.2,0,0.5,0,0.7c0,5.2,0,10.3,0,15.5c0,0.2,0,0.5,0,0.7c0.1,0.8,0.6,1.2,1.4,1.3c0.2,0,0.5,0,0.7,0
		c5.1,0,10.3,0,15.4,0c0.2,0,0.4,0,0.6,0c0.8,0.1,1.4,0.5,1.4,1.3c0,1.2,0,2.5,0,3.7c0,0.8-0.6,1.3-1.4,1.4c-0.6,0-1.1,0-1.7,0
		c-0.6,0-1.1,0-1.7,0c-1.2,0-1.7,0.5-1.7,1.7c0,1,0,2,0,3c0,0.2,0,0.4,0,0.5c-0.1,0.7-0.5,1.2-1.2,1.2c-0.2,0-0.5,0-0.7,0
		c-3,0-6,0-8.9,0c-0.2,0-0.4,0-0.5,0c-1,0-1.6,0.5-1.6,1.5c0,3.3,0,6.6,0,9.9c0,1,0.6,1.5,1.5,1.5c1.1,0,2.2,0,3.4,0
		c1.1,0,1.6,0.5,1.6,1.6c0,1.1,0,2.2,0,3.4c0,1-0.5,1.5-1.5,1.5c-1.1,0-2.2,0-3.3,0c-1.2,0-1.7,0.5-1.7,1.7c0,1.1,0,2.1,0,3.2
		c0,1-0.5,1.5-1.6,1.5c-1.1,0-2.2,0-3.3,0c-1.1,0-1.6-0.5-1.6-1.6C709.1,278.1,709.1,272.2,709.1,266.3z"/>
	<path class="st2" d="M602,240.3c-2.9,0-5.8,0-8.7,0c-3.5,0-6.7-1.1-9.4-3.5c-3-2.7-4.6-6-4.6-10c0-6.1,0-12.2,0-18.3
		c0-6.7,4.8-12.3,11.4-13.4c0.7-0.1,1.5-0.2,2.3-0.2c6,0,12,0,17.9,0c6.6,0,12.1,4.5,13.5,11c0.2,0.8,0.3,1.6,0.3,2.3
		c0,6.2,0.1,12.5,0,18.7c-0.1,6.5-4.9,12.1-11.3,13.2c-0.9,0.2-1.9,0.2-2.8,0.2C607.7,240.3,604.9,240.3,602,240.3z M602,201.4
		C602,201.4,602,201.4,602,201.4c-2,0-4.1,0-6.1,0c-0.6,0-1.2,0-1.8,0.1c-4.7,0.8-8.2,4.7-8.3,9.5c-0.1,4.4-0.1,8.8,0,13.2
		c0.1,5.4,4.4,9.6,9.8,9.6c4.3,0,8.6,0,12.9,0c0.7,0,1.4-0.1,2.1-0.2c4.4-1,7.6-4.8,7.6-9.4c0.1-4.4,0-8.8,0-13.2
		c0-1-0.2-1.9-0.5-2.8c-1.3-4-5-6.7-9.2-6.7C606.4,201.4,604.2,201.4,602,201.4z"/>
	<path class="st2" d="M744.7,240.3c-2.9,0-5.7,0-8.6,0c-3.6,0-6.8-1.1-9.5-3.5c-2.9-2.7-4.5-6-4.6-10c0-6.2-0.1-12.3,0-18.5
		c0.1-6.6,5-12.3,11.5-13.3c0.8-0.1,1.5-0.2,2.3-0.2c6,0,11.9,0,17.9,0c6.6,0,12.2,4.5,13.5,11c0.2,0.8,0.2,1.7,0.2,2.5
		c0,6.1,0,12.2,0,18.3c0,6.6-4.8,12.2-11.4,13.3c-0.9,0.2-1.9,0.2-2.8,0.2C750.4,240.3,747.6,240.3,744.7,240.3z M744.8,201.4
		C744.8,201.4,744.8,201.4,744.8,201.4c-2,0-4.1,0-6.1,0c-0.6,0-1.2,0-1.8,0.1c-4.7,0.8-8.2,4.7-8.3,9.5c-0.1,4.4-0.1,8.8,0,13.2
		c0.1,5.4,4.4,9.6,9.8,9.6c4.3,0,8.6,0,12.9,0c0.7,0,1.4-0.1,2.1-0.2c4.5-1,7.6-4.9,7.6-9.5c0-4.3,0-8.7,0-13c0-1-0.2-2-0.5-2.9
		c-1.3-4-5-6.7-9.2-6.7C749.1,201.4,746.9,201.4,744.8,201.4z"/>
	<path class="st2" d="M602.1,383c-2.9,0-5.8,0-8.7,0c-3.6,0-6.8-1.1-9.5-3.5c-2.9-2.6-4.5-5.9-4.5-9.8c-0.1-6.2-0.1-12.5,0-18.7
		c0.1-6.7,5.3-12.4,12-13.2c0.6-0.1,1.1-0.1,1.7-0.1c6,0,12.1,0,18.1,0c6.1,0,11.4,4,13.1,9.8c0.3,1.1,0.5,2.3,0.5,3.5
		c0,6.3,0.1,12.6,0,18.8c-0.1,6.4-5,12-11.3,13c-0.9,0.2-1.9,0.2-2.9,0.2C607.7,383,604.9,383,602.1,383z M602,344.1
		C602,344.1,602,344.1,602,344.1c-2,0-4,0-6,0c-0.6,0-1.3,0-1.9,0.1c-4.8,0.8-8.2,4.7-8.3,9.5c-0.1,4.4-0.1,8.8,0,13.1
		c0.1,5.4,4.4,9.6,9.8,9.6c4.3,0,8.5,0,12.8,0c0.7,0,1.5-0.1,2.2-0.2c4.5-1,7.6-4.9,7.6-9.6c0-4.2,0-8.4,0-12.7
		c0-0.9-0.1-1.8-0.4-2.7c-1.1-4.1-4.8-7.1-9.3-7.2C606.4,344.1,604.2,344.1,602,344.1z"/>
	<path class="st2" d="M735,266.2c3.6,0,7.2,0,10.8,0c0.2,0,0.4,0,0.6,0c1-0.1,1.5-0.6,1.5-1.6c0-1.1,0-2.2,0-3.3
		c0-1.2,0.5-1.7,1.7-1.7c1.1,0,2.1,0,3.2,0c1.1,0,1.6,0.5,1.6,1.6c0,3.1,0,6.3,0,9.4c0,0.2,0,0.4,0,0.6c0.1,0.8,0.6,1.4,1.4,1.4
		c1.1,0,2.2,0,3.4,0c1.1-0.1,1.8,0.6,1.7,1.7c0,1,0,2.1,0,3.1c0,1.1-0.5,1.6-1.6,1.6c-3.2,0-6.5,0-9.7,0c-1,0-1.7-0.5-1.7-1.7
		c0.1-1,0-2.1,0-3.1c0-1.2-0.5-1.7-1.7-1.7c-1.1,0-2.1,0-3.2,0c-1.1,0-1.6,0.5-1.6,1.6c0,1.1,0,2.2,0,3.4c0,1,0.5,1.5,1.5,1.5
		c1.1,0,2.2,0,3.3,0c1.2,0,1.7,0.5,1.7,1.7c0,1,0,2.1,0,3.1c0,1.1-0.5,1.6-1.6,1.6c-3.2,0-6.5,0-9.7,0c-1.2,0-1.6-0.5-1.6-1.7
		c0-3.1,0-6.2,0-9.3c0-0.2,0-0.5,0-0.7c-0.1-0.8-0.6-1.2-1.4-1.3c-0.2,0-0.4,0-0.6,0c-3,0-6.1,0-9.1,0c-0.2,0-0.5,0-0.7,0
		c-0.7-0.1-1.2-0.6-1.2-1.3c0-1.3,0-2.6,0-3.9c0-0.7,0.5-1.2,1.2-1.3c0.3,0,0.5,0,0.8,0C727.7,266.2,731.4,266.2,735,266.2z"/>
	<path class="st2" d="M631.2,360.3c0-2.6,0-5.1,0-7.7c0-0.2,0-0.4,0-0.5c0-0.9,0.5-1.4,1.4-1.5c1.2,0,2.4,0,3.6,0
		c0.9,0,1.4,0.5,1.4,1.5c0,1.1,0,2.1,0,3.2c0,1.3,0.5,1.8,1.7,1.8c3.2,0,6.4,0,9.5,0c1,0,1.8-0.5,1.7-1.7c-0.1-1,0-2.1,0-3.1
		c0-1.1,0.5-1.6,1.6-1.6c3.3,0,6.5,0,9.8,0c1.1,0,1.6,0.5,1.6,1.6c0,1.1,0,2.2,0,3.3c0,1.1-0.5,1.6-1.6,1.6c-1.1,0-2.1,0-3.2,0
		c-1.2,0-1.7,0.5-1.7,1.7c0,1,0,2,0,3.1c0,1-0.5,1.8-1.8,1.8c-3.1,0-6.2,0-9.3,0c-0.2,0-0.5,0-0.7,0c-0.7,0.1-1.2,0.6-1.2,1.3
		c0,0.2,0,0.5,0,0.7c0,3,0,6.1,0,9.1c0,0.2,0,0.5,0,0.7c-0.1,0.7-0.6,1.2-1.3,1.2c-1.3,0-2.5,0-3.8,0c-0.8,0-1.3-0.6-1.4-1.4
		c0-0.7,0-1.4,0-2.1c0-0.5,0-0.9,0-1.4c0-1.1-0.5-1.6-1.6-1.6c-1,0-1.9,0-2.9,0c-0.2,0-0.4,0-0.6,0c-0.9-0.1-1.3-0.6-1.4-1.4
		c0-0.4,0-0.7,0-1.1C631.2,365.1,631.2,362.7,631.2,360.3z"/>
	<path class="st2" d="M728.5,311.6c-1.6,0-3.2,0-4.8,0c-1.1,0-1.6-0.5-1.6-1.6c0-1.1,0-2.2,0-3.3c0-1.1,0.5-1.5,1.5-1.6
		c1.1,0,2.2,0,3.3,0c0.5,0,1,0,1.2-0.4c0.2-0.3,0.4-0.6,0.4-1c0-1.2,0-2.4,0-3.7c0-0.9-0.5-1.4-1.4-1.4c-1.2,0-2.4,0-3.6,0
		c-0.9,0-1.4,0.5-1.4,1.4c0,1.1,0,2.2,0,3.4c0,1.2-0.5,1.7-1.7,1.7c-1.1,0-2.1,0-3.2,0c-1.1,0-1.6-0.5-1.6-1.7c0-3.2,0-6.4,0-9.6
		c0-1.2,0.5-1.7,1.7-1.7c3,0,6.1,0,9.1,0c0.2,0,0.4,0,0.6,0c1,0,1.5-0.5,1.5-1.6c0-1.1,0-2.1,0-3.2c0-1.1,0.6-1.8,1.7-1.7
		c1,0.1,2.1,0,3.1,0c1.2,0,1.7,0.5,1.7,1.7c0,1.1,0,2.1,0,3.2c0,1.1,0.5,1.6,1.6,1.6c1.1,0,2.1,0,3.2,0c1.2,0,1.7,0.5,1.7,1.7
		c0,1.1,0,2.1,0,3.2c0,1.1-0.5,1.6-1.6,1.6c-1.1,0-2.1,0-3.2,0c-1.2,0-1.7,0.5-1.7,1.7c0,3.1,0,6.3,0,9.4c0,0.2,0,0.4,0,0.6
		c-0.1,0.8-0.6,1.3-1.5,1.3C731.8,311.7,730.1,311.6,728.5,311.6z"/>
	<path class="st2" d="M689.6,240.3c0,1.6,0,3.2,0,4.8c0,1.2-0.5,1.7-1.7,1.7c-3.1,0-6.2,0-9.2,0c-0.2,0-0.4,0-0.5,0
		c-1,0-1.5,0.5-1.5,1.5c0,1.1-0.1,2.1,0,3.2c0.1,1.3-0.7,1.8-1.8,1.8c-0.9,0-1.9,0-2.8,0c-1.1,0-1.9-0.4-1.8-1.8c0.1-1,0-2,0-3
		c0-1-0.6-1.8-1.7-1.7c-1.1,0.1-2.1,0-3.2,0c-1,0-1.6-0.5-1.6-1.5c0-1.1,0-2.3,0-3.4c0-1,0.5-1.5,1.5-1.5c1.1,0,2.2,0,3.3,0
		c1.3,0,1.7-0.5,1.8-1.8c0-3.1,0-6.2,0-9.3c0-0.3,0-0.5,0-0.8c0.1-0.6,0.5-1,1-1.1c0.3,0,0.6,0,0.8,0c3.1,0,6.1,0,9.2,0
		c0.2,0,0.4,0,0.6,0c0.7,0.1,1.3,0.5,1.3,1.3c0,1.3,0,2.6,0,3.9c0,0.8-0.6,1.3-1.4,1.3c-1.1,0-2.2,0-3.4,0c-1-0.1-1.8,0.6-1.7,1.7
		c0,1,0,2.1,0,3.1c0,1.1,0.5,1.6,1.6,1.6c1.1,0,2.1,0,3.2,0c1.2,0,1.6-0.5,1.7-1.7c0-1.1,0-2.1,0-3.2c0-1.1,0.5-1.6,1.6-1.6
		c1.1,0,2.1,0,3.2,0c1.2,0,1.6,0.5,1.6,1.7C689.6,237.1,689.6,238.7,689.6,240.3z"/>
	<path class="st2" d="M767.4,288.9c0,2.7,0,5.3,0,8c0,1.2-0.5,1.7-1.7,1.7c-5.4,0-10.7,0-16.1,0c-0.4,0-0.9-0.1-1.2-0.4
		c-0.3-0.3-0.4-0.7-0.4-1.1c0-3.4,0-6.7,0-10.1c0-0.9,0.5-1.4,1.4-1.4c1.2,0,2.4,0,3.6,0c0.9,0,1.4,0.5,1.4,1.4c0,1.1,0,2.2,0,3.4
		c0,1.2,0.5,1.7,1.7,1.7c1.1,0,2.1,0,3.2,0c1.1,0,1.6-0.5,1.6-1.7c0-3.1,0-6.3,0-9.4c0-0.2,0-0.5,0-0.7c0.1-0.7,0.5-1.2,1.2-1.2
		c1.4,0,2.7,0,4.1,0c0.7,0,1.1,0.5,1.2,1.2c0,0.3,0,0.5,0,0.8C767.4,283.8,767.4,286.4,767.4,288.9z"/>
	<path class="st2" d="M683.1,201.4c-1.4,0-2.9,0-4.3,0c-1.7-0.1-2.2,0.5-2.1,2.2c0,0.9,0,1.8,0,2.7c0,1.1-0.5,1.6-1.6,1.6
		c-1.1,0-2.1,0-3.2,0c-1.2,0-1.6-0.5-1.6-1.7c0-1,0-1.9,0-2.9c0-1.5-0.4-1.9-1.9-1.9c-0.9,0-1.9,0-2.8,0c-1.3,0-1.8-0.5-1.8-1.8
		c0-1,0-2,0-3.1c0-1.2,0.5-1.7,1.7-1.7c7.6,0,15.1,0,22.7,0c1.1,0,1.6,0.5,1.6,1.6c0,1.1,0,2.2,0,3.4c0,1-0.5,1.5-1.5,1.6
		C686.4,201.4,684.7,201.4,683.1,201.4C683.1,201.4,683.1,201.4,683.1,201.4z"/>
	<path class="st2" d="M757.7,246.8c2.6,0,5.2,0,7.8,0c0.2,0,0.4,0,0.6,0c0.8,0.1,1.3,0.6,1.3,1.3c0,0.1,0,0.3,0,0.4
		c0,3.2,0,6.4,0,9.5c0,1.2-0.7,1.8-1.8,1.7c-3.2,0-6.3,0-9.5,0c-1.3,0-1.7-0.5-1.8-1.8c0-1,0-2.1,0-3.1c0-1.1-0.5-1.6-1.6-1.6
		c-1,0-2,0-3.1,0c-0.2,0-0.5,0-0.7,0c-0.7-0.1-1.1-0.6-1.1-1.2c0-1.3,0-2.6,0-3.9c0-0.8,0.6-1.3,1.3-1.3c0.2,0,0.4,0,0.6,0
		C752.5,246.8,755.1,246.8,757.7,246.8z"/>
	<path class="st2" d="M767.4,328c0,2.5,0,5.1,0,7.6c0,0.2,0,0.4,0,0.5c0,0.9-0.5,1.4-1.4,1.5c-1.2,0-2.4,0-3.7,0
		c-0.8,0-1.4-0.6-1.4-1.4c0-1.1,0-2.2,0-3.3c0-1.3-0.5-1.8-1.8-1.8c-1,0-1.9,0-2.9,0c-1.3,0-1.8-0.5-1.8-1.8c0-3.2,0-6.3,0-9.5
		c0-1.2,0.5-1.7,1.7-1.7c3.2,0,6.4,0,9.6,0c1.2,0,1.7,0.5,1.7,1.7C767.4,322.5,767.4,325.2,767.4,328z"/>
	<path class="st2" d="M715.5,211.1c0,2.7,0,5.3,0,8c0,1.2-0.8,1.8-1.7,1.7c-1.1-0.1-2.1,0-3.2,0c-1,0-1.5-0.5-1.5-1.6
		c0-1.1,0-2.1,0-3.2c0-1.2-0.5-1.7-1.7-1.7c-1,0-2,0-3.1,0c-1.3,0-1.7-0.5-1.7-1.8c0-3.2,0-6.3,0-9.5c0-0.5,0-0.9,0.4-1.3
		c0.4-0.4,0.8-0.5,1.3-0.5c2.2,0,4.3,0,6.5,0c1,0,2.1,0,3.1,0c1.2,0,1.7,0.5,1.7,1.7C715.5,205.7,715.5,208.4,715.5,211.1z"/>
	<path class="st2" d="M657.3,370c1.5,0,3,0,4.4,0c0.2,0,0.5,0,0.7,0c0.7,0.1,1.2,0.5,1.2,1.3c0,1.3,0,2.5,0,3.8
		c0,0.8-0.6,1.3-1.4,1.3c-1.1,0-2.2,0-3.4,0c-1.2,0-1.6,0.5-1.7,1.7c0,1,0,2.1,0,3.1c0,1.2-0.5,1.7-1.7,1.7c-3.2,0-6.4,0-9.6,0
		c-1.1,0-1.7-0.6-1.7-1.7c0.1-1.1,0-2.2,0-3.3c0-1,0.5-1.5,1.6-1.5c1.1,0,2.2,0,3.3,0c1.1,0,1.6-0.5,1.6-1.6c0-1.1,0-2.1,0-3.2
		c0-1.1,0.5-1.6,1.6-1.6C654,370,655.6,370,657.3,370z"/>
	<path class="st2" d="M644.2,344.1c-1.5,0-3,0-4.4,0c-0.2,0-0.4,0-0.5,0c-1-0.1-1.5-0.6-1.5-1.6c0-1.1,0-2.2,0-3.4
		c0-1.1-0.5-1.6-1.6-1.6c-1.1,0-2.1,0-3.2,0c-1.2,0-1.6-0.5-1.7-1.6c0-1.1,0-2.2,0-3.4c0-1,0.5-1.5,1.5-1.5c3.3,0,6.6,0,9.9,0
		c1,0,1.5,0.5,1.5,1.6c0,1.1,0,2.2,0,3.3c0,1.1,0.5,1.6,1.6,1.6c1,0,2.1,0,3.1,0c0.9-0.1,1.8,0.5,1.7,1.7c-0.1,1.1,0,2.2,0,3.3
		c0,1-0.5,1.5-1.5,1.6C647.5,344.1,645.8,344.1,644.2,344.1C644.2,344.1,644.2,344.1,644.2,344.1z"/>
	<path class="st2" d="M631.2,204.6c0-2.7,0-5.3,0-8c0-1.3,0.5-1.7,1.7-1.7c1,0,2.1,0,3.1,0c1.1,0,1.6,0.5,1.6,1.6c0,3.1,0,6.3,0,9.4
		c0,0.2,0,0.4,0,0.6c0.1,0.8,0.6,1.4,1.4,1.4c1.1,0,2.2,0,3.4,0c1.1-0.1,1.8,0.6,1.7,1.7c0,1,0,2.1,0,3.1c0,1.1-0.5,1.6-1.6,1.6
		c-3.2,0-6.5,0-9.7,0c-1,0-1.7-0.5-1.7-1.7C631.3,210,631.2,207.3,631.2,204.6z"/>
	<path class="st2" d="M579.3,318.1c0-3.7,0-7.3,0-11c0-0.2,0-0.5,0-0.7c0.1-0.7,0.5-1.2,1.2-1.3c1.3,0,2.7,0,4,0
		c0.7,0,1.2,0.5,1.2,1.2c0,0.2,0,0.5,0,0.7c0,7.3,0,14.7,0,22c0,0.1,0,0.3,0,0.4c0,1-0.5,1.5-1.5,1.6c-1.1,0-2.2,0-3.4,0
		c-1.1,0-1.6-0.5-1.6-1.6C579.3,325.7,579.3,321.9,579.3,318.1z"/>
	<path class="st2" d="M670.1,220.8c-1.6,0-3.2,0-4.8,0c-1.1,0-1.7-0.5-1.7-1.6c0-3.3,0-6.5,0-9.8c0-1.1,0.5-1.6,1.6-1.6
		c1.1,0,2.2,0,3.3,0c1.1,0,1.6,0.5,1.6,1.6c0,1.1,0,2.1,0,3.2c-0.1,1.1,0.6,1.7,1.7,1.7c1.1,0,2.1,0,3.2,0c0.5,0,0.9,0.1,1.2,0.5
		c0.2,0.3,0.3,0.7,0.3,1c0,1.1,0,2.3,0,3.4c0,1-0.5,1.5-1.5,1.6C673.4,220.8,671.8,220.8,670.1,220.8z"/>
	<path class="st2" d="M657.2,331.1c0-1.6,0-3.2,0-4.8c0-1.1,0.5-1.6,1.6-1.6c3.2,0,6.5,0,9.7,0c1.1,0,1.6,0.5,1.7,1.6
		c0,1.1,0,2.1,0,3.2c0,1.2-0.5,1.7-1.7,1.7c-1,0-2,0-3,0c-1.4,0-1.8,0.4-1.8,1.8c0,1,0,1.9,0,2.9c0.1,1.2-0.7,1.9-1.8,1.8
		c-0.9-0.1-1.9-0.1-2.8,0c-1.2,0.1-1.9-0.5-1.9-1.8C657.2,334.2,657.2,332.6,657.2,331.1z"/>
	<path class="st2" d="M605.3,298.6c0-1.6,0-3.2,0-4.8c0-1.1,0.5-1.6,1.6-1.6c3.3,0,6.5,0,9.8,0c1.1,0,1.6,0.5,1.6,1.6
		c0,1.1,0,2.1,0,3.2c0,1.1-0.5,1.6-1.6,1.6c-1.1,0-2.1,0-3.2,0c-1.1,0-1.6,0.5-1.7,1.6c0,1.1,0,2.2,0,3.3c0,1.1-0.5,1.6-1.5,1.6
		c-1.1,0-2.3,0-3.4,0c-1,0-1.5-0.5-1.5-1.5C605.3,302,605.3,300.3,605.3,298.6z"/>
	<path class="st2" d="M657.2,230.6c0-2.5,0-4.9,0-7.4c0-0.2,0-0.4,0-0.5c0-1.4,0.4-1.8,1.8-1.8c0.9,0,1.9,0,2.8,0
		c1.2-0.1,1.9,0.5,1.9,1.8c0,5.3,0,10.6,0,15.9c0,0.1,0,0.2,0,0.3c0,1-0.5,1.5-1.5,1.5c-1.2,0-2.3,0-3.5,0c-1,0-1.5-0.5-1.5-1.5
		C657.2,236,657.2,233.3,657.2,230.6z"/>
	<path class="st2" d="M715.5,376.5c1.6,0,3.2,0,4.8,0c1,0,1.7,0.6,1.7,1.7c0,1.1,0,2.1,0,3.2c0,1.1-0.5,1.6-1.6,1.6
		c-3.3,0-6.6,0-9.8,0c-1.1,0-1.5-0.5-1.6-1.6c0-1.1,0-2.3,0-3.4c0-1,0.5-1.5,1.5-1.5C712.2,376.5,713.9,376.5,715.5,376.5z"/>
	<path class="st2" d="M754.4,363.5c1.6,0,3.2,0,4.8,0c1.1,0,1.7,0.7,1.7,1.7c0,1.1,0,2.1,0,3.2c0,1.1-0.5,1.6-1.6,1.6
		c-3.2,0-6.5,0-9.7,0c-1.2,0-1.6-0.5-1.6-1.6c0-1.1,0-2.2,0-3.4c0-1,0.5-1.5,1.5-1.5C751.1,363.5,752.8,363.5,754.4,363.5z"/>
	<path class="st2" d="M624.7,324.6c1.6,0,3.2,0,4.8,0c1,0,1.8,0.6,1.7,1.7c0,1,0,2.1,0,3.1c0,1.1-0.5,1.6-1.6,1.6
		c-3.2,0-6.5,0-9.7,0c-1,0-1.7-0.6-1.7-1.7c0.1-1.1,0-2.1,0-3.2c0-1.1,0.5-1.6,1.6-1.6C621.5,324.6,623.1,324.6,624.7,324.6z"/>
	<path class="st2" d="M657.2,207.9c0,1.6,0,3.2,0,4.7c0,1.2-0.5,1.7-1.7,1.7c-1,0-2.1,0-3.1,0c-1.2,0-1.7-0.5-1.7-1.7
		c0-3.2,0-6.4,0-9.6c0-1.2,0.5-1.7,1.7-1.7c1.1,0,2.1,0,3.2,0c1.1,0,1.6,0.5,1.6,1.6C657.2,204.6,657.2,206.3,657.2,207.9z"/>
	<path class="st2" d="M592.3,318.1c0-1.6,0-3.2,0-4.8c0-1.2,0.5-1.7,1.7-1.7c1.1,0,2.1,0,3.2,0c1.1,0,1.6,0.5,1.6,1.6
		c0,3.3,0,6.5,0,9.8c0,1.1-0.5,1.6-1.6,1.6c-1.1,0-2.2,0-3.3,0c-1,0-1.5-0.5-1.5-1.6C592.3,321.4,592.3,319.8,592.3,318.1z"/>
	<path class="st2" d="M718.8,311.6c0.6,0,1.1,0,1.7,0c0.9,0,1.5,0.5,1.5,1.5c0,1.2,0,2.4,0,3.6c0,0.9-0.5,1.4-1.4,1.4
		c-1.2,0-2.4,0-3.6,0c-0.9,0-1.5-0.6-1.5-1.5c0-1.2,0-2.3,0-3.5c0-0.9,0.6-1.4,1.5-1.5c0,0,0.1,0,0.1,0
		C717.7,311.6,718.3,311.6,718.8,311.6z"/>
	<path class="st2" d="M602.1,324.6c0.6,0,1.2,0,1.8,0c0.8,0,1.4,0.5,1.4,1.4c0,1.2,0,2.5,0,3.7c0,0.8-0.5,1.3-1.4,1.4
		c-1.3,0-2.5,0-3.8,0c-0.8,0-1.3-0.6-1.3-1.4c0-1.2,0-2.4,0-3.7c0-0.9,0.6-1.4,1.5-1.4c0,0,0.1,0,0.1,0
		C600.9,324.6,601.5,324.6,602.1,324.6z"/>
	<path class="st2" d="M602.1,285.7c0.6,0,1.1,0,1.7,0c0.9,0,1.5,0.5,1.5,1.5c0,1.2,0,2.4,0,3.6c0,0.9-0.5,1.4-1.5,1.4
		c-1.2,0-2.4,0-3.6,0c-0.9,0-1.4-0.6-1.5-1.5c0-1.2,0-2.3,0-3.5c0-0.9,0.6-1.4,1.5-1.5c0,0,0.1,0,0.1,0
		C600.9,285.7,601.5,285.7,602.1,285.7z"/>
	<path class="st2" d="M615,324.6c-0.6,0-1.2,0-1.8,0c-0.8,0-1.4-0.5-1.4-1.4c0-1.2,0-2.5,0-3.7c0-0.8,0.6-1.3,1.4-1.3
		c1.2,0,2.5,0,3.7,0c0.8,0,1.4,0.5,1.4,1.4c0,1.2,0,2.4,0,3.6c0,0.9-0.6,1.4-1.5,1.5C616.2,324.6,615.6,324.6,615,324.6z"/>
	<path class="st2" d="M757.7,311.6c-0.6,0-1.2,0-1.8,0c-0.9,0-1.4-0.5-1.5-1.4c0-1.2,0-2.4,0-3.7c0-0.9,0.6-1.4,1.4-1.4
		c1.2,0,2.4,0,3.7,0c0.9,0,1.4,0.5,1.4,1.5c0,1.2,0,2.4,0,3.6c0,0.9-0.6,1.4-1.5,1.4C758.9,311.7,758.3,311.6,757.7,311.6z"/>
	<path class="st2" d="M744.7,311.6c-0.6,0-1.2,0-1.8,0c-0.8,0-1.4-0.5-1.4-1.4c0-1.2,0-2.5,0-3.7c0-0.8,0.5-1.3,1.4-1.4
		c1.2,0,2.5,0,3.7,0c0.9,0,1.4,0.5,1.4,1.4c0,1.2,0,2.4,0,3.7c0,0.9-0.6,1.4-1.5,1.4c0,0-0.1,0-0.1,0
		C745.9,311.6,745.3,311.6,744.7,311.6C744.7,311.6,744.7,311.6,744.7,311.6z"/>
	<path class="st2" d="M692.8,207.9c-0.6,0-1.2,0-1.8,0c-0.9,0-1.4-0.5-1.5-1.4c0-1.2,0-2.4,0-3.7c0-0.9,0.5-1.4,1.4-1.4
		c1.2,0,2.4,0,3.7,0c0.9,0,1.4,0.5,1.4,1.4c0,1.2,0,2.4,0,3.6c0,0.9-0.6,1.4-1.5,1.4c0,0-0.1,0-0.1,0
		C693.9,207.9,693.4,207.9,692.8,207.9z"/>
	<path class="st2" d="M611.7,314.9c0,0.6,0,1.2,0,1.8c0,0.9-0.5,1.4-1.3,1.5c-1.3,0-2.5,0-3.8,0c-0.8,0-1.3-0.6-1.3-1.4
		c0-1.2,0-2.5,0-3.7c0-0.8,0.5-1.3,1.4-1.3c1.2,0,2.5,0,3.7,0c0.8,0,1.3,0.6,1.4,1.4c0,0.1,0,0.1,0,0.2
		C611.7,313.7,611.7,314.3,611.7,314.9z"/>
	<path class="st2" d="M754.4,314.9c0,0.6,0,1.2,0,1.8c0,1-0.5,1.5-1.5,1.5c-1.2,0-2.3,0-3.5,0c-1,0-1.4-0.5-1.5-1.5
		c0-1.2,0-2.3,0-3.5c0-0.9,0.5-1.5,1.5-1.5c1.2,0,2.3,0,3.5,0c1,0,1.5,0.5,1.5,1.5C754.5,313.7,754.4,314.3,754.4,314.9z"/>
	<path class="st2" d="M624.7,250c0,0.6,0,1.2,0,1.8c0,0.8-0.5,1.4-1.3,1.4c-1.3,0-2.5,0-3.8,0c-0.9,0-1.3-0.6-1.3-1.4
		c0-1.2,0-2.4,0-3.6c0-0.9,0.5-1.4,1.4-1.4c1.2,0,2.4,0,3.6,0c0.9,0,1.4,0.5,1.4,1.5c0,0,0,0.1,0,0.1
		C624.7,248.9,624.7,249.5,624.7,250C624.7,250,624.7,250,624.7,250z"/>
	<path class="st2" d="M689.6,211.1c0,0.6,0,1.2,0,1.8c0,0.8-0.5,1.3-1.3,1.4c-1.3,0-2.6,0-4,0c-0.7,0-1.2-0.6-1.2-1.3
		c0-1.3,0-2.5,0-3.8c0-0.8,0.5-1.3,1.3-1.3c1.3,0,2.5,0,3.8,0c0.8,0,1.3,0.6,1.3,1.4c0,0.1,0,0.1,0,0.2
		C689.6,210,689.6,210.5,689.6,211.1C689.6,211.1,689.6,211.1,689.6,211.1z"/>
	<path class="st2" d="M696.1,198.1c0-0.6,0-1.2,0-1.8c0-0.8,0.5-1.4,1.4-1.4c1.2,0,2.5,0,3.7,0c0.8,0,1.3,0.6,1.3,1.4
		c0,1.2,0,2.5,0,3.7c0,0.8-0.5,1.3-1.3,1.4c-1.3,0.1-2.6,0.1-3.9,0c-0.8,0-1.3-0.6-1.3-1.4c0-0.1,0-0.1,0-0.2
		C696.1,199.2,696.1,198.7,696.1,198.1C696.1,198.1,696.1,198.1,696.1,198.1z"/>
	<path class="st2" d="M598.8,295.4c0,0.6,0,1.2,0,1.8c0,0.9-0.5,1.4-1.4,1.4c-1.2,0-2.4,0-3.6,0c-0.9,0-1.4-0.5-1.4-1.4
		c0-1.2,0-2.4,0-3.7c0-0.8,0.5-1.3,1.3-1.4c1.3,0,2.5,0,3.8,0c0.8,0,1.3,0.5,1.3,1.4C598.8,294.2,598.8,294.8,598.8,295.4z"/>
	<path class="st2" d="M741.5,256.5c0,0.6,0,1.2,0,1.8c0,0.8-0.5,1.4-1.4,1.4c-1.2,0-2.4,0-3.7,0c-0.9,0-1.4-0.5-1.4-1.4
		c0-1.2,0-2.5,0-3.7c0-0.8,0.5-1.3,1.3-1.3c1.3,0,2.6,0,3.9,0c0.8,0,1.2,0.5,1.3,1.3c0,0.1,0,0.1,0,0.2
		C741.5,255.4,741.5,255.9,741.5,256.5C741.5,256.5,741.5,256.5,741.5,256.5z"/>
	<path class="st2" d="M722,282.4c0-0.6,0-1.2,0-1.8c0-0.9,0.5-1.4,1.4-1.4c1.2,0,2.4,0,3.7,0c0.9,0,1.4,0.5,1.4,1.4
		c0,1.2,0,2.4,0,3.7c0,0.9-0.5,1.4-1.4,1.4c-1.2,0-2.5,0-3.7,0c-0.8,0-1.3-0.6-1.3-1.4c0-0.1,0-0.1,0-0.2
		C722,283.6,722,283,722,282.4z"/>
	<path class="st2" d="M761,373.2c0-0.6,0-1.2,0-1.8c0-0.8,0.5-1.3,1.3-1.4c1.3,0,2.5,0,3.8,0c0.8,0,1.3,0.5,1.3,1.4
		c0,1.2,0,2.4,0,3.7c0,0.9-0.5,1.4-1.4,1.4c-1.2,0-2.4,0-3.6,0c-0.9,0-1.4-0.5-1.4-1.4c0-0.1,0-0.1,0-0.2
		C761,374.4,761,373.8,761,373.2C761,373.2,761,373.2,761,373.2z"/>
	<path class="st2" d="M673.4,259c4.5,0,9,0,13.5,0c0.6,0,1.3,0,1.9,0.1c0.3,0,0.7,0,1,0.3c0.1,0.1,0.4,0.1,0.6,0.1
		c0.5,0.1,1-0.1,1.4,0.4c0,0.1,0.2,0.1,0.3,0.1c0.4,0,0.7,0.1,1,0.4c0.1,0.1,0.2,0.2,0.3,0.2c0.6,0,1,0.5,1.5,0.8
		c0.1,0.1,0.2,0.1,0.3,0.2c0.6,0.1,1,0.6,1.4,0.9c0.3,0.3,0.7,0.4,1,0.7c0.4,0.4,0.9,0.9,1.3,1.2c0.5,0.4,0.7,1,1.2,1.4
		c0.4,0.4,0.6,0.9,0.9,1.3c0.3,0.3,0.5,0.6,0.6,1.1c0.1,0.4,0.5,0.7,0.5,1.1c0.6,0.3,0.3,1.2,0.8,1.5c0,0.9,0.6,1.7,0.7,2.5
		c0,0.4,0,0.8,0.1,1.1c0,0.3,0.2,0.5,0.2,0.8c0,0.1,0.1,0.3,0.1,0.4c0,0.2,0,0.4,0,0.6c0,9,0,17.9,0,26.9c0,0.4,0,0.9-0.3,1.3
		c-0.2,0.3-0.1,0.8-0.1,1.3c0,0.5,0,1.1-0.4,1.5c-0.1,0.1-0.1,0.3-0.1,0.5c0,0.4,0,0.8-0.4,1c0,0-0.1,0.1-0.1,0.1
		c0.1,0.7-0.4,1.2-0.7,1.7c-0.3,0.5-0.4,1-0.8,1.4c-0.5,0.5-0.8,1.1-1.2,1.7c-0.2,0.3-0.4,0.6-0.7,0.9c-0.7,0.6-1.3,1.3-2,1.9
		c-0.3,0.3-0.7,0.5-1.1,0.7c-0.3,0.2-0.5,0.4-0.8,0.5c-0.3,0.1-0.5,0.3-0.7,0.4c-0.4,0.3-1.1,0.4-1.5,0.7c-0.6,0.5-1.5,0.3-2.1,0.8
		c-0.1,0.1-0.4,0.1-0.6,0.1c-0.4,0.1-0.7,0.2-1.1,0.3c-0.3,0.1-0.5,0.2-0.8,0.2c-0.6,0-1.2,0.1-1.8,0.1c-9.1,0-18.1,0-27.2,0
		c-0.6,0-1.1,0-1.7,0c-0.4,0-0.7-0.2-1.1-0.3c-0.2,0-0.3-0.1-0.5-0.1c-0.5-0.1-1.1,0-1.5-0.5c-0.1-0.1-0.2-0.1-0.4-0.1
		c-0.3,0-0.7,0-0.9-0.4c0-0.1-0.2-0.1-0.3-0.1c-0.7-0.2-1.3-0.5-1.8-1c0,0,0,0-0.1,0c-0.5,0-0.8-0.4-1.1-0.6
		c-0.8-0.6-1.7-1.2-2.4-1.9c-0.6-0.6-1.2-1.2-1.7-1.8c-0.3-0.4-0.5-0.8-0.8-1.2c-0.4-0.4-0.4-1.1-0.9-1.4c-0.1-0.1-0.1-0.2-0.1-0.3
		c-0.1-0.3,0-0.6-0.4-0.7c-0.1,0-0.1-0.2-0.1-0.3c-0.1-0.5-0.1-0.9-0.5-1.2c-0.1-0.1-0.1-0.3-0.1-0.4c0-0.4,0-0.8-0.4-1.1
		c-0.1-0.1-0.1-0.4-0.1-0.7c0-0.7,0-1.5-0.4-2.1c-0.1-0.2,0-0.4,0-0.6c0-9.2,0-18.3,0-27.5c0-0.3,0.1-0.6,0.2-0.9
		c0.1-0.5,0.2-1,0.2-1.6c0-0.4,0-0.8,0.3-1.1c0.1-0.1,0.1-0.5,0.2-0.7c0-0.4,0.1-0.8,0.4-1.1c0.1-0.1,0.1-0.3,0.2-0.5
		c0.1-0.2,0-0.5,0.3-0.6c0,0,0.1-0.1,0.1-0.1c-0.1-0.6,0.5-0.9,0.6-1.5c0.1-0.3,0.3-0.5,0.5-0.7c0.5-0.6,0.8-1.3,1.4-1.9
		c0.6-0.6,1.1-1.3,1.8-1.9c0.5-0.5,1.2-0.8,1.7-1.2c0.6-0.5,1.4-0.8,2-1.3c0.1-0.1,0.2-0.1,0.3-0.1c0.4-0.1,0.8-0.1,1.1-0.5
		c0.1-0.1,0.3-0.1,0.5-0.1c0.2-0.1,0.4-0.2,0.7-0.3c0.3-0.1,0.6-0.2,0.9-0.2c0.4-0.1,0.9,0,1.3-0.4c0.1-0.1,0.4-0.1,0.7-0.1
		c0.8,0,1.5-0.1,2.3-0.1C664.5,259,669,259,673.4,259z M699,289.5C699,289.5,699,289.5,699,289.5c0-2.2,0-4.5,0-6.7
		c0-2.4-0.1-4.8,0-7.2c0-1-0.6-1.8-0.6-2.8c-0.5-0.3-0.4-0.8-0.5-1.2c0-0.1-0.1-0.2-0.2-0.3c-0.2-0.3-0.6-0.6-0.7-1
		c-0.4-1-1.2-1.6-2-2.4c-0.4-0.4-0.8-0.7-1.2-1.1c-0.4-0.4-0.8-0.8-1.3-0.9c-0.1,0-0.2-0.1-0.2-0.1c-0.1-0.3-0.4-0.3-0.6-0.4
		c-0.1,0-0.4-0.1-0.4-0.1c-0.2-0.4-0.5-0.3-0.9-0.4c-0.2,0-0.4,0-0.5-0.1c-0.4-0.4-0.9-0.3-1.3-0.4c-0.5,0-1,0-1.3-0.2
		c-0.4-0.3-0.8-0.3-1.3-0.3c-8.3,0-16.5,0-24.8,0c-0.6,0-1.3-0.2-1.8,0.3c-0.1,0.1-0.2,0-0.3,0c-0.4,0-0.9,0-1.3,0.1
		c-0.7,0.2-1.4,0.4-2.1,0.6c0,0-0.1,0-0.1,0c-0.1,0.3-0.5,0.3-0.8,0.4c-0.1,0-0.2,0.1-0.4,0.2c-0.1,0.1-0.3,0.2-0.4,0.3
		c-0.5,0.1-0.8,0.5-1.2,0.9c-0.4,0.4-0.9,0.8-1.3,1.2c-0.4,0.4-0.8,0.9-1.3,1.3c-0.4,0.3-0.4,0.8-0.7,1.1c-0.4,0.6-0.9,1.1-0.9,1.9
		c0,0.1,0,0.2-0.1,0.2c-0.5,0.3-0.3,0.7-0.4,1.1c0,0.2,0,0.4-0.2,0.5c-0.3,0.2-0.3,0.5-0.3,0.8c0,0.6-0.1,1.2-0.1,1.8
		c0,8.7,0,17.3,0,26c0,1.3,0.5,2.6,0.6,3.8c0,0.1,0,0.2,0.1,0.2c0.5,0.4,0.4,1.1,0.8,1.5c0.3,0.3,0.5,0.9,0.7,1.4
		c0,0.1,0.1,0.1,0.1,0.2c0.6,0.7,1.2,1.4,1.9,2c0.2,0.3,0.6,0.4,0.8,0.7c0.3,0.5,0.9,0.6,1.3,0.9c0.3,0.3,0.7,0.8,1.3,0.6
		c0.1,0,0.2,0,0.2,0.1c0.2,0.4,0.6,0.4,1,0.4c0.2,0,0.4,0.1,0.5,0.2c0.3,0.3,0.7,0.3,1,0.3c0.5,0,1,0,1.5,0.1c0.2,0,0.4,0,0.5,0.1
		c0.3,0.4,0.6,0.3,1,0.3c5.9,0,11.7,0,17.6,0c2.4,0,4.8,0,7.2,0c0.2,0,0.5,0,0.6-0.1c0.3-0.3,0.6-0.3,1-0.3c0.5,0,1,0,1.4-0.1
		c0.2,0,0.5-0.1,0.7-0.2c0.3-0.1,0.5-0.2,0.8-0.3c0.2-0.1,0.4,0,0.5-0.1c0.4-0.5,1.1-0.3,1.5-0.9c0.2-0.2,0.5-0.4,0.8-0.5
		c0.2-0.1,0.5,0,0.6-0.4c0.1-0.2,0.4-0.3,0.6-0.5c0.4-0.4,0.8-0.8,1.2-1.2c0.6-0.6,1.1-1.1,1.4-1.8c0.2-0.4,0.5-0.7,0.5-1.1
		c0-0.1,0.1-0.2,0.1-0.2c0.3-0.1,0.2-0.4,0.3-0.6c0-0.1,0-0.4,0.1-0.4c0.4-0.3,0.4-0.7,0.4-1.2c0-0.2,0-0.4,0.1-0.5
		c0.4-0.5,0.4-1,0.4-1.5C699,299,699,294.3,699,289.5z"/>
	<path class="st2" d="M722,340.8c0-0.6,0-1.2,0-1.8c0-0.9,0.5-1.4,1.4-1.4c1.2,0,2.4,0,3.6,0c0.9,0,1.4,0.5,1.5,1.5
		c0,1.2,0,2.3,0,3.5c0,0.9-0.5,1.5-1.5,1.5c-1.2,0-2.3,0-3.5,0c-1,0-1.5-0.5-1.5-1.5C722,342,722,341.4,722,340.8z"/>
	<path class="st2" d="M611.7,217.6c0,1.3,0,2.5,0,3.8c0,3.2-2.3,5.6-5.4,5.9c-0.2,0-0.4,0-0.5,0c-2.5,0-5,0-7.5,0
		c-1.6,0-3-0.5-4.2-1.6c-1.2-1.1-1.8-2.5-1.8-4.1c0-2.6,0-5.3,0-7.9c0-3.2,2.6-5.7,5.7-5.8c2.6,0,5.3,0,7.9,0c3.2,0,5.7,2.6,5.8,5.7
		C611.8,214.9,611.7,216.2,611.7,217.6C611.7,217.6,611.7,217.6,611.7,217.6z"/>
	<path class="st2" d="M754.4,217.6c0,1.3,0,2.5,0,3.8c0,3.1-2.3,5.5-5.3,5.8c-0.3,0-0.5,0-0.8,0c-2.4,0-4.8,0-7.2,0
		c-1.9,0-3.5-0.7-4.7-2.1c-0.9-1-1.4-2.3-1.4-3.6c0-2.7,0-5.3,0-8c0-3.1,2.6-5.7,5.7-5.7c2.7,0,5.3,0,8,0c3.1,0,5.6,2.6,5.7,5.7
		C754.5,214.9,754.4,216.3,754.4,217.6C754.4,217.6,754.4,217.6,754.4,217.6z"/>
	<path class="st2" d="M611.7,360.3c0,1.3,0,2.5,0,3.8c0,3.2-2.3,5.6-5.4,5.9c-0.2,0-0.4,0-0.5,0c-2.5,0-5,0-7.5,0
		c-1.6,0-3-0.5-4.2-1.6c-1.2-1.1-1.8-2.5-1.8-4.1c0-2.6,0-5.3,0-7.9c0-3.2,2.6-5.7,5.7-5.8c2.6,0,5.3,0,7.9,0c3.2,0,5.7,2.6,5.8,5.7
		C611.8,357.6,611.7,359,611.7,360.3C611.7,360.3,611.7,360.3,611.7,360.3z"/>
	<path class="st2" d="M688.7,289.6c0,0.8,0,1.6,0,2.4c0,0.5,0.1,1-0.4,1.4c-0.1,0.1-0.1,0.3-0.1,0.5c0,0.4-0.1,0.8-0.4,1.2
		c-0.1,0.1-0.1,0.4-0.2,0.6c-0.1,0.2,0,0.5-0.3,0.6c-0.1,0-0.1,0.2-0.1,0.2c0,0.6-0.5,1-0.8,1.4c-0.1,0.1-0.2,0.2-0.2,0.3
		c-0.2,0.5-0.5,0.9-0.9,1.2c-0.4,0.4-0.7,0.9-1.1,1.3c-0.6,0.6-1.2,1.3-1.9,1.6c-0.5,0.3-0.9,0.7-1.5,0.8c-0.3,0.5-1.1,0.3-1.5,0.8
		c-0.1,0.1-0.3,0.1-0.5,0.1c-0.2,0.1-0.5,0.1-0.6,0.2c-0.4,0.3-0.8,0.3-1.3,0.4c-0.4,0-0.9-0.1-1.3,0.4c-0.1,0.1-0.3,0.1-0.4,0.1
		c-1.1,0-2.1,0-3.2,0c-0.4,0-0.7,0.1-1-0.3c-0.1-0.1-0.4-0.1-0.7-0.1c-0.6,0-1.2,0-1.7-0.4c-0.1-0.1-0.3-0.1-0.5-0.1
		c-0.3-0.1-0.6,0-0.7-0.3c0,0-0.1-0.1-0.1-0.1c-0.6,0.1-1-0.5-1.5-0.6c-0.2,0-0.3-0.2-0.5-0.3c-0.1-0.1-0.2-0.2-0.4-0.2
		c-0.2-0.1-1-0.6-1.2-0.8c-0.4-0.4-0.9-0.8-1.3-1.2c-0.5-0.5-0.9-0.9-1.3-1.5c-0.4-0.6-0.9-1.2-1.4-1.8c-0.1-0.1-0.1-0.3-0.2-0.4
		c-0.1-0.2-0.2-0.4-0.3-0.6c-0.1-0.2-0.2-0.4-0.3-0.6c-0.2-0.4-0.4-0.8-0.5-1.2c-0.1-0.4-0.1-0.8-0.4-1.2c-0.2-0.2-0.2-0.6-0.2-0.9
		c0-1.8,0-3.7,0-5.5c0-0.3,0.2-0.7,0.3-1c0-0.1,0.1-0.1,0.1-0.2c0-0.8,0.5-1.4,0.6-2.1c0-0.2,0.2-0.4,0.3-0.6
		c0.1-0.1,0.2-0.2,0.2-0.3c0.1-0.6,0.5-1,0.9-1.5c0.2-0.4,0.4-0.8,0.7-1.1c0.4-0.4,0.8-0.9,1.2-1.4c0.4-0.5,1-0.9,1.4-1.3
		c0.3-0.3,0.6-0.7,1.2-0.7c0.3,0,0.4-0.6,0.8-0.5c0.5-0.5,1.2-0.4,1.7-0.9c0,0,0.1-0.1,0.2-0.1c0.5,0,0.9-0.3,1.4-0.4
		c0.9-0.3,1.9-0.5,2.9-0.6c0.9-0.1,1.7,0,2.6,0c0.5,0,1,0,1.5,0.3c0.1,0.1,0.4,0.1,0.6,0.1c0.5,0.1,1.1,0,1.6,0.5
		c0.1,0.1,0.3,0.1,0.4,0.1c0.3,0,0.7,0,0.8,0.4c0,0,0.1,0.1,0.1,0.1c0.7-0.1,1,0.6,1.6,0.7c0.5,0.6,1.4,0.7,1.9,1.4
		c0.3,0.4,0.8,0.7,1.1,1.1c0.6,0.6,1.2,1.1,1.7,1.8c0.3,0.3,0.4,0.8,0.6,1.1c0.4,0.5,0.4,1.2,0.9,1.6c0.1,0.1,0.1,0.3,0.1,0.5
		c0.1,0.2,0.2,0.5,0.3,0.7c0.1,0.2,0.2,0.4,0.2,0.6c0.1,0.4,0,0.9,0.4,1.2c0.1,0.1,0.1,0.4,0.1,0.6
		C688.6,287.7,688.6,288.7,688.7,289.6C688.6,289.6,688.7,289.6,688.7,289.6z M673.3,300C673.3,300,673.3,300,673.3,300
		c0.3,0,0.7,0.1,1,0c0.7-0.1,1.5,0.2,2.1-0.4c0.1-0.1,0.2,0,0.3,0c0.8,0,1.3-0.6,1.9-0.8c0.3-0.1,0.7-0.3,1-0.7
		c0.4-0.5,1-0.8,1.4-1.2c0.2-0.2,0.4-0.6,0.6-0.8c0.4-0.4,0.8-0.8,0.9-1.4c0-0.1,0.1-0.2,0.1-0.2c0.3-0.1,0.3-0.4,0.4-0.6
		c0.1-0.2,0.2-0.4,0.3-0.6c0.1-0.2,0.2-0.4,0.2-0.6c0.1-0.6,0-1.2,0.4-1.7c0.1-0.1,0-0.3,0-0.4c0-0.6,0-1.2,0-1.8
		c0-0.1,0-0.4-0.1-0.4c-0.4-0.3-0.4-0.8-0.3-1.2c0.1-0.8-0.6-1.3-0.7-2c-0.4-0.2-0.3-0.7-0.5-1c-0.2-0.3-0.6-0.6-0.8-0.9
		c-0.6-1-1.6-1.7-2.5-2.3c-0.2-0.1-0.4-0.4-0.6-0.5c-0.6-0.2-1.2-0.7-1.9-0.7c-0.1,0-0.2-0.1-0.2-0.1c-0.2-0.3-0.6-0.3-0.9-0.3
		c-1.2,0-2.4,0-3.7,0c-0.5,0-1-0.1-1.3,0.4c-0.1,0.1-0.3,0.1-0.5,0.1c-0.6,0.2-1.2,0.4-1.7,0.7c-0.5,0.3-1,0.7-1.5,1.1
		c-0.7,0.6-1.3,1.4-1.9,2.1c-0.2,0.2-0.4,0.4-0.5,0.6c-0.1,0.6-0.7,0.9-0.6,1.6c0,0,0,0.1-0.1,0.1c-0.4,0.2-0.3,0.6-0.4,0.9
		c-0.1,0.5,0,1-0.4,1.4c-0.1,0.1-0.1,0.3-0.1,0.4c0,0.5,0,1.1,0,1.6c0,0.2,0,0.5,0.1,0.7c0.3,0.4,0.3,0.9,0.3,1.3
		c0,0.3,0,0.6,0.2,0.8c0.3,0.3,0.3,0.6,0.4,1c0,0.1,0,0.2,0.1,0.2c0.5,0.3,0.4,1,0.9,1.4c0.2,0.1,0.4,0.3,0.5,0.5
		c0.3,0.6,0.7,1,1.2,1.4c0.3,0.2,0.6,0.4,0.8,0.6c0.4,0.3,1,0.7,1.4,0.9c0.5,0.3,1,0.6,1.7,0.6c0,0,0.1,0,0.1,0
		c0.2,0.4,0.6,0.3,1,0.4C672.1,300,672.7,300,673.3,300z"/>
	<path class="st2" d="M693.8,273.2c0,0.3,0.1,0.7,0,1c-0.4,0.7-0.5,1.6-1.3,2.1c-0.3,0.2-0.5,0.5-0.9,0.5c-0.1,0-0.2,0.1-0.3,0.2
		c-0.1,0.1-0.1,0.2-0.2,0.2c-0.8,0.1-1.7,0.3-2.5-0.2c-0.1-0.1-0.2-0.2-0.3-0.2c-0.5,0.1-0.7-0.4-1-0.6c-0.4-0.3-0.7-0.7-1-1.2
		c-0.1-0.2-0.1-0.4-0.1-0.6c0-0.5,0-1.1,0-1.6c-0.1-1.1,0.6-1.9,1.2-2.7c0-0.1,0.2-0.1,0.3-0.1c0.1,0,0.3,0,0.4-0.1
		c0.7-0.7,1.6-0.5,2.4-0.5c1.1-0.1,1.8,0.5,2.5,1.2c0.5,0.5,0.7,1.1,1,1.7C693.9,272.5,693.8,272.9,693.8,273.2
		C693.8,273.2,693.8,273.2,693.8,273.2z"/>
</g>
<g>
	<path class="st2" d="M131.8,124.6H129v-22.4h9c2.2,0,3.9,0.7,5.1,2c1.3,1.3,1.9,2.9,1.9,4.8c0,1.9-0.6,3.5-1.9,4.8
		c-1.3,1.3-3,2-5.1,2h-6.2V124.6z M137.7,113.2c1.3,0,2.4-0.4,3.2-1.2c0.8-0.8,1.2-1.8,1.2-3.1c0-1.3-0.4-2.3-1.2-3.1
		c-0.8-0.8-1.9-1.2-3.2-1.2h-5.9v8.5H137.7z"/>
	<path class="st2" d="M156,125c-2.4,0-4.4-0.8-6-2.4c-1.5-1.6-2.3-3.6-2.3-6.2c0-2.4,0.8-4.4,2.3-6c1.5-1.6,3.4-2.5,5.7-2.5
		c2.4,0,4.3,0.8,5.7,2.5c1.4,1.6,2.1,3.7,2.1,6.2v0.6h-13.2c0.1,1.6,0.7,2.9,1.8,4c1.1,1.1,2.4,1.6,4.1,1.6c2,0,3.7-0.7,5-2.1
		l1.2,1.6C160.8,124.2,158.7,125,156,125z M161.1,115.4c0-1.4-0.5-2.6-1.4-3.8s-2.2-1.7-3.9-1.7c-1.6,0-2.9,0.5-3.8,1.6
		s-1.4,2.4-1.5,3.8H161.1z"/>
	<path class="st2" d="M170.1,124.6h-2.5v-16.3h2.5v2.6c1.5-2,3.3-3,5.4-3v2.6c-0.3-0.1-0.7-0.1-1-0.1c-0.8,0-1.6,0.3-2.5,0.8
		c-0.9,0.5-1.5,1.1-1.9,1.8V124.6z"/>
	<path class="st2" d="M183.9,125c-2.8,0-4.9-0.9-6.6-2.6l1.3-1.8c0.6,0.7,1.3,1.2,2.3,1.6c1,0.4,2,0.7,3,0.7c1.2,0,2.2-0.3,2.8-0.8
		c0.7-0.5,1-1.2,1-2c0-0.7-0.3-1.3-1-1.7c-0.7-0.4-1.5-0.7-2.5-0.9c-1-0.2-2-0.5-2.9-0.7c-1-0.3-1.8-0.8-2.5-1.4
		c-0.7-0.7-1-1.6-1-2.7c0-1.3,0.5-2.4,1.6-3.3c1.1-0.9,2.6-1.3,4.4-1.3c2.4,0,4.5,0.8,6,2.4l-1.2,1.8c-1.1-1.4-2.8-2.1-4.8-2.1
		c-1.1,0-2,0.2-2.6,0.7c-0.7,0.5-1,1.1-1,1.8c0,0.7,0.3,1.2,1,1.5s1.5,0.7,2.5,0.9c1,0.2,2,0.5,2.9,0.8c1,0.3,1.8,0.8,2.5,1.5
		c0.7,0.7,1,1.7,1,2.8c0,1.4-0.6,2.6-1.7,3.5C187.5,124.5,185.9,125,183.9,125z"/>
	<path class="st2" d="M207.3,122.5c-1.5,1.6-3.4,2.5-5.8,2.5c-2.4,0-4.4-0.8-5.8-2.5c-1.5-1.6-2.2-3.7-2.2-6.1
		c0-2.4,0.7-4.4,2.2-6.1c1.5-1.6,3.4-2.4,5.8-2.4c2.4,0,4.4,0.8,5.8,2.4c1.5,1.6,2.2,3.7,2.2,6.1
		C209.5,118.9,208.8,120.9,207.3,122.5z M197.5,120.9c1,1.2,2.3,1.8,4,1.8c1.7,0,3-0.6,3.9-1.8c1-1.2,1.4-2.7,1.4-4.5
		c0-1.8-0.5-3.2-1.4-4.4c-1-1.2-2.3-1.8-3.9-1.8c-1.7,0-3,0.6-4,1.8c-1,1.2-1.5,2.7-1.5,4.4C196.1,118.2,196.5,119.7,197.5,120.9z"
		/>
	<path class="st2" d="M227.1,124.6h-2.5V114c0-1.4-0.3-2.3-0.9-2.9c-0.6-0.6-1.5-0.9-2.7-0.9c-0.9,0-1.9,0.2-2.7,0.7
		c-0.9,0.5-1.6,1.1-2.1,1.8v11.9h-2.5v-16.3h2.5v2.4c0.6-0.7,1.5-1.4,2.5-1.9c1.1-0.5,2.1-0.8,3.3-0.8c3.5,0,5.2,1.8,5.2,5.3V124.6z
		"/>
	<path class="st2" d="M244.9,124.6h-2.5v-1.9c-1.4,1.5-3.2,2.3-5.4,2.3c-1.5,0-2.8-0.5-4-1.4c-1.1-1-1.7-2.3-1.7-3.9
		c0-1.7,0.6-3,1.7-4c1.1-0.9,2.5-1.4,4-1.4c2.3,0,4.1,0.7,5.4,2.2v-2.9c0-1.1-0.4-1.9-1.1-2.5c-0.8-0.6-1.8-0.9-3-0.9
		c-1.9,0-3.6,0.8-5,2.3l-1.2-1.8c1.7-1.8,3.9-2.7,6.5-2.7c1.9,0,3.4,0.4,4.5,1.3c1.2,0.9,1.8,2.3,1.8,4.1V124.6z M237.9,123.2
		c2,0,3.5-0.7,4.5-2v-3.1c-1-1.3-2.5-2-4.5-2c-1.2,0-2.1,0.3-2.9,1c-0.8,0.7-1.1,1.5-1.1,2.6c0,1,0.4,1.9,1.1,2.5
		C235.7,122.8,236.7,123.2,237.9,123.2z"/>
	<path class="st2" d="M252.4,124.6h-2.5v-22.4h2.5V124.6z"/>
	<path class="st2" d="M274.6,124.6h-2.8v-20h-7.1v-2.5h17v2.5h-7.1V124.6z"/>
	<path class="st2" d="M287.9,124.6h-2.5v-16.3h2.5v2.6c1.5-2,3.3-3,5.4-3v2.6c-0.3-0.1-0.7-0.1-1-0.1c-0.8,0-1.6,0.3-2.5,0.8
		c-0.9,0.5-1.5,1.1-1.9,1.8V124.6z"/>
	<path class="st2" d="M309.1,124.6h-2.5v-1.9c-1.4,1.5-3.2,2.3-5.4,2.3c-1.5,0-2.8-0.5-4-1.4c-1.1-1-1.7-2.3-1.7-3.9
		c0-1.7,0.6-3,1.7-4c1.1-0.9,2.5-1.4,4-1.4c2.3,0,4.1,0.7,5.4,2.2v-2.9c0-1.1-0.4-1.9-1.1-2.5c-0.8-0.6-1.8-0.9-3-0.9
		c-1.9,0-3.6,0.8-5,2.3l-1.2-1.8c1.7-1.8,3.9-2.7,6.5-2.7c1.9,0,3.4,0.4,4.5,1.3c1.2,0.9,1.8,2.3,1.8,4.1V124.6z M302.1,123.2
		c2,0,3.5-0.7,4.5-2v-3.1c-1-1.3-2.5-2-4.5-2c-1.2,0-2.1,0.3-2.9,1c-0.8,0.7-1.1,1.5-1.1,2.6c0,1,0.4,1.9,1.1,2.5
		C300,122.8,301,123.2,302.1,123.2z"/>
	<path class="st2" d="M315.4,106c-0.4,0-0.8-0.2-1.2-0.5c-0.3-0.3-0.5-0.7-0.5-1.2s0.2-0.9,0.5-1.2c0.3-0.3,0.7-0.5,1.2-0.5
		c0.5,0,0.9,0.2,1.2,0.5c0.3,0.3,0.5,0.7,0.5,1.2s-0.2,0.9-0.5,1.2C316.3,105.9,315.9,106,315.4,106z M316.7,124.6h-2.5v-16.3h2.5
		V124.6z"/>
	<path class="st2" d="M335.3,124.6h-2.5V114c0-1.4-0.3-2.3-0.9-2.9c-0.6-0.6-1.5-0.9-2.7-0.9c-0.9,0-1.9,0.2-2.7,0.7
		c-0.9,0.5-1.6,1.1-2.1,1.8v11.9h-2.5v-16.3h2.5v2.4c0.6-0.7,1.5-1.4,2.5-1.9c1.1-0.5,2.1-0.8,3.3-0.8c3.5,0,5.2,1.8,5.2,5.3V124.6z
		"/>
	<path class="st2" d="M347.6,125c-2.4,0-4.4-0.8-6-2.4c-1.5-1.6-2.3-3.6-2.3-6.2c0-2.4,0.8-4.4,2.3-6c1.5-1.6,3.4-2.5,5.7-2.5
		c2.4,0,4.3,0.8,5.7,2.5c1.4,1.6,2.1,3.7,2.1,6.2v0.6H342c0.1,1.6,0.7,2.9,1.8,4c1.1,1.1,2.4,1.6,4.1,1.6c2,0,3.7-0.7,5-2.1l1.2,1.6
		C352.4,124.2,350.3,125,347.6,125z M352.7,115.4c0-1.4-0.5-2.6-1.4-3.8c-0.9-1.1-2.2-1.7-3.9-1.7c-1.6,0-2.9,0.5-3.8,1.6
		c-0.9,1.1-1.4,2.4-1.5,3.8H352.7z"/>
	<path class="st2" d="M361.8,124.6h-2.5v-16.3h2.5v2.6c1.5-2,3.3-3,5.4-3v2.6c-0.3-0.1-0.7-0.1-1-0.1c-0.8,0-1.6,0.3-2.5,0.8
		c-0.9,0.5-1.5,1.1-1.9,1.8V124.6z"/>
	<path class="st2" d="M369.8,125.3h-2l8-23.8h2L369.8,125.3z"/>
	<path class="st2" d="M402.4,124.6h-2.8v-18.5l-7.6,18.5h-1.1l-7.6-18.5v18.5h-2.8v-22.4h4l7,16.9l7-16.9h4V124.6z"/>
	<path class="st2" d="M414.9,125c-2.4,0-4.4-0.8-6-2.4c-1.5-1.6-2.3-3.6-2.3-6.2c0-2.4,0.8-4.4,2.3-6c1.5-1.6,3.4-2.5,5.7-2.5
		c2.4,0,4.3,0.8,5.7,2.5c1.4,1.6,2.1,3.7,2.1,6.2v0.6h-13.2c0.1,1.6,0.7,2.9,1.8,4c1.1,1.1,2.4,1.6,4.1,1.6c2,0,3.7-0.7,5-2.1
		l1.2,1.6C419.7,124.2,417.5,125,414.9,125z M419.9,115.4c0-1.4-0.5-2.6-1.4-3.8c-0.9-1.1-2.2-1.7-3.9-1.7c-1.6,0-2.9,0.5-3.8,1.6
		c-0.9,1.1-1.4,2.4-1.5,3.8H419.9z"/>
	<path class="st2" d="M440.8,124.6h-2.5v-2.4c-1.4,1.9-3.2,2.8-5.5,2.8c-2.2,0-3.9-0.8-5.2-2.3c-1.3-1.5-2-3.6-2-6.2
		c0-2.6,0.7-4.6,2-6.2c1.3-1.6,3.1-2.3,5.2-2.3c2.2,0,4.1,1,5.5,2.9v-8.6h2.5V124.6z M433.4,122.7c1,0,1.9-0.2,2.8-0.7
		c0.9-0.5,1.6-1.1,2.1-1.8v-7.4c-0.5-0.7-1.2-1.4-2.1-1.9c-0.9-0.5-1.8-0.8-2.8-0.8c-1.6,0-2.9,0.6-3.8,1.8
		c-0.9,1.2-1.4,2.7-1.4,4.5c0,1.8,0.5,3.3,1.4,4.5C430.5,122.2,431.8,122.7,433.4,122.7z"/>
	<path class="st2" d="M447.1,106c-0.4,0-0.8-0.2-1.2-0.5c-0.3-0.3-0.5-0.7-0.5-1.2s0.2-0.9,0.5-1.2c0.3-0.3,0.7-0.5,1.2-0.5
		c0.5,0,0.9,0.2,1.2,0.5c0.3,0.3,0.5,0.7,0.5,1.2s-0.2,0.9-0.5,1.2C448,105.9,447.6,106,447.1,106z M448.4,124.6h-2.5v-16.3h2.5
		V124.6z"/>
	<path class="st2" d="M457.5,125c-1.2,0-2.1-0.3-2.7-1c-0.6-0.7-0.9-1.6-0.9-2.8v-10.6h-2.7v-2.2h2.7v-4.4h2.5v4.4h3.3v2.2h-3.3
		v10.1c0,0.6,0.1,1.1,0.4,1.5c0.3,0.4,0.7,0.6,1.2,0.6c0.7,0,1.3-0.2,1.7-0.7l0.7,1.9C459.8,124.6,458.8,125,457.5,125z"/>
	<path class="st2" d="M476,124.6h-2.5v-1.9c-1.4,1.5-3.2,2.3-5.4,2.3c-1.5,0-2.8-0.5-4-1.4c-1.1-1-1.7-2.3-1.7-3.9
		c0-1.7,0.6-3,1.7-4c1.1-0.9,2.5-1.4,4-1.4c2.3,0,4.1,0.7,5.4,2.2v-2.9c0-1.1-0.4-1.9-1.1-2.5c-0.8-0.6-1.8-0.9-3-0.9
		c-1.9,0-3.6,0.8-5,2.3l-1.2-1.8c1.7-1.8,3.9-2.7,6.5-2.7c1.9,0,3.4,0.4,4.5,1.3c1.2,0.9,1.8,2.3,1.8,4.1V124.6z M469,123.2
		c2,0,3.5-0.7,4.5-2v-3.1c-1-1.3-2.5-2-4.5-2c-1.2,0-2.1,0.3-2.9,1c-0.8,0.7-1.1,1.5-1.1,2.6c0,1,0.4,1.9,1.1,2.5
		C466.9,122.8,467.8,123.2,469,123.2z"/>
	<path class="st2" d="M485.2,125c-1.2,0-2.1-0.3-2.7-1c-0.6-0.7-0.9-1.6-0.9-2.8v-10.6h-2.7v-2.2h2.7v-4.4h2.5v4.4h3.3v2.2h-3.3
		v10.1c0,0.6,0.1,1.1,0.4,1.5c0.3,0.4,0.7,0.6,1.2,0.6c0.7,0,1.3-0.2,1.7-0.7l0.7,1.9C487.4,124.6,486.4,125,485.2,125z"/>
	<path class="st2" d="M492.2,106c-0.4,0-0.8-0.2-1.2-0.5c-0.3-0.3-0.5-0.7-0.5-1.2s0.2-0.9,0.5-1.2c0.3-0.3,0.7-0.5,1.2-0.5
		c0.5,0,0.9,0.2,1.2,0.5c0.3,0.3,0.5,0.7,0.5,1.2s-0.2,0.9-0.5,1.2C493.1,105.9,492.7,106,492.2,106z M493.5,124.6h-2.5v-16.3h2.5
		V124.6z"/>
	<path class="st2" d="M511.5,122.5c-1.5,1.6-3.4,2.5-5.8,2.5c-2.4,0-4.4-0.8-5.8-2.5c-1.5-1.6-2.2-3.7-2.2-6.1
		c0-2.4,0.7-4.4,2.2-6.1c1.5-1.6,3.4-2.4,5.8-2.4c2.4,0,4.4,0.8,5.8,2.4c1.5,1.6,2.2,3.7,2.2,6.1
		C513.7,118.9,512.9,120.9,511.5,122.5z M501.7,120.9c1,1.2,2.3,1.8,4,1.8c1.7,0,3-0.6,3.9-1.8c1-1.2,1.4-2.7,1.4-4.5
		c0-1.8-0.5-3.2-1.4-4.4c-1-1.2-2.3-1.8-3.9-1.8c-1.7,0-3,0.6-4,1.8c-1,1.2-1.5,2.7-1.5,4.4C500.2,118.2,500.7,119.7,501.7,120.9z"
		/>
	<path class="st2" d="M531.3,124.6h-2.5V114c0-1.4-0.3-2.3-0.9-2.9c-0.6-0.6-1.5-0.9-2.7-0.9c-0.9,0-1.9,0.2-2.7,0.7
		c-0.9,0.5-1.6,1.1-2.1,1.8v11.9h-2.5v-16.3h2.5v2.4c0.6-0.7,1.5-1.4,2.5-1.9c1.1-0.5,2.1-0.8,3.3-0.8c3.5,0,5.2,1.8,5.2,5.3V124.6z
		"/>
	<path class="st2" d="M555.7,125c-3.3,0-6-1.1-8.2-3.2c-2.2-2.2-3.3-5-3.3-8.4c0-3.4,1.1-6.2,3.3-8.4c2.2-2.2,5-3.2,8.2-3.2
		c3.6,0,6.4,1.5,8.5,4.4l-2.4,1.3c-0.7-1-1.5-1.8-2.6-2.4c-1.1-0.6-2.3-0.9-3.5-0.9c-2.5,0-4.5,0.9-6.2,2.6
		c-1.6,1.7-2.5,3.9-2.5,6.5c0,2.6,0.8,4.8,2.5,6.5c1.6,1.7,3.7,2.6,6.2,2.6c1.3,0,2.4-0.3,3.5-0.9c1.1-0.6,2-1.4,2.6-2.4l2.4,1.3
		C562.1,123.5,559.3,125,555.7,125z"/>
	<path class="st2" d="M580.7,122.5c-1.5,1.6-3.4,2.5-5.8,2.5c-2.4,0-4.4-0.8-5.8-2.5c-1.5-1.6-2.2-3.7-2.2-6.1
		c0-2.4,0.7-4.4,2.2-6.1c1.5-1.6,3.4-2.4,5.8-2.4c2.4,0,4.4,0.8,5.8,2.4c1.5,1.6,2.2,3.7,2.2,6.1
		C582.9,118.9,582.2,120.9,580.7,122.5z M570.9,120.9c1,1.2,2.3,1.8,4,1.8c1.7,0,3-0.6,3.9-1.8c1-1.2,1.4-2.7,1.4-4.5
		c0-1.8-0.5-3.2-1.4-4.4c-1-1.2-2.3-1.8-3.9-1.8c-1.7,0-3,0.6-4,1.8c-1,1.2-1.5,2.7-1.5,4.4C569.4,118.2,569.9,119.7,570.9,120.9z"
		/>
	<path class="st2" d="M599.7,124.6h-2.5v-1.9c-1.4,1.5-3.2,2.3-5.4,2.3c-1.5,0-2.8-0.5-4-1.4c-1.1-1-1.7-2.3-1.7-3.9
		c0-1.7,0.6-3,1.7-4c1.1-0.9,2.5-1.4,4-1.4c2.3,0,4.1,0.7,5.4,2.2v-2.9c0-1.1-0.4-1.9-1.1-2.5c-0.8-0.6-1.8-0.9-3-0.9
		c-1.9,0-3.6,0.8-5,2.3l-1.2-1.8c1.7-1.8,3.9-2.7,6.5-2.7c1.9,0,3.4,0.4,4.5,1.3c1.2,0.9,1.8,2.3,1.8,4.1V124.6z M592.7,123.2
		c2,0,3.5-0.7,4.5-2v-3.1c-1-1.3-2.5-2-4.5-2c-1.2,0-2.1,0.3-2.9,1c-0.8,0.7-1.1,1.5-1.1,2.6c0,1,0.4,1.9,1.1,2.5
		C590.6,122.8,591.5,123.2,592.7,123.2z"/>
	<path class="st2" d="M611.9,125c-2.4,0-4.4-0.8-5.9-2.4s-2.3-3.7-2.3-6.1s0.8-4.5,2.3-6.1c1.5-1.6,3.5-2.4,5.9-2.4
		c2.5,0,4.5,0.9,6,2.8l-1.7,1.5c-1-1.4-2.4-2.1-4.1-2.1c-1.7,0-3.1,0.6-4.1,1.8c-1,1.2-1.5,2.7-1.5,4.5c0,1.8,0.5,3.3,1.5,4.5
		s2.4,1.8,4.1,1.8s3.1-0.7,4.1-2.1l1.7,1.5C616.4,124.1,614.4,125,611.9,125z"/>
	<path class="st2" d="M634.9,124.6h-2.5v-10.7c0-1.3-0.3-2.3-0.9-2.9c-0.6-0.6-1.5-0.8-2.7-0.8c-0.9,0-1.8,0.2-2.7,0.7
		c-0.9,0.5-1.6,1.1-2.1,1.8v11.9h-2.5v-22.4h2.5v8.5c0.6-0.7,1.5-1.4,2.5-1.9c1.1-0.5,2.2-0.8,3.3-0.8c3.5,0,5.2,1.7,5.2,5.2V124.6z
		"/>
</g>
</svg>
