<?xml version="1.0" encoding="UTF-8" standalone="no"?>
<!-- Generator: Adobe Illustrator 24.0.1, SVG Export Plug-In . SVG Version: 6.00 Build 0)  -->

<svg
   version="1.1"
   id="Layer_1"
   x="0px"
   y="0px"
   viewBox="0 0 457.9488 707.96476"
   xml:space="preserve"
   sodipodi:docname="Head.svg"
   inkscape:version="1.1 (c4e8f9e, 2021-05-24)"
   width="457.94879"
   height="707.96478"
   xmlns:inkscape="http://www.inkscape.org/namespaces/inkscape"
   xmlns:sodipodi="http://sodipodi.sourceforge.net/DTD/sodipodi-0.dtd"
   xmlns="http://www.w3.org/2000/svg"
   xmlns:svg="http://www.w3.org/2000/svg"><defs
   id="defs210" /><sodipodi:namedview
   id="namedview208"
   pagecolor="#ffffff"
   bordercolor="#666666"
   borderopacity="1.0"
   inkscape:pageshadow="2"
   inkscape:pageopacity="0.0"
   inkscape:pagecheckerboard="true"
   showgrid="false"
   inkscape:lockguides="false"
   inkscape:zoom="0.1296109"
   inkscape:cx="1138.0216"
   inkscape:cy="223.74661"
   inkscape:window-width="1280"
   inkscape:window-height="774"
   inkscape:window-x="0"
   inkscape:window-y="26"
   inkscape:window-maximized="0"
   inkscape:current-layer="Layer_1" />
<style
   type="text/css"
   id="style107">
	.st0{fill:#231850;}
	.st1{fill:#BC9480;}
</style>
<g
   id="g153"
   transform="translate(1387.1989,-2023.7603)">
	
	
	
	
	
	
	
	
	
	
	
	
	
	
	
	
	
	
	
	
	
	
</g>
<g
   id="g175"
   transform="translate(76.874766,-1867.8676)">
	<g
   id="g173">
		<path
   class="st1"
   d="m 537.2,2069.7 c 0,-5.7 2.7,-8.5 8.2,-8.5 h 113.5 c 10.5,0 20.4,2 29.6,5.9 9.2,3.9 17.3,9.3 24.1,16.1 6.8,6.8 12.2,14.8 16.1,23.9 3.9,9.2 5.9,19.1 5.9,29.8 0,9.8 -1.8,18.9 -5.3,27.4 -3.5,8.5 -8.3,15.9 -14.5,22.3 5,3.6 9.4,7.8 13.4,12.5 4,4.7 7.4,9.8 10.3,15.2 2.9,5.4 5.1,11.2 6.7,17.3 1.6,6.1 2.4,12.4 2.4,18.8 0,10.8 -2,21 -6.1,30.7 -4.1,9.7 -9.6,18.2 -16.5,25.6 -7,7.4 -15.2,13.2 -24.6,17.5 -9.4,4.3 -19.5,6.4 -30.3,6.4 H 545.4 c -2.4,0 -4.4,-0.6 -5.9,-1.9 -1.5,-1.3 -2.3,-3.2 -2.3,-5.9 z m 145,68.1 c 0,-4.6 -0.8,-8.9 -2.5,-12.9 -1.6,-4 -3.9,-7.4 -6.8,-10.3 -2.9,-2.9 -6.4,-5.2 -10.5,-6.8 -4.1,-1.6 -8.5,-2.4 -13.4,-2.4 h -59.4 v 65.7 h 58.9 c 4.8,0 9.3,-0.8 13.5,-2.5 4.1,-1.7 7.7,-4 10.6,-7 3,-3 5.3,-6.5 7,-10.5 1.8,-4.2 2.6,-8.6 2.6,-13.3 z M 694,2249 c 0,-4.1 -0.7,-8.1 -2.2,-12.1 -1.5,-3.9 -3.5,-7.5 -6,-10.6 -2.5,-3.1 -5.6,-5.8 -9.1,-7.9 -3.5,-2.1 -7.3,-3.5 -11.5,-4.3 -2.4,-0.4 -4.9,-0.7 -7.4,-1 -2.5,-0.3 -5,-0.5 -7.5,-0.5 h -60.7 v 73.7 h 60.7 c 2.5,0 5,-0.1 7.5,-0.3 2.4,-0.2 4.8,-0.5 7.3,-1 4.1,-0.6 7.9,-2 11.4,-4.2 3.5,-2.2 6.6,-4.9 9.2,-8.2 2.6,-3.3 4.6,-6.9 6.1,-11 1.5,-3.9 2.2,-8.1 2.2,-12.6 z"
   id="path155" />
		<path
   class="st1"
   d="m 954.9,2305.2 c -10.6,9.1 -22.3,16.2 -34.9,21.4 -12.6,5.2 -26.5,7.8 -41.6,7.8 -16.3,0 -31.8,-3.1 -46.4,-9.3 -14.6,-6.2 -27.5,-14.6 -38.5,-25.4 -11,-10.8 -19.7,-23.4 -26.2,-37.8 -6.5,-14.5 -9.7,-30 -9.7,-46.7 0,-10.8 1.3,-21.2 4,-31.2 2.7,-10 6.4,-19.4 11.3,-28.2 4.9,-8.8 10.9,-16.8 17.9,-24.1 7,-7.3 14.8,-13.6 23.5,-18.8 8.6,-5.2 18,-9.2 28.1,-12.1 10.1,-2.8 20.8,-4.3 32,-4.3 9.2,0 18.3,1.1 27.2,3.4 8.9,2.2 17.4,5.4 25.5,9.5 8,4.1 15.6,9.1 22.6,15 7,5.9 13.2,12.5 18.5,19.9 7.3,10.2 12.6,21.1 16,32.8 3.4,11.7 5.1,24.7 5.1,39 0,3.5 -0.2,6.4 -0.5,8.8 -0.3,2.4 -1.1,4.3 -2.3,5.7 -1.2,1.5 -3,2.5 -5.4,3.2 -2.4,0.7 -5.8,1 -10.2,1 h -161 c 1.6,8.7 4.6,16.4 9,23.1 4.4,6.7 9.6,12.4 15.7,17.1 6,4.7 12.6,8.2 19.8,10.5 7.1,2.4 14.3,3.5 21.4,3.5 5.4,0 10.7,-0.5 15.7,-1.6 5,-1.1 9.7,-2.5 14.1,-4.4 4.4,-1.8 8.4,-3.9 12.1,-6.3 3.7,-2.4 6.9,-4.8 9.7,-7.3 0,-0.1 0.1,-0.2 0.2,-0.2 1.5,-1.3 2.8,-2.4 4.2,-3.2 1.3,-0.8 2.7,-1.2 4.2,-1.2 1.1,0 2.3,0.4 3.7,1.1 1.4,0.7 2.7,1.9 4.1,3.6 3.3,4 6,7.3 8.3,10 2.3,2.7 4.2,4.9 5.6,6.7 1.5,1.8 2.5,3.4 3.2,4.7 0.7,1.3 1,2.7 1,4 -0.1,3.6 -2.4,6.9 -7,10.3 z m -80.6,-163.6 c -7.1,0 -14.1,1.3 -20.9,3.9 -6.8,2.6 -13,6.1 -18.6,10.6 -5.6,4.5 -10.5,9.7 -14.7,15.8 -4.2,6.1 -7.2,12.6 -9.2,19.6 h 128.5 c -1.9,-7.4 -4.9,-14.1 -8.8,-20.2 -3.9,-6.1 -8.7,-11.4 -14.2,-15.8 -5.6,-4.4 -11.9,-7.8 -19.1,-10.3 -7.1,-2.4 -14.7,-3.6 -23,-3.6 z"
   id="path157" />
		<path
   class="st1"
   d="m 1085.9,2397.2 c -1.1,2.7 -2.5,4.6 -4.2,5.9 -1.7,1.3 -3.9,1.9 -6.7,1.9 h -34.1 c -3.4,0 -5.7,-0.6 -7,-1.7 -1.3,-1.2 -1.9,-2.6 -1.9,-4.3 0,-0.8 0.2,-2.1 0.5,-3.6 0.3,-1.6 0.6,-2.5 0.8,-2.7 l 31.9,-81.5 -80.9,-197.2 c 0,-0.2 -0.1,-0.4 -0.2,-0.5 v -1.6 c -0.6,-1.3 -0.9,-2.8 -0.9,-4.5 0,-2.1 0.7,-3.7 2.2,-4.9 1.5,-1.2 3.7,-1.8 6.7,-1.8 h 32.8 c 5.2,0 8.8,2.5 10.7,7.6 l 3.3,8.5 c 2.4,6.8 5.1,14.4 8.2,22.8 3,8.4 6.2,17.1 9.4,26 3.3,9 6.6,17.9 9.9,26.9 3.3,9 6.5,17.5 9.4,25.4 3,7.9 5.7,15.1 8.1,21.4 2.4,6.3 4.4,11.3 5.8,15 l 53.7,-146.1 c 1.1,-2.7 2.5,-4.6 4.2,-5.9 1.7,-1.3 3.9,-1.9 6.7,-1.9 h 34.1 c 3.4,0 5.7,0.6 7,1.7 1.3,1.2 1.9,2.6 1.9,4.3 0,0.8 -0.2,2.1 -0.5,3.6 -0.3,1.6 -0.6,2.5 -0.8,2.7 z"
   id="path159" />
		<path
   class="st1"
   d="m 1203.1,2215.8 c 0,-11 1.4,-21.6 4.3,-31.8 2.8,-10.2 6.9,-19.7 12.1,-28.6 5.2,-8.8 11.4,-16.8 18.7,-24 7.3,-7.2 15.3,-13.4 24.1,-18.5 8.8,-5.1 18.3,-9.1 28.4,-12 10.1,-2.8 20.6,-4.3 31.6,-4.3 10.9,0 21.4,1.4 31.5,4.3 10.2,2.8 19.6,6.8 28.4,12 8.8,5.1 16.8,11.3 24,18.5 7.3,7.2 13.5,15.2 18.7,24 5.2,8.8 9.2,18.4 12.1,28.6 2.8,10.2 4.3,20.8 4.3,31.8 0,11 -1.4,21.6 -4.3,31.8 -2.8,10.2 -6.9,19.6 -12.1,28.4 -5.2,8.8 -11.4,16.8 -18.7,24 -7.3,7.3 -15.3,13.5 -24,18.6 -8.8,5.1 -18.2,9.1 -28.4,12 -10.2,2.8 -20.7,4.3 -31.5,4.3 -11,0 -21.5,-1.4 -31.6,-4.3 -10.1,-2.8 -19.6,-6.8 -28.4,-12 -8.8,-5.1 -16.9,-11.3 -24.1,-18.6 -7.3,-7.3 -13.5,-15.3 -18.7,-24 -5.2,-8.8 -9.2,-18.2 -12.1,-28.4 -2.9,-10.2 -4.3,-20.8 -4.3,-31.8 z m 51.2,0 c 0,9.7 1.7,18.8 5.1,27.5 3.4,8.6 8.1,16.2 14.2,22.6 6,6.4 13.2,11.5 21.5,15.2 8.3,3.8 17.3,5.6 27.1,5.6 9.6,0 18.4,-1.9 26.6,-5.6 8.2,-3.7 15.2,-8.8 21.1,-15.2 5.9,-6.4 10.6,-13.9 13.9,-22.6 3.3,-8.6 5,-17.8 5,-27.5 0,-9.6 -1.7,-18.7 -5,-27.4 -3.3,-8.7 -8,-16.4 -13.9,-23 -5.9,-6.6 -13,-11.9 -21.1,-15.8 -8.2,-3.9 -17,-5.9 -26.6,-5.9 -9.8,0 -18.8,2 -27.1,5.9 -8.3,3.9 -15.5,9.2 -21.5,15.8 -6.1,6.6 -10.8,14.2 -14.2,23 -3.4,8.7 -5.1,17.8 -5.1,27.4 z"
   id="path161" />
		<path
   class="st1"
   d="m 1467.3,2105.5 c 1.5,-1.9 2.8,-3.1 4.2,-3.6 1,-1 2.4,-1.5 4.4,-1.5 1.9,-0.1 3.7,-0.1 5.4,-0.1 h 18.3 c 3.5,0 6.1,1.2 7.8,3.4 1.7,2.3 2.8,4.8 3.4,7.6 l 2,19.2 c 2.8,-4.1 6.2,-8.2 10.3,-12.2 4.1,-4 8.9,-7.6 14.4,-10.7 5.6,-3.1 11.9,-5.7 19.1,-7.6 7.1,-1.9 15.2,-2.9 24.1,-2.9 14.3,0 27,2.6 38.1,7.7 11.1,5.1 20.5,12.2 28.1,21.1 7.6,9 13.4,19.5 17.3,31.6 3.9,12.1 5.9,25.1 5.9,39 v 121 c 0,4.4 -1,7.6 -3.1,9.8 -2.1,2.2 -5,3.3 -8.9,3.3 h -27.6 c -4.8,0 -8.1,-0.9 -9.7,-2.7 -1.6,-1.8 -2.4,-5 -2.4,-9.6 v -120.8 c 0,-6.4 -1.1,-12.7 -3.3,-18.8 -2.2,-6.1 -5.4,-11.6 -9.5,-16.4 -4.2,-4.8 -9.3,-8.7 -15.5,-11.6 -6.2,-2.9 -13.3,-4.4 -21.4,-4.4 -5.6,0 -11.3,1.1 -17.3,3.4 -6,2.2 -11.5,5.4 -16.4,9.5 -5,4.1 -9.1,9.1 -12.3,15 -3.3,5.9 -5,12.5 -5.1,19.9 v 117.6 c 0,2.3 -0.1,4.6 -0.4,6.9 -0.2,2.3 -0.8,4.4 -1.5,6.2 -0.8,1.8 -1.9,3.3 -3.4,4.4 -1.5,1.1 -3.3,1.6 -5.6,1.6 h -29.9 c -4,0 -6.9,-0.9 -8.8,-2.8 -1.9,-1.9 -2.8,-4.6 -2.8,-8.1 v -208.8 c -0.1,-1.9 0.6,-3.7 2.1,-5.6 z"
   id="path163" />
		<path
   class="st1"
   d="m 1872.1,2304.3 c -4.2,4.2 -8.9,8.2 -14.1,12 -5.1,3.8 -10.6,7 -16.5,9.7 -5.9,2.7 -12.1,4.9 -18.7,6.4 -6.6,1.6 -13.5,2.4 -20.6,2.4 -16.3,0 -31.5,-3.1 -45.6,-9.3 -14.1,-6.2 -26.4,-14.7 -36.8,-25.5 -10.5,-10.8 -18.7,-23.4 -24.6,-37.8 -5.9,-14.5 -8.9,-29.9 -8.9,-46.4 0,-16.6 3,-32.1 8.9,-46.5 5.9,-14.5 14.1,-27.1 24.6,-37.8 10.5,-10.8 22.7,-19.3 36.8,-25.5 14.1,-6.2 29.3,-9.3 45.6,-9.3 14.8,0 27.8,2.6 39,7.9 11.2,5.3 21.2,12.4 29.9,21.5 v -83.3 c 0,-3.1 1,-5.7 2.9,-7.8 1.9,-2.1 4.7,-3.1 8.3,-3.1 h 29.8 c 2.8,0 5.4,1 7.8,3 2.4,2 3.6,4.6 3.6,7.9 v 277.1 c 0,7.3 -3.9,10.9 -11.6,10.9 h -27.2 c -3.6,0 -6.1,-0.9 -7.4,-2.7 -1.3,-1.8 -2.5,-4.5 -3.6,-8.2 z m -134.9,-88.5 c 0,9.7 1.7,18.8 5.1,27.5 3.4,8.6 8.1,16.2 14.2,22.6 6,6.4 13.2,11.5 21.3,15.2 8.2,3.8 17.1,5.6 26.8,5.6 9.6,0 18.6,-1.8 27,-5.5 8.5,-3.7 15.8,-8.7 22.1,-15.1 6.3,-6.3 11.3,-13.7 15,-22.1 3.7,-8.4 5.7,-17.4 5.9,-26.9 v -1.3 c 0,-9.6 -1.8,-18.7 -5.4,-27.4 -3.6,-8.7 -8.6,-16.4 -14.9,-23 -6.3,-6.6 -13.7,-11.9 -22.2,-15.8 -8.5,-3.9 -17.7,-5.9 -27.5,-5.9 -9.7,0 -18.6,2 -26.8,5.9 -8.2,3.9 -15.3,9.2 -21.3,15.8 -6,6.6 -10.8,14.2 -14.2,23 -3.4,8.7 -5.1,17.8 -5.1,27.4 z"
   id="path165" />
		<path
   class="st1"
   d="m 2033,2069.9 c 0,-5.8 2.7,-8.7 8,-8.7 h 174.9 c 3.1,0 5.4,0.9 6.7,2.6 1.3,1.8 2,4 2,6.6 v 32 c 0,2.2 -0.8,4.1 -2.3,5.8 -1.5,1.7 -3.8,2.5 -6.8,2.5 h -129 v 55 h 99.4 c 2.4,-0.2 4.4,0.3 5.8,1.5 1.5,1.3 2.2,3.4 2.2,6.4 v 32.8 c 0,2.2 -0.6,4.1 -1.8,5.8 -1.2,1.7 -3.1,2.5 -5.8,2.5 h -99.8 v 65.9 h 133.7 c 3.4,0 5.6,0.7 6.7,2.2 1.1,1.5 1.6,3.7 1.6,6.7 v 33.1 c 0,5.1 -2.7,7.6 -8,7.6 H 2041 c -2.2,0 -4.1,-0.6 -5.6,-1.8 -1.6,-1.2 -2.4,-3.1 -2.4,-5.8 z"
   id="path167" />
		<path
   class="st1"
   d="m 2426.9,2314.3 c 0.6,-2.2 0.9,-4.7 0.9,-7.7 0,-3 0.1,-5.7 0.4,-8.3 -4.4,4.6 -9,8.9 -13.9,12.9 -4.9,4 -10.2,7.5 -15.9,10.4 -5.7,3 -11.9,5.3 -18.5,7 -6.7,1.7 -13.9,2.5 -21.6,2.5 -10.9,0 -21.3,-1.3 -31.3,-4 -10,-2.7 -19.3,-6.5 -27.9,-11.4 -8.6,-5 -16.4,-10.9 -23.4,-18 -7,-7 -13,-14.8 -18.1,-23.4 -5,-8.6 -8.9,-17.9 -11.6,-27.9 -2.7,-10 -4.1,-20.6 -4.1,-31.6 0,-10.9 1.4,-21.4 4.1,-31.6 2.7,-10.2 6.6,-19.6 11.6,-28.4 5,-8.8 11,-16.8 18.1,-24 7,-7.3 14.8,-13.5 23.4,-18.6 8.6,-5.1 17.9,-9.1 27.9,-12 10,-2.8 20.4,-4.3 31.3,-4.3 7.7,0 15,0.8 21.9,2.4 6.8,1.6 13.2,4 19.2,7 6,3 11.6,6.6 16.8,10.7 5.2,4.1 10,8.6 14.3,13.4 0.5,-3.3 0.9,-6.5 1.4,-9.6 0.4,-3.1 0.8,-6.4 1.2,-9.6 0.7,-3.4 1.8,-6 3.2,-7.9 1.4,-1.9 4,-2.8 7.9,-2.8 4,0 8,0 11.9,0.1 3.9,0.1 7.9,0.1 11.9,0.1 2.8,0 5.2,1 7.3,2.9 2.1,1.9 3.2,4.5 3.2,7.6 v 1.5 183.6 c 0,19.8 -3.2,37 -9.6,51.6 -6.4,14.6 -15.1,26.7 -26.1,36.3 -11,9.6 -23.8,16.8 -38.4,21.5 -14.6,4.7 -30,7.1 -46.4,7.1 -6.9,0 -13.8,-0.6 -20.8,-1.7 -7,-1.2 -13.8,-2.8 -20.4,-4.9 -6.7,-2.1 -13,-4.7 -19.1,-7.8 -6,-3.1 -11.6,-6.6 -16.5,-10.4 -1.6,-1 -2.9,-2.1 -3.9,-3.5 -1,-1.4 -1.5,-3.1 -1.5,-5.2 0,-1 0.1,-2 0.4,-3 0.2,-1 0.8,-2.2 1.8,-3.5 l 13.6,-19.8 c 1.3,-1.6 2.5,-2.8 3.6,-3.5 1.1,-0.8 2.3,-1.2 3.6,-1.2 1,0.1 2.1,0.4 3.4,0.7 1.3,0.4 2.6,1.1 3.9,2.2 2.9,2.5 6.5,4.7 10.8,6.4 4.3,1.8 8.8,3.2 13.4,4.4 4.7,1.1 9.3,2 14,2.4 4.7,0.5 8.8,0.7 12.4,0.7 9,0 17.5,-1.2 25.7,-3.4 8.2,-2.3 15.4,-5.6 21.8,-10 6.4,-4.4 11.6,-9.6 15.6,-15.8 4,-6.1 6.3,-13 7.1,-20.6 z M 2293,2214.9 c 0,9.7 1.7,18.8 5.1,27.5 3.4,8.6 8.1,16.2 14.2,22.8 6,6.5 13.2,11.7 21.3,15.5 8.2,3.8 17.1,5.7 26.8,5.7 9.6,0 18.6,-1.9 27,-5.6 8.5,-3.7 15.8,-8.8 22.1,-15.2 6.3,-6.3 11.3,-13.8 15,-22.2 3.7,-8.5 5.7,-17.4 5.9,-26.9 v -2.9 c -0.2,-9.4 -2.2,-18.4 -5.9,-26.9 -3.7,-8.5 -8.7,-15.9 -15,-22.3 -6.3,-6.4 -13.7,-11.5 -22.1,-15.2 -8.5,-3.7 -17.5,-5.6 -27,-5.6 -9.7,0 -18.6,1.9 -26.8,5.7 -8.2,3.8 -15.3,9 -21.3,15.5 -6,6.5 -10.8,14.1 -14.2,22.8 -3.4,8.6 -5.1,17.7 -5.1,27.3 z"
   id="path169" />
		<path
   class="st1"
   d="m 2499.4,2215.8 c 0,-11 1.4,-21.6 4.3,-31.8 2.8,-10.2 6.9,-19.7 12.1,-28.6 5.2,-8.8 11.4,-16.8 18.7,-24 7.3,-7.2 15.3,-13.4 24.1,-18.5 8.8,-5.1 18.3,-9.1 28.4,-12 10.1,-2.8 20.6,-4.3 31.6,-4.3 10.9,0 21.4,1.4 31.5,4.3 10.2,2.8 19.6,6.8 28.4,12 8.8,5.1 16.8,11.3 24,18.5 7.3,7.2 13.5,15.2 18.7,24 5.2,8.8 9.2,18.4 12.1,28.6 2.8,10.2 4.3,20.8 4.3,31.8 0,11 -1.4,21.6 -4.3,31.8 -2.8,10.2 -6.9,19.6 -12.1,28.4 -5.2,8.8 -11.4,16.8 -18.7,24 -7.3,7.3 -15.3,13.5 -24,18.6 -8.8,5.1 -18.2,9.1 -28.4,12 -10.2,2.8 -20.7,4.3 -31.5,4.3 -11,0 -21.5,-1.4 -31.6,-4.3 -10.1,-2.8 -19.6,-6.8 -28.4,-12 -8.8,-5.1 -16.9,-11.3 -24.1,-18.6 -7.3,-7.3 -13.5,-15.3 -18.7,-24 -5.2,-8.8 -9.2,-18.2 -12.1,-28.4 -2.8,-10.2 -4.3,-20.8 -4.3,-31.8 z m 51.2,0 c 0,9.7 1.7,18.8 5.1,27.5 3.4,8.6 8.1,16.2 14.2,22.6 6,6.4 13.2,11.5 21.5,15.2 8.3,3.8 17.3,5.6 27.1,5.6 9.6,0 18.4,-1.9 26.6,-5.6 8.2,-3.7 15.2,-8.8 21.1,-15.2 5.9,-6.4 10.6,-13.9 13.9,-22.6 3.3,-8.6 5,-17.8 5,-27.5 0,-9.6 -1.7,-18.7 -5,-27.4 -3.3,-8.7 -8,-16.4 -13.9,-23 -5.9,-6.6 -13,-11.9 -21.1,-15.8 -8.2,-3.9 -17,-5.9 -26.6,-5.9 -9.8,0 -18.8,2 -27.1,5.9 -8.3,3.9 -15.5,9.2 -21.5,15.8 -6.1,6.6 -10.8,14.2 -14.2,23 -3.4,8.7 -5.1,17.8 -5.1,27.4 z"
   id="path171" />
	</g>
</g>
<g
   id="g205"
   transform="matrix(0.55180419,0,0,0.55180419,-60.205534,-542.89974)">
	
	<g
   id="g603"><g
     id="g203">
		
		
		
		
		
		
		
		
		
		
		
		<g
   id="g619"
   transform="translate(25.361112,-152.16667)"><path
     class="st0"
     d="m 900.55736,1243.3297 c -40.8,-16.7 -81.6,-33.3 -125.3,-41.1 -23.9,-4.3 -47.8,-6 -71.7,-0.6 -21.5,4.9 -39.6,15.2 -49.9,35.6 -14.9,29.6 -18.6,60.7 -10.9,93 3.9,16.5 15.9,26 32.7,25.5 23.4,-0.8 42.5,-10.8 57.7,-28.5 4.2,-4.9 7.9,-10.8 13.2,-14 8.1,-5 17.5,-8.1 26.2,-12.2 3.6,-1.7 7,-3.9 10.5,-5.9 -2.2,-3.6 -4.2,-7.4 -6.7,-10.8 -1,-1.4 -3.1,-2.4 -4.8,-2.8 -6.5,-1.4 -13,-2.7 -19.5,-3.7 -5.5,-0.8 -11.1,-0.6 -16.5,-1.6 -5.1,-0.9 -6.3,-3.8 -4.2,-8.4 4.2,-9.2 10.9,-16 21.2,-17.3 13.6,-1.8 27.4,-4 41,-3.5 30.3,1.2 60.6,4 90.9,6.1 7.6,0.5 15.3,0.8 22.9,0.9 2,0 4,-0.9 6,-1.4 0.1,-0.6 0.2,-1.3 0.3,-1.9 -4.4,-2.4 -8.5,-5.5 -13.1,-7.4 z"
     id="path177" /><path
     class="st0"
     d="m 863.05736,1943.9297 c -6.4,-4.4 -14.3,-7.2 -22,-9 -23,-5.4 -46.7,-5.3 -70.1,-5.7 -66.3,-1.3 -132.7,-0.9 -198.6,-9.7 -16.5,-2.2 -32.8,-4.4 -48.2,-11.6 -6.6,-3.1 -14.1,-4 -21.1,-6.1 -1.8,-0.5 -4.7,-1.6 -4.9,-2.8 -0.3,-1.9 0.7,-4.7 2.2,-6 4.4,-4.1 9.4,-7.7 14.1,-11.5 38.1,-30.7 76.3,-61.5 114.4,-92.3 4.8,-3.8 9.4,-7.8 15,-12.5 -3.1,-0.7 -4.9,-1.3 -6.8,-1.6 -43.6,-6.8 -87.2,-13.5 -130.8,-20.5 -11.3,-1.8 -22.4,-4.8 -32,-11.7 -10.4,-7.5 -12.1,-17.5 -4.5,-27.7 7.1,-9.5 16.5,-16.3 27.7,-19.1 12.3,-3.1 25.2,-5.5 37.8,-5.7 23.6,-0.4 47.4,0.5 71,1.7 23.2,1.2 45.9,5.5 67.7,13.7 2.4,0.9 4.9,1.3 9.2,2.4 -1.7,-3.3 -2.3,-5.3 -3.6,-6.7 -17.9,-20.5 -39,-36.6 -65.3,-44.7 -20.8,-6.4 -41.9,-11.4 -62.8,-17.4 -10.1,-2.8 -20.2,-5.7 -29.8,-9.7 -8.2,-3.4 -9.2,-8.6 -4.6,-16.1 0.9,-1.4 1.8,-3.1 3.1,-4.1 10.8,-8.4 21,-17.7 32.6,-24.7 20.2,-12.1 41.4,-21.6 65.8,-22.7 20.3,-0.9 31.5,-18 26.7,-38 -3.3,-13.8 -10.2,-26.1 -21.1,-34.6 -18.2,-14.1 -37.9,-26.2 -56.4,-39.9 -10.3,-7.6 -20,-6.5 -30.4,-1.2 -26.7,13.7 -50.3,31.6 -69.9,54.3 -6.5,7.5 -13.8,15.3 -14.6,25.5 -1.6,20.8 -6.7,40.7 -13.6,60.1 -8.2,23 -17.6,45.5 -31.3,66 -5.9,8.9 -14.2,14.2 -24.1,17.4 -9.2,3 -18.9,-1.4 -26.7,-12.3 -6.8,-9.5 -13.1,-19.2 -19.4,-29 -18.3,-28.3 -41.2,-51.8 -70.7,-68.5 -13.3,-7.6 -26.3,-15.6 -36.6,-27.1 -12.2,-13.5 -17.8,-28.8 -9.9,-46.3 3.3,-7.4 8,-14.4 13.3,-20.5 18.5,-21.3 42.5,-35.7 66.3,-50.1 14,-8.5 28.2,-16.9 39,-29.7 8.2,-9.8 5.5,-18.5 -6.9,-20.8 -10.3,-1.9 -20.8,-2.7 -31.2,-3.7 -10.6,-0.9 -21.4,-0.8 -32,-2.3 -6.5,-0.9 -12.9,-3.5 -18.9,-6.2 -4.1,-1.9 -6.7,-5.9 -5.6,-10.9 1.1,-4.9 3.8,-8.2 9.4,-8.4 6.9,-0.3 13.8,-1.6 20.5,-1.1 17.1,1.4 34.3,2.9 51.2,5.8 18.6,3.2 37.3,6.6 54.4,15.2 3.2,1.6 6.1,4.6 7.9,7.7 4,7.1 9.8,11.2 17.7,11.9 28.2,2.4 50.5,-9.6 68.4,-30.1 15.6,-17.9 24.9,-39.3 31.2,-61.9 5.2,-18.7 8.1,-37.8 4.3,-57.2 -1.9,-9.7 -6.1,-17.9 -14.7,-23.5 -17.4,-11.5 -36.5,-18.4 -57,-20.9 -29.5,-3.6 -58.8,0.2 -88,3.3 -23.7,2.5 -47.3,6.5 -70.9,10.3 -21.1,3.4 -42.1,7.5 -62,15.8 -2.9,1.2 -6,2.9 -8,5.2 -6.4,7.4 -14.6,10.2 -23.8,10.5 -8.3,0.3 -12.8,-2.8 -13.9,-11.1 -1.1,-7.9 -1.3,-16 -0.7,-24 1.3,-16.8 3.4,-33.5 5.1,-50.2 0.2,-1.8 -0.2,-3.6 -0.3,-5.4 -0.7,-0.1 -1.5,-0.2 -2.2,-0.2 -3.9,12.3 -9.5,24.3 -11.4,36.8 -4.3,27.9 -8,56 -9.9,84.2 -3.3,49.2 -4.6,98.5 -7.5,147.8 -2.1,35.5 -5.1,70.9 -8.4,106.3 -0.9,9.6 -3.7,19.1 -6.2,28.5 -1.3,4.9 -3.5,10.2 -9.8,10.6 -16.2,1 -24.300002,11.5 -29.000002,25.3 -8.1,23.4 -7.9,47.7 -6.4,72 2.4,39.2 9.3,77.8 16.800002,116.2 4,20.4 7.9,41 17.1,59.9 9.8,20.2 18.9,22.7 36.2,20.8 3.8,-0.4 7.4,-1.7 11.1,-2.6 14.7,-3.3 27.2,0.4 35.3,13.5 2.2,3.5 4.4,7 6.5,10.6 4.5,7.6 8.7,15.4 12.1,23.5 2.2,5.4 4.5,11 6.7,16.8 3.8,9.7 -3.5,20.2 -14,20.1 l -28.5,-0.4 c -6.4,-0.1 -11.7,5 -11.9,11.4 l -2.4,79.7 c 0,3.5 2.9,6.4 6.4,6.4 h 42 c 3.5,0 6.4,-2.9 6.4,-6.4 v -29.8 h 29.2 1.9 10.3 v 41.3 13.3 h -58.4 c -5,0 -9.2,4.1 -9.2,9.2 v 60.5 c 0,5 4.1,9.2 9.2,9.2 h 60.5 c 5,0 9.2,-4.1 9.2,-9.2 v -31.2 -26.4 h 58.4 c 5,0 9.2,-4.1 9.2,-9.2 v -60.5 c 0,-5 -4.1,-9.2 -9.2,-9.2 h -30.6 v -26.5 -52.4 -10.8 h 23.2 v 58.6 c 0,5.9 4.9,10.8 10.8,10.8 h 43.4 27.9 38.2 v 24.3 13.9 c 0,6.4 5.2,11.6 11.6,11.6 h 25.9 50.5 41.5 v 29.4 4.5 h -29.9 -39 c -15.7,0 -13.6,13.6 -13.6,13.6 v 90 c 0,0.2 0,0.4 0.1,0.6 h -27.2 c -2.9,0 -5.3,2.4 -5.3,5.3 v 35 c 0,2.9 2.4,5.3 5.3,5.3 h 35 c 2.9,0 5.3,-2.4 5.3,-5.3 v -27.3 c 0.2,0 0.3,0.1 0.5,0.1 h 90 c 7.5,0 13.6,-6.1 13.6,-13.6 v -69.5 h 36.6 v 2.2 c 0,0 0,0 0,0 v 67.8 c 0,5.6 4.6,10.3 10.3,10.3 h 63.3 v 35.5 h -34.1 c -3.8,0 -6.8,3.1 -6.8,6.8 v 45.1 c 0,3.8 3.1,6.8 6.8,6.8 h 45.1 c 1,0 2,-0.3 2.9,-0.7 0,0 0,0 0,0 l 16.6,-25.2 c 0,0 0,-0.1 0.1,-0.1 7.5,-13.8 14.9,-27.6 22.2,-41.5 26.2,-49.8 51.5,-100 76.9,-150.2 8.7,-17.2 16.5,-34.9 20.3,-54 1.6,-11.9 1.4,-23.9 -9.8,-31.5 z"
     id="path179" /><path
     class="st0"
     d="m 470.65736,2082.2297 c 4.2,0 7.6,-3.4 7.6,-7.6 v -50.3 c 0,-4.2 -3.4,-7.6 -7.6,-7.6 h -50.3 c -4.2,0 -7.6,3.4 -7.6,7.6 v 50.3 c 0,4.2 3.4,7.6 7.6,7.6 z"
     id="path181" /><path
     class="st0"
     d="m 488.65736,2281.8297 c 3.5,0 6.4,-2.9 6.4,-6.4 v -42.1 c 0,-3.5 -2.9,-6.4 -6.4,-6.4 h -39.4 v -56.8 c 0,-4.8 -3.9,-8.7 -8.7,-8.7 h -52.8 v -68.6 c 0,-5.9 -4.8,-10.7 -10.7,-10.7 h -70.6 c -5.9,0 -10.7,4.8 -10.7,10.7 v 70.6 c 0,5.9 4.8,10.7 10.7,10.7 h 68.3 v 53.1 c 0,4.8 3.9,8.7 8.7,8.7 h 56.7 v 39.4 c 0,3.5 2.9,6.4 6.4,6.4 h 42.1 z"
     id="path183" /><path
     class="st0"
     d="m 365.15736,2236.0297 h -42.7 c -3.6,0 -6.5,2.9 -6.5,6.5 v 42.7 c 0,3.6 2.9,6.5 6.5,6.5 h 42.7 c 3.6,0 6.5,-2.9 6.5,-6.5 v -42.7 c 0,-3.6 -2.9,-6.5 -6.5,-6.5 z"
     id="path185" /><path
     class="st0"
     d="m 489.55736,2324.5297 h -39.8 c -3.3,0 -6,2.7 -6,6 v 39.8 c 0,3.3 2.7,6 6,6 h 39.8 c 3.3,0 6,-2.7 6,-6 v -39.8 c 0,-3.3 -2.7,-6 -6,-6 z"
     id="path187" /><path
     class="st0"
     d="m 349.25736,2315.5297 h -28 c -2.3,0 -4.2,1.9 -4.2,4.2 v 28 c 0,2.3 1.9,4.2 4.2,4.2 h 28 c 2.3,0 4.2,-1.9 4.2,-4.2 v -28 c 0.1,-2.3 -1.8,-4.2 -4.2,-4.2 z"
     id="path189" /><path
     class="st0"
     d="m 627.75736,2292.9297 h -25.8 c -2.1,0 -3.9,1.8 -3.9,3.9 v 25.8 c 0,2.1 1.8,3.9 3.9,3.9 h 25.8 c 2.1,0 3.9,-1.8 3.9,-3.9 v -25.8 c 0,-2.2 -1.8,-3.9 -3.9,-3.9 z"
     id="path191" /><path
     class="st0"
     d="m 305.45736,2359.9297 h -6.9 -28 c -2.9,0 -5.3,2.4 -5.3,5.3 v 34.8 c 0,2.9 2.4,5.3 5.3,5.3 h 22.3 12.5 c 2.9,0 5.3,-2.4 5.3,-5.3 v -34.8 c 0.1,-2.9 -2.3,-5.3 -5.2,-5.3 z"
     id="path193" /><path
     class="st0"
     d="m 584.95736,2230.4297 h -38.8 c -3.2,0 -5.9,2.6 -5.9,5.9 v 38.8 c 0,3.2 2.6,5.9 5.9,5.9 h 38.8 c 3.2,0 5.9,-2.6 5.9,-5.9 v -38.8 c 0,-3.3 -2.7,-5.9 -5.9,-5.9 z"
     id="path195" /><path
     class="st0"
     d="m 284.95736,2234.5297 v -52.3 c 0,-4.4 -3.6,-7.9 -7.9,-7.9 h -52.3 c -4.4,0 -7.9,3.6 -7.9,7.9 v 52.3 c 0,4.4 3.6,7.9 7.9,7.9 h 52.3 c 4.3,0 7.9,-3.6 7.9,-7.9 z"
     id="path197" /><path
     class="st0"
     d="m 179.95736,2174.2297 h -28 c -2.3,0 -4.2,1.9 -4.2,4.2 v 28 c 0,2.3 1.9,4.2 4.2,4.2 h 28 c 2.3,0 4.2,-1.9 4.2,-4.2 v -28 c 0,-2.2 -1.9,-4.2 -4.2,-4.2 z"
     id="path199" /><path
     class="st0"
     d="m 429.75736,2382.6297 h -28 c -2.3,0 -4.2,1.9 -4.2,4.2 v 28 c 0,2.3 1.9,4.2 4.2,4.2 h 28 c 2.3,0 4.2,-1.9 4.2,-4.2 v -28 c 0,-2.3 -1.9,-4.2 -4.2,-4.2 z"
     id="path201" /></g>
	</g></g>
</g>
</svg>
