<svg id="visual" viewBox="0 0 1920 300" width="1920" height="300" xmlns="http://www.w3.org/2000/svg" version="1.1"><rect x="0" y="0" width="1920" height="300" fill="#1a103f"></rect><path d="M0 171L83 171L83 109L167 109L167 231L250 231L250 174L334 174L334 206L417 206L417 111L501 111L501 101L584 101L584 23L668 23L668 201L751 201L751 44L835 44L835 244L918 244L918 122L1002 122L1002 57L1085 57L1085 188L1169 188L1169 194L1252 194L1252 86L1336 86L1336 52L1419 52L1419 77L1503 77L1503 4L1586 4L1586 116L1670 116L1670 114L1753 114L1753 184L1837 184L1837 255L1920 255L1920 19L1920 0L1920 0L1837 0L1837 0L1753 0L1753 0L1670 0L1670 0L1586 0L1586 0L1503 0L1503 0L1419 0L1419 0L1336 0L1336 0L1252 0L1252 0L1169 0L1169 0L1085 0L1085 0L1002 0L1002 0L918 0L918 0L835 0L835 0L751 0L751 0L668 0L668 0L584 0L584 0L501 0L501 0L417 0L417 0L334 0L334 0L250 0L250 0L167 0L167 0L83 0L83 0L0 0Z" fill="#1a103f"></path><path d="M0 65L83 65L83 193L167 193L167 116L250 116L250 220L334 220L334 162L417 162L417 108L501 108L501 166L584 166L584 151L668 151L668 245L751 245L751 40L835 40L835 81L918 81L918 142L1002 142L1002 56L1085 56L1085 4L1169 4L1169 62L1252 62L1252 189L1336 189L1336 178L1419 178L1419 168L1503 168L1503 18L1586 18L1586 30L1670 30L1670 186L1753 186L1753 85L1837 85L1837 225L1920 225L1920 70L1920 0L1920 0L1837 0L1837 0L1753 0L1753 0L1670 0L1670 0L1586 0L1586 0L1503 0L1503 0L1419 0L1419 0L1336 0L1336 0L1252 0L1252 0L1169 0L1169 0L1085 0L1085 0L1002 0L1002 0L918 0L918 0L835 0L835 0L751 0L751 0L668 0L668 0L584 0L584 0L501 0L501 0L417 0L417 0L334 0L334 0L250 0L250 0L167 0L167 0L83 0L83 0L0 0Z" fill="#453862"></path><path d="M0 67L83 67L83 91L167 91L167 200L250 200L250 108L334 108L334 65L417 65L417 91L501 91L501 183L584 183L584 55L668 55L668 48L751 48L751 129L835 129L835 171L918 171L918 163L1002 163L1002 156L1085 156L1085 123L1169 123L1169 141L1252 141L1252 111L1336 111L1336 88L1419 88L1419 107L1503 107L1503 212L1586 212L1586 139L1670 139L1670 33L1753 33L1753 120L1837 120L1837 162L1920 162L1920 117L1920 0L1920 0L1837 0L1837 0L1753 0L1753 0L1670 0L1670 0L1586 0L1586 0L1503 0L1503 0L1419 0L1419 0L1336 0L1336 0L1252 0L1252 0L1169 0L1169 0L1085 0L1085 0L1002 0L1002 0L918 0L918 0L835 0L835 0L751 0L751 0L668 0L668 0L584 0L584 0L501 0L501 0L417 0L417 0L334 0L334 0L250 0L250 0L167 0L167 0L83 0L83 0L0 0Z" fill="#716587"></path><path d="M0 84L83 84L83 75L167 75L167 34L250 34L250 133L334 133L334 165L417 165L417 67L501 67L501 169L584 169L584 116L668 116L668 119L751 119L751 88L835 88L835 95L918 95L918 163L1002 163L1002 155L1085 155L1085 92L1169 92L1169 38L1252 38L1252 24L1336 24L1336 3L1419 3L1419 123L1503 123L1503 2L1586 2L1586 63L1670 63L1670 76L1753 76L1753 29L1837 29L1837 63L1920 63L1920 124L1920 0L1920 0L1837 0L1837 0L1753 0L1753 0L1670 0L1670 0L1586 0L1586 0L1503 0L1503 0L1419 0L1419 0L1336 0L1336 0L1252 0L1252 0L1169 0L1169 0L1085 0L1085 0L1002 0L1002 0L918 0L918 0L835 0L835 0L751 0L751 0L668 0L668 0L584 0L584 0L501 0L501 0L417 0L417 0L334 0L334 0L250 0L250 0L167 0L167 0L83 0L83 0L0 0Z" fill="#9e96ae"></path><path d="M0 78L83 78L83 6L167 6L167 124L250 124L250 29L334 29L334 111L417 111L417 124L501 124L501 116L584 116L584 33L668 33L668 64L751 64L751 31L835 31L835 49L918 49L918 72L1002 72L1002 102L1085 102L1085 62L1169 62L1169 15L1252 15L1252 121L1336 121L1336 126L1419 126L1419 32L1503 32L1503 65L1586 65L1586 87L1670 87L1670 33L1753 33L1753 70L1837 70L1837 13L1920 13L1920 23L1920 0L1920 0L1837 0L1837 0L1753 0L1753 0L1670 0L1670 0L1586 0L1586 0L1503 0L1503 0L1419 0L1419 0L1336 0L1336 0L1252 0L1252 0L1169 0L1169 0L1085 0L1085 0L1002 0L1002 0L918 0L918 0L835 0L835 0L751 0L751 0L668 0L668 0L584 0L584 0L501 0L501 0L417 0L417 0L334 0L334 0L250 0L250 0L167 0L167 0L83 0L83 0L0 0Z" fill="#cec9d6"></path><path d="M0 63L83 63L83 16L167 16L167 44L250 44L250 21L334 21L334 60L417 60L417 60L501 60L501 77L584 77L584 44L668 44L668 71L751 71L751 13L835 13L835 63L918 63L918 58L1002 58L1002 11L1085 11L1085 13L1169 13L1169 84L1252 84L1252 22L1336 22L1336 24L1419 24L1419 85L1503 85L1503 63L1586 63L1586 25L1670 25L1670 66L1753 66L1753 67L1837 67L1837 56L1920 56L1920 19L1920 0L1920 0L1837 0L1837 0L1753 0L1753 0L1670 0L1670 0L1586 0L1586 0L1503 0L1503 0L1419 0L1419 0L1336 0L1336 0L1252 0L1252 0L1169 0L1169 0L1085 0L1085 0L1002 0L1002 0L918 0L918 0L835 0L835 0L751 0L751 0L668 0L668 0L584 0L584 0L501 0L501 0L417 0L417 0L334 0L334 0L250 0L250 0L167 0L167 0L83 0L83 0L0 0Z" fill="#ffffff"></path></svg>
