<?xml version="1.0" encoding="UTF-8" standalone="no"?>
<svg id="visual" viewBox="0 0 1920 300" width="1920" height="300" xmlns="http://www.w3.org/2000/svg" xmlns:svg="http://www.w3.org/2000/svg" xmlns:xlink="http://www.w3.org/1999/xlink" version="1.1"><rect x="0" y="0" width="1920" height="300" fill="#ffffff"></rect><path d="M0 95L83 152L167 64L250 128L334 149L417 87L501 127L584 97L668 69L751 149L835 49L918 13L1002 35L1085 80L1169 87L1252 102L1336 92L1419 64L1503 140L1586 18L1670 35L1753 154L1837 136L1920 131L1920 301L1837 301L1753 301L1670 301L1586 301L1503 301L1419 301L1336 301L1252 301L1169 301L1085 301L1002 301L918 301L835 301L751 301L668 301L584 301L501 301L417 301L334 301L250 301L167 301L83 301L0 301Z" fill="#ffffff"></path><path d="M0 104L83 184L167 79L250 115L334 149L417 184L501 143L584 91L668 150L751 45L835 99L918 140L1002 128L1085 88L1169 186L1252 93L1336 119L1419 49L1503 185L1586 145L1670 57L1753 39L1837 131L1920 172L1920 301L1837 301L1753 301L1670 301L1586 301L1503 301L1419 301L1336 301L1252 301L1169 301L1085 301L1002 301L918 301L835 301L751 301L668 301L584 301L501 301L417 301L334 301L250 301L167 301L83 301L0 301Z" fill="#d6d2dc"></path><path d="M0 165L83 154L167 113L250 137L334 78L417 97L501 137L584 109L668 169L751 205L835 194L918 133L1002 193L1085 193L1169 107L1252 208L1336 145L1419 185L1503 156L1586 160L1670 178L1753 204L1837 154L1920 197L1920 301L1837 301L1753 301L1670 301L1586 301L1503 301L1419 301L1336 301L1252 301L1169 301L1085 301L1002 301L918 301L835 301L751 301L668 301L584 301L501 301L417 301L334 301L250 301L167 301L83 301L0 301Z" fill="#aea6bb"></path><path d="M0 119L83 185L167 160L250 131L334 168L417 199L501 160L584 217L668 221L751 182L835 225L918 196L1002 222L1085 146L1169 196L1252 194L1336 162L1419 151L1503 151L1586 140L1670 158L1753 172L1837 152L1920 183L1920 301L1837 301L1753 301L1670 301L1586 301L1503 301L1419 301L1336 301L1252 301L1169 301L1085 301L1002 301L918 301L835 301L751 301L668 301L584 301L501 301L417 301L334 301L250 301L167 301L83 301L0 301Z" fill="#877d9a"></path><path d="M0 151L83 169L167 150L250 194L334 197L417 252L501 212L584 215L668 225L751 188L835 207L918 243L1002 218L1085 150L1169 152L1252 194L1336 220L1419 216L1503 202L1586 172L1670 229L1753 181L1837 169L1920 251L1920 301L1837 301L1753 301L1670 301L1586 301L1503 301L1419 301L1336 301L1252 301L1169 301L1085 301L1002 301L918 301L835 301L751 301L668 301L584 301L501 301L417 301L334 301L250 301L167 301L83 301L0 301Z" fill="#62567b"></path><path d="M0 241L83 253L167 273L250 250L334 238L417 198L501 246L584 247L668 205L751 244L835 250L918 189L1002 195L1085 262L1169 231L1252 246L1336 224L1419 209L1503 230L1586 261L1670 221L1753 205L1837 197L1920 248L1920 301L1837 301L1753 301L1670 301L1586 301L1503 301L1419 301L1336 301L1252 301L1169 301L1085 301L1002 301L918 301L835 301L751 301L668 301L584 301L501 301L417 301L334 301L250 301L167 301L83 301L0 301Z" fill="#3e315c"></path><path d="M0 253L83 255L167 238L250 227L334 283L417 243L501 284L584 267L668 298L751 225L835 290L918 281L1002 253L1085 279L1169 232L1252 275L1336 282L1419 298L1503 283L1586 264L1670 277L1753 266L1837 256L1920 225L1920 301L1837 301L1753 301L1670 301L1586 301L1503 301L1419 301L1336 301L1252 301L1169 301L1085 301L1002 301L918 301L835 301L751 301L668 301L584 301L501 301L417 301L334 301L250 301L167 301L83 301L0 301Z" fill="#1a103f"></path></svg>
