<?xml version="1.0" encoding="utf-8"?>
<!-- Generator: Adobe Illustrator 23.1.1, SVG Export Plug-In . SVG Version: 6.00 Build 0)  -->
<svg version="1.1" id="vector" xmlns="http://www.w3.org/2000/svg" xmlns:xlink="http://www.w3.org/1999/xlink" x="0px" y="0px"
	 viewBox="0 0 1532.6 1037.7" style="enable-background:new 0 0 1532.6 1037.7;" xml:space="preserve">
<style type="text/css">
	.st0{fill:#EBEFF2;}
	.st1{fill:#D8DEE8;}
	.st2{clip-path:url(#SVGID_3_);}
	.st3{opacity:0.7;fill:#FFFFFF;}
	.st4{clip-path:url(#SVGID_6_);}
	.st5{clip-path:url(#SVGID_9_);}
	.st6{fill:url(#SVGID_10_);}
	.st7{fill:url(#SVGID_11_);}
	.st8{fill:url(#SVGID_12_);}
	.st9{fill:url(#SVGID_13_);}
	.st10{fill:url(#SVGID_14_);}
	.st11{fill:url(#SVGID_15_);}
	.st12{opacity:0.5;fill:#FFFFFF;}
	.st13{fill:#97A6B7;}
	.st14{opacity:0.74;fill:#FFFFFF;}
	.st15{fill:#FFFFFF;}
	.st16{opacity:0.3;fill:#97A6B7;}
	.st17{fill:url(#SVGID_16_);}
	.st18{fill:url(#SVGID_17_);}
	.st19{fill:url(#SVGID_18_);}
	.st20{fill:url(#SVGID_19_);}
	.st21{fill:url(#SVGID_20_);}
	.st22{fill:url(#SVGID_21_);}
	.st23{fill:url(#SVGID_22_);}
	.st24{fill:url(#SVGID_23_);}
	.st25{fill:url(#SVGID_24_);}
	.st26{fill:url(#SVGID_25_);}
	.st27{fill:url(#SVGID_26_);}
	.st28{fill:url(#SVGID_27_);}
	.st29{opacity:0.3;fill:url(#SVGID_28_);}
	.st30{fill:url(#SVGID_29_);}
	.st31{fill:url(#SVGID_30_);}
	.st32{fill:#B3B3B3;}
	.st33{fill:url(#SVGID_31_);}
	.st34{fill:url(#SVGID_32_);}
	.st35{fill:url(#SVGID_33_);}
	.st36{fill:url(#SVGID_34_);}
	.st37{fill:url(#SVGID_35_);}
	.st38{fill:url(#SVGID_36_);}
	.st39{fill:url(#SVGID_37_);}
	.st40{fill:url(#SVGID_38_);}
	.st41{opacity:0.3;fill:url(#SVGID_39_);}
	.st42{fill:url(#SVGID_40_);}
	.st43{fill:url(#SVGID_41_);}
	.st44{fill:url(#SVGID_42_);}
	.st45{opacity:0.15;fill:url(#SVGID_43_);}
	.st46{fill:url(#SVGID_44_);}
	.st47{fill:url(#SVGID_45_);}
	.st48{fill:url(#SVGID_46_);}
	.st49{fill:url(#SVGID_47_);}
	.st50{fill:url(#SVGID_48_);}
	.st51{fill:url(#SVGID_49_);}
	.st52{opacity:0.3;fill:url(#SVGID_50_);}
	.st53{fill:url(#SVGID_51_);}
	.st54{fill:url(#SVGID_52_);}
	.st55{fill:url(#SVGID_53_);}
	.st56{fill:url(#SVGID_54_);}
	.st57{fill:url(#SVGID_55_);}
	.st58{fill:url(#SVGID_56_);}
	.st59{fill:url(#SVGID_57_);}
	.st60{fill:url(#SVGID_58_);}
	.st61{fill:url(#SVGID_59_);}
	.st62{fill:url(#SVGID_60_);}
	.st63{fill:url(#SVGID_61_);}
	.st64{fill:url(#SVGID_62_);}
	.st65{fill:url(#SVGID_63_);}
	.st66{fill:url(#SVGID_64_);}
	.st67{fill:url(#SVGID_65_);}
	.st68{fill:url(#SVGID_66_);}
	.st69{fill:url(#SVGID_67_);}
	.st70{fill:url(#SVGID_68_);}
	.st71{opacity:0.15;fill:url(#SVGID_69_);}
	.st72{fill:url(#SVGID_70_);}
	.st73{fill:#B7C0CE;}
	.st74{opacity:0.3;fill:url(#SVGID_71_);}
	.st75{opacity:0.65;fill:url(#SVGID_72_);}
	.st76{fill:url(#SVGID_73_);}
	.st77{fill:url(#SVGID_74_);}
	.st78{fill:url(#SVGID_75_);}
	.st79{fill:url(#SVGID_76_);}
	.st80{fill:url(#SVGID_77_);}
	.st81{fill:url(#SVGID_78_);}
	.st82{fill:url(#SVGID_79_);}
	.st83{fill:url(#SVGID_80_);}
	.st84{fill:url(#SVGID_81_);}
	.st85{fill:url(#SVGID_82_);}
	.st86{fill:url(#SVGID_83_);}
	.st87{opacity:0.3;fill:url(#SVGID_84_);}
	.st88{fill:url(#SVGID_85_);}
	.st89{fill:url(#SVGID_86_);}
	.st90{fill:#F4F7FA;}
	.st91{fill:url(#SVGID_87_);}
	.st92{fill:url(#SVGID_88_);}
	.st93{fill:url(#SVGID_89_);}
	.st94{fill:url(#SVGID_90_);}
	.st95{fill:url(#SVGID_91_);}
	.st96{fill:url(#SVGID_92_);}
	.st97{fill:url(#SVGID_93_);}
	.st98{fill:url(#SVGID_94_);}
</style>
<g>
	<path class="st0" d="M397.1,755.2c-22.3,1.8-300.7,24.6-300.1,44.7c0.2,6.8,32.1,11.2,32.1,22.7c0.1,13.2-41.7,15-44.7,28.2
		C78.9,876,213.1,951.5,373.6,969.2c82,9,108.5-3.9,313.4-37.6c131-21.5,296.2-48.7,481.9-68.2c123.2-12.9,245.8-21.4,246-37.6
		c0.2-16.6-128.4-23.3-129.3-47c-1.2-30.7,212.4-51.2,211.6-77.6c-0.5-16.5-84.6-33.5-223.3-40C929.9,645.1,820.8,720.3,397.1,755.2
		z"/>
	<path class="st1" d="M183.2,831.3c-44.9,10.2-61,12-61.1,16.5c-0.2,6.5,34.3,12.7,73.7,19.6c72.3,12.6,82.1,8.2,101.9,21.2
		c33.8,22.1,23.7,47,53.3,61.9c26.8,13.5,43.8-2.5,113.6-12.5c67.6-9.7,108.8-2.8,110.5-12.5c2.2-12.9-69.7-33.6-67.4-42.3
		c2.4-9,80.2,10.6,87-6.3c3.5-8.8-13.2-24.3-25.1-32.1c-37.2-24.7-69.1,0.9-130.9,3.1c-90.6,3.3-128.4-45.5-200.6-29.8
		C228.1,820.1,216.4,823.7,183.2,831.3z"/>
	<path class="st1" d="M1121.2,814.8c-16.8,5.1-41.1,15.1-40,21.2c1.3,6.9,34.1-2.3,92.5,5.5c22.9,3.1,46.8,8.3,76-1.6
		c9.9-3.3,17.9-6.1,18-10.2C1268.1,816.8,1190.8,793.7,1121.2,814.8z"/>
	<path class="st1" d="M998.2,732.5c0.5,3.2,27.7,3.7,82.3,4.7c99,1.8,172.7-3.6,195.9-5.5c60.3-4.8,179.4-14.3,179.4-27.4
		c0-10.2-71-18.1-84.6-19.6C1178.9,663.3,996,718.4,998.2,732.5z"/>
	<g>
		<g>
			<defs>
				<path id="SVGID_1_" d="M518.6,719.7c14.9-33.2-8.5-83.2-33.6-111.2c-29.2-32.7-49-22.4-69.7-49.6
					c-38.7-50.7,13.8-107.3-21.1-161.5c-28.6-44.3-74.5-23.3-103.9-73.8c-21.2-36.4-7.5-64.9-36.4-90.6
					c-2.5-2.2-29.5-25.4-58.3-17.5c-29.1,8-43.1,43-46.3,66.5c-6,43.4,23.7,53.9,35.4,108c16,73.7-29.5,97.9-6.5,149.7
					c19,42.8,54.4,36.1,74.6,84c18.7,44.4-5.1,66.3,10.4,95C298.8,784.6,488.3,787.4,518.6,719.7z"/>
			</defs>
			<linearGradient id="SVGID_2_" gradientUnits="userSpaceOnUse" x1="239.4415" y1="221.7468" x2="335.1972" y2="558.5424">
				<stop  offset="3.597120e-03" style="stop-color:#E38DDD"/>
				<stop  offset="1" style="stop-color:#9571F6"/>
			</linearGradient>
			<use xlink:href="#SVGID_1_"  style="overflow:visible;fill:url(#SVGID_2_);"/>
			<clipPath id="SVGID_3_">
				<use xlink:href="#SVGID_1_"  style="overflow:visible;"/>
			</clipPath>
			<g class="st2">
				<path class="st3" d="M498.4,771.3c-32,0-62.6-6.6-90.9-19.7c-27.1-12.5-55.2-25.5-70.1-53.5c-11.3-21.3-8.2-38.1-4.3-59.4
					c3.8-20.5,8.5-45.9,0.3-83.2c-4.7-21.2-10.5-47.7-31.8-70.9c-12.4-13.5-23.6-18.6-33.5-23.2c-10.2-4.7-19-8.7-25-21
					c-9.7-19.7-6.8-37.8-3.3-58.7c2.1-12.8,4.2-26,3.9-41.3c-0.9-43.1-26.1-86.9-75.1-130.1c-0.2-0.2-0.2-0.4,0-0.6
					c0.2-0.2,0.4-0.2,0.6,0c49.1,43.4,74.5,87.4,75.4,130.8c0.3,15.4-1.8,28.7-3.9,41.5c-3.4,20.8-6.3,38.7,3.3,58.2
					c5.9,12,14.1,15.7,24.6,20.6c9.9,4.6,21.2,9.8,33.7,23.4c21.5,23.4,27.3,50,32,71.3c8.2,37.4,3.5,63-0.3,83.5
					c-3.9,21.1-7,37.8,4.2,58.8c14.8,27.7,42.7,40.6,69.7,53.1c28.3,13,58.7,19.7,90.6,19.7c0.3,0,0.5,0,0.8,0c0,0,0,0,0,0
					c0.2,0,0.4,0.2,0.4,0.4c0,0.2-0.2,0.4-0.4,0.4C498.9,771.3,498.6,771.3,498.4,771.3z"/>
				<path class="st3" d="M311.1,496.5c0,0-0.1,0-0.1,0c-0.2-0.1-0.4-0.3-0.3-0.6c19.2-60.6,18.3-105.7,14.2-132.9
					c-4.5-29.5-13.6-44.8-13.6-45c-0.1-0.2-0.1-0.5,0.2-0.6c0.2-0.1,0.5-0.1,0.6,0.2c0.1,0.2,9.3,15.6,13.8,45.2
					c4.1,27.3,5,72.6-14.2,133.4C311.4,496.3,311.2,496.5,311.1,496.5z"/>
				<path class="st3" d="M338,586.6C338,586.6,338,586.6,338,586.6c-33.7-5.1-63.3-15.9-88.1-32.1c-19.9-13-36.8-29.4-50.2-48.8
					c-22.8-33.1-27.7-63.8-27.8-64.1c0-0.2,0.1-0.5,0.4-0.5c0.2,0,0.5,0.1,0.5,0.4c0,0.3,4.9,30.9,27.7,63.8
					c13.3,19.3,30.1,35.6,49.9,48.5c24.7,16.1,54.2,26.8,87.7,31.9c0.2,0,0.4,0.3,0.4,0.5C338.4,586.4,338.2,586.6,338,586.6z"/>
				<path class="st3" d="M377.7,738.4c-0.1,0-0.2,0-0.3-0.1c-0.2-0.2-0.2-0.4,0-0.6c21.9-23.5,38.5-48.5,49.2-74.2
					c8.6-20.6,13.4-41.7,14.5-62.7c1.8-35.8-8.3-59.4-8.4-59.6c-0.1-0.2,0-0.5,0.2-0.6c0.2-0.1,0.5,0,0.6,0.2
					c0.1,0.2,10.3,24,8.5,60c-1,21.2-5.9,42.4-14.5,63c-10.8,25.8-27.4,50.9-49.4,74.5C377.9,738.3,377.8,738.4,377.7,738.4z"/>
				<path class="st3" d="M242.4,333.6c0,0-0.1,0-0.1,0c-24.8-7.4-46-19.2-63.1-35c-13.7-12.7-24.7-27.9-32.9-45.4
					c-13.9-29.7-14.5-55.7-14.5-56c0-0.2,0.2-0.4,0.4-0.4c0.3,0,0.4,0.2,0.5,0.4c0,0.3,0.6,26.2,14.4,55.7
					c8.1,17.3,19.1,32.5,32.7,45.1c17,15.7,38.1,27.4,62.7,34.8c0.2,0.1,0.4,0.3,0.3,0.6C242.7,333.4,242.5,333.6,242.4,333.6z"/>
			</g>
		</g>
	</g>
	<g>
		<g>
			<defs>
				<path id="SVGID_4_" d="M336,727c10.9-24.3-6.3-60.9-24.6-81.5c-21.4-24-35.9-16.4-51.1-36.3c-28.3-37.1,10.1-78.6-15.4-118.3
					c-20.9-32.5-54.6-17-76.1-54c-15.5-26.7-5.5-47.6-26.7-66.3c-1.8-1.6-21.6-18.6-42.7-12.9c-21.3,5.8-31.5,31.5-33.9,48.7
					c-4.4,31.8,17.3,39.5,26,79.1c11.7,54-21.6,71.7-4.7,109.7c13.9,31.3,39.9,26.5,54.6,61.5c13.7,32.5-3.7,48.6,7.6,69.6
					C175,774.6,313.8,776.5,336,727z"/>
			</defs>
			<linearGradient id="SVGID_5_" gradientUnits="userSpaceOnUse" x1="127.7265" y1="453.5145" x2="229.5677" y2="681.8856">
				<stop  offset="3.597120e-03" style="stop-color:#E38DDD"/>
				<stop  offset="1" style="stop-color:#9571F6"/>
			</linearGradient>
			<use xlink:href="#SVGID_4_"  style="overflow:visible;fill:url(#SVGID_5_);"/>
			<clipPath id="SVGID_6_">
				<use xlink:href="#SVGID_4_"  style="overflow:visible;"/>
			</clipPath>
			<g class="st4">
				<path class="st3" d="M321.2,764.9c-23.4,0-45.9-4.9-66.7-14.5c-19.9-9.2-40.5-18.7-51.4-39.2c-8.3-15.6-6.1-28-3.2-43.6
					c2.8-15,6.2-33.6,0.2-60.9c-3.4-15.5-7.7-34.9-23.3-51.9c-9.1-9.9-17.3-13.6-24.5-17c-7.5-3.4-13.9-6.4-18.4-15.4
					c-7.1-14.5-5-27.7-2.5-43.1c1.5-9.4,3.1-19,2.9-30.3c-0.6-31.6-19.1-63.6-54.9-95.2c-0.2-0.2-0.2-0.4,0-0.6
					c0.2-0.2,0.4-0.2,0.6,0c36,31.8,54.6,64.1,55.2,95.9c0.2,11.3-1.4,21-2.9,30.4c-2.5,15.2-4.6,28.3,2.4,42.6
					c4.3,8.7,10.3,11.5,18,15c7.3,3.4,15.6,7.2,24.8,17.2c15.8,17.2,20.1,36.6,23.5,52.3c6,27.4,2.6,46.2-0.2,61.2
					c-2.8,15.5-5.1,27.7,3.1,43c10.8,20.3,31.3,29.7,51,38.8c20.9,9.6,43.3,14.5,66.9,14.4c0,0,0,0,0,0c0.2,0,0.4,0.2,0.4,0.4
					c0,0.2-0.2,0.4-0.4,0.4C321.5,764.9,321.4,764.9,321.2,764.9z"/>
				<path class="st3" d="M184,563.6c0,0-0.1,0-0.1,0c-0.2-0.1-0.4-0.3-0.3-0.6c14.1-44.3,13.4-77.4,10.4-97.3
					c-3.3-21.6-9.9-32.8-10-32.9c-0.1-0.2-0.1-0.5,0.2-0.6c0.2-0.1,0.5-0.1,0.6,0.2c0.1,0.1,6.8,11.5,10.1,33.2
					c3,20,3.7,53.2-10.4,97.7C184.3,563.4,184.1,563.6,184,563.6z"/>
				<path class="st3" d="M203.7,629.6C203.7,629.6,203.7,629.6,203.7,629.6c-24.7-3.7-46.4-11.6-64.6-23.5
					c-14.6-9.5-27-21.5-36.8-35.8c-16.7-24.2-20.3-46.8-20.4-47c0-0.2,0.1-0.5,0.4-0.5c0.2,0,0.5,0.1,0.5,0.4
					c0,0.2,3.6,22.6,20.2,46.7c9.8,14.1,22.1,26.1,36.5,35.5c18.1,11.8,39.7,19.6,64.2,23.4c0.2,0,0.4,0.3,0.4,0.5
					C204.1,629.4,203.9,629.6,203.7,629.6z"/>
				<path class="st3" d="M232.8,740.8c-0.1,0-0.2,0-0.3-0.1c-0.2-0.2-0.2-0.4,0-0.6c36.3-38.9,45.4-76,46.6-100.2
					c1.3-26.2-6.1-43.5-6.1-43.7c-0.1-0.2,0-0.5,0.2-0.6c0.2-0.1,0.5,0,0.6,0.2c0.1,0.2,7.5,17.6,6.2,44
					c-1.2,24.4-10.3,61.6-46.9,100.8C233,740.7,232.9,740.8,232.8,740.8z"/>
				<path class="st3" d="M133.6,444.2c0,0-0.1,0-0.1,0c-41.1-12.3-61-38.9-70.4-59c-10.2-21.8-10.6-40.9-10.6-41.1
					c0-0.2,0.2-0.4,0.4-0.4c0,0,0,0,0,0c0.2,0,0.4,0.2,0.4,0.4c0,0.2,0.5,19.1,10.6,40.7c9.3,19.9,29,46.2,69.8,58.5
					c0.2,0.1,0.4,0.3,0.3,0.6C134,444.1,133.8,444.2,133.6,444.2z"/>
			</g>
		</g>
	</g>
	<g>
		<g>
			<defs>
				<path id="SVGID_7_" d="M531.4,758.8c34.7-19.5,48.6-66.6,45.9-102.6c-4.2-55.5-46.1-59.9-57.5-118.7
					c-12.1-62.6,30.8-80.5,16.8-139.5c-12.9-54.1-50.7-46.4-74.5-109.2c-24-63.1,5.1-93.4-27.6-143.2c-6.2-9.5-31.9-48.5-69.2-47.2
					c-31.2,1.1-56.4,30-65.5,55.9c-10.2,29.3,4.4,42.6,8.5,92c5.6,67.5-19.4,71-9.9,116.2c12.8,60.4,59.6,68.2,59.4,117.7
					c-0.1,33.3-23.1,35.9-32.3,75.9c-13.2,57.2,17.7,121.8,60,160C391,721,471.8,792.3,531.4,758.8z"/>
			</defs>
			
				<linearGradient id="SVGID_8_" gradientUnits="userSpaceOnUse" x1="-2289.8008" y1="605.1636" x2="-2043.4789" y2="605.1636" gradientTransform="matrix(-0.9941 0.1087 0.1087 0.9941 -1790.5612 67.288)">
				<stop  offset="3.597120e-03" style="stop-color:#E38DDD"/>
				<stop  offset="1" style="stop-color:#9571F6"/>
			</linearGradient>
			<use xlink:href="#SVGID_7_"  style="overflow:visible;fill:url(#SVGID_8_);"/>
			<clipPath id="SVGID_9_">
				<use xlink:href="#SVGID_7_"  style="overflow:visible;"/>
			</clipPath>
			<g class="st5">
				<path class="st3" d="M512,780.4c-0.1,0-0.2,0-0.3-0.1c-46.2-39.6-71.5-81.9-75-125.7c-1.7-20.8,2.3-33.7,6.8-48.7
					c4.5-14.9,9.6-31.7,11.1-60.7c0.5-9.6,1.7-32-2-60c-4.3-33-13.9-63.3-28.5-90c-12.7-23.1-24.5-34.7-33.9-44
					c-10.9-10.7-19.5-19.2-24.9-39.7c-6.2-23.8-1.3-40.6,4.4-60c4.7-16.2,10.1-34.6,9.6-60.3c-0.8-38-11.1-76.7-30.7-115.3
					c-0.1-0.2,0-0.5,0.2-0.6c0.2-0.1,0.5,0,0.6,0.2c19.7,38.6,30,77.5,30.8,115.6c0.5,25.9-4.9,44.3-9.6,60.6
					c-5.6,19.3-10.5,36-4.4,59.5c5.3,20.2,13.8,28.6,24.6,39.2c9.5,9.3,21.3,20.9,34.1,44.2c14.7,26.8,24.3,57.1,28.6,90.3
					c3.6,28,2.5,50.5,2,60.1c-1.5,29.1-6.6,46-11.2,61c-4.5,14.9-8.4,27.7-6.8,48.4c3.5,43.6,28.6,85.7,74.7,125.1
					c0.2,0.2,0.2,0.4,0,0.6C512.2,780.3,512.1,780.4,512,780.4z"/>
				<path class="st3" d="M363.3,278.2c-0.1,0-0.3-0.1-0.4-0.2c-0.1-0.2-0.1-0.5,0.1-0.6c40.7-25.1,62.3-68,73.4-99.6
					c12-34.3,14.3-62.9,14.4-63.2c0-0.2,0.2-0.4,0.5-0.4c0.2,0,0.4,0.2,0.4,0.5c0,0.3-2.4,29.1-14.4,63.4
					c-11.1,31.7-32.9,74.8-73.8,100C363.4,278.1,363.4,278.2,363.3,278.2z"/>
				<path class="st3" d="M419.1,405.1c-22,0-42.1-5.2-60-15.5c-16.5-9.5-31.1-23.4-43.5-41.2c-21-30.3-28.2-62.1-28.3-62.4
					c-0.1-0.2,0.1-0.5,0.3-0.5c0.2-0.1,0.5,0.1,0.5,0.3c0.1,0.3,7.2,31.9,28.1,62.1c12.3,17.7,26.8,31.5,43.2,40.9
					c20.5,11.8,44,16.8,69.8,15c0.2,0,0.5,0.2,0.5,0.4c0,0.2-0.2,0.5-0.4,0.5C425.9,405,422.5,405.1,419.1,405.1z"/>
				<path class="st3" d="M451.9,469.2c-0.2,0-0.3-0.1-0.4-0.2c-0.1-0.2,0-0.5,0.2-0.6c20.8-11.8,36.9-27.1,48-45.3
					c8.9-14.6,14.6-31.1,16.9-49.1c4-30.7-3.3-55.4-3.4-55.6c-0.1-0.2,0.1-0.5,0.3-0.6c0.2-0.1,0.5,0.1,0.6,0.3
					c0.1,0.2,7.4,25.1,3.4,56c-2.3,18.1-8.1,34.8-17,49.5c-11.2,18.4-27.4,33.7-48.3,45.6C452.1,469.2,452,469.2,451.9,469.2z"/>
				<path class="st3" d="M437,637.7C437,637.7,437,637.7,437,637.7c-24-1.9-45.6-9.5-64.4-22.7c-15-10.5-28.1-24.6-39.1-41.8
					c-18.7-29.3-24.6-57.9-24.7-58.2c0-0.2,0.1-0.5,0.3-0.5c0.2,0,0.5,0.1,0.5,0.3c0.1,0.3,6,28.8,24.6,57.9
					c10.9,17.1,24,31.1,38.9,41.5c18.6,13.1,40.1,20.6,63.9,22.5c0.2,0,0.4,0.2,0.4,0.5C437.5,637.5,437.3,637.7,437,637.7z"/>
				<path class="st3" d="M466.7,731.9c-0.2,0-0.4-0.1-0.4-0.3c-0.1-0.2,0.1-0.5,0.3-0.5c20.4-5.3,37.9-16.2,52-32.4
					c11.3-13,20.4-29.4,27.1-48.7c11.5-33,12-63.6,12-63.9c0-0.2,0.2-0.5,0.4-0.4c0.2,0,0.4,0.2,0.4,0.4c0,0.3-0.5,31-12,64.1
					c-6.8,19.5-16,36-27.3,49c-14.2,16.3-31.9,27.3-52.5,32.6C466.8,731.9,466.8,731.9,466.7,731.9z"/>
			</g>
		</g>
	</g>
	<g>
		
			<linearGradient id="SVGID_10_" gradientUnits="userSpaceOnUse" x1="-3370.4238" y1="777.6825" x2="-3300.3652" y2="618.3334" gradientTransform="matrix(-1 0 0 1 -2032.3815 0)">
			<stop  offset="0" style="stop-color:#AA80F9"/>
			<stop  offset="0.9964" style="stop-color:#6165D7"/>
		</linearGradient>
		<path class="st6" d="M1135.3,611.1l261.3-7.4c29-1.3,52,21.1,52,49.9v0.3c0,28.8-19.8,50.7-48.7,53.3L1146,727.5L1135.3,611.1z"/>
		<g>
			
				<linearGradient id="SVGID_11_" gradientUnits="userSpaceOnUse" x1="-3219.2852" y1="659.9885" x2="-2725.7664" y2="659.9885" gradientTransform="matrix(-1 0 0 1 -2032.3815 0)">
				<stop  offset="0" style="stop-color:#FF9085"/>
				<stop  offset="1" style="stop-color:#FB6FBB"/>
			</linearGradient>
			<path class="st7" d="M693.4,695.1l445.5,26.9c26.4,1.6,48-17.1,48-41.9v-16.8c0-24.7-21.6-45.7-48-46.8l-445.5-18.6V695.1z"/>
			
				<linearGradient id="SVGID_12_" gradientUnits="userSpaceOnUse" x1="-3230.5242" y1="660.1922" x2="-2716.5715" y2="660.1922" gradientTransform="matrix(-1 0 0 1 -2032.3815 0)">
				<stop  offset="0" style="stop-color:#AA80F9"/>
				<stop  offset="0.9964" style="stop-color:#6165D7"/>
			</linearGradient>
			<path class="st8" d="M689.3,700l446,27.4c34.5,2.1,62.8-22.4,62.8-54.7v-0.4c0-32.3-28.4-59.8-62.8-61.2l-446-18.2
				c-2.8-0.1-5.1,2.1-5.1,5c0,2.9,2.3,5.3,5.1,5.4l446,19.1c27.8,1.2,50.5,23.3,50.5,49.3v0.4c0,26-22.8,45.8-50.5,44.1l-446-26.5
				c-2.8-0.2-5.1,2-5.1,4.9C684.2,697.4,686.5,699.9,689.3,700z"/>
		</g>
		
			<linearGradient id="SVGID_13_" gradientUnits="userSpaceOnUse" x1="-3278.1367" y1="389.8225" x2="-3389.5579" y2="765.137" gradientTransform="matrix(-1 0 0 1 -2032.3815 0)">
			<stop  offset="0" style="stop-color:#FFC444"/>
			<stop  offset="0.9964" style="stop-color:#F36F56"/>
		</linearGradient>
		<path class="st9" d="M1129.8,437.1l266.9,5.7c29,0.6,52,36.3,52,79.5v0.5c0,43.3-23.1,79.5-52,80.9l-253.9,7.1L1129.8,437.1z"/>
		<g>
			
				<linearGradient id="SVGID_14_" gradientUnits="userSpaceOnUse" x1="-3219.2852" y1="520.6233" x2="-2725.7664" y2="520.6233" gradientTransform="matrix(-1 0 0 1 -2032.3815 0)">
				<stop  offset="0" style="stop-color:#FF9085"/>
				<stop  offset="1" style="stop-color:#FB6FBB"/>
			</linearGradient>
			<path class="st10" d="M693.4,585.3l421.7,16.6c39.4,1.6,71.8-27.3,71.8-64.4v-25.2c0-37.1-32.4-67.6-71.8-68.1l-421.7-4.9V585.3z
				"/>
			
				<linearGradient id="SVGID_15_" gradientUnits="userSpaceOnUse" x1="-3230.5242" y1="521.5613" x2="-2716.5715" y2="521.5613" gradientTransform="matrix(-1 0 0 1 -2032.3815 0)">
				<stop  offset="0" style="stop-color:#FFC444"/>
				<stop  offset="0.9964" style="stop-color:#F36F56"/>
			</linearGradient>
			<path class="st11" d="M689.3,592.9l446,18.2c34.5,1.4,62.8-36.9,62.8-85.4v-0.5c0-48.5-28.4-88.3-62.8-88.6l-446-4.6
				c-2.8,0-5.1,3.4-5.1,7.7c0,4.3,2.3,7.8,5.1,7.8l446,5.9c27.8,0.4,50.5,32.4,50.5,71.4v0.5c0,39-22.8,69.9-50.5,68.9l-446-16.9
				c-2.8-0.1-5.1,3.3-5.1,7.6S686.5,592.8,689.3,592.9z"/>
		</g>
		<path class="st12" d="M1210.8,586.8l54-3.1c13-37.2,12.1-73,0-116.7l-54,0.2C1221.6,511.8,1220,551.2,1210.8,586.8z"/>
	</g>
	<g>
		<path class="st13" d="M1009.9,119.3L468.3,89.2c-12.5-0.6-23.7,12.5-23.7,23.5v669.8c0,15.2,16.2,18.3,28.7,17.1l536.7-52.6
			c9.8-1,17.7-9.6,17.7-19.2v-590C1027.7,128,1019.8,119.8,1009.9,119.3z"/>
		<path class="st1" d="M1018.9,114L476.1,88.3c-12.5-0.6-22.6,7.9-22.6,19v675.1c0,11.1,10.2,19,22.6,17.8l542.7-53.6
			c9.8-1,17.7-9.7,17.7-19.4V132.5C1036.6,122.7,1028.7,114.5,1018.9,114z"/>
		<path class="st14" d="M476.1,791c-6.7,0.7-12.2-3.7-12.2-9.6V107.8c0-6,5.5-10.6,12.2-10.3l542.7,24.6c5.3,0.2,9.6,4.7,9.6,10
			v595.8c0,5.3-4.3,10-9.6,10.5L476.1,791z"/>
		<polygon class="st15" points="983.9,722.4 519.7,765.4 519.7,143.9 983.9,160.7 		"/>
		<path class="st16" d="M798.2,163.7l-185.5,2.2l4.2-40.2c0.3-5.2,4.2-9.5,9.4-10.3l31.4-4.6c3.7-0.5,6.9-2.9,8.5-6.3l3.4-7.1
			l82.2,4.9L798.2,163.7z"/>
		<linearGradient id="SVGID_16_" gradientUnits="userSpaceOnUse" x1="612.6906" y1="101.5277" x2="904.3425" y2="101.5277">
			<stop  offset="0" style="stop-color:#444B8C"/>
			<stop  offset="0.9964" style="stop-color:#26264F"/>
		</linearGradient>
		<path class="st17" d="M897.3,137.7c-0.9-4.5-4.7-7.7-9.5-7.9l-29.6-1.3c-13.5-0.6-23.3-11.1-22.8-24.4l1.1-30.8
			c0.2-5.7-4-10.3-9.8-10.6l-9.7-0.6c-7.4-0.4-12.4-6.7-11.3-14c1.8-12.7-7.2-23.7-20.4-24.5c-13.2-0.9-25.6,8.8-27.6,21.7
			c-0.3,1.9-1,3.8-2.1,5.5c-3.1,4.7-8.4,7.3-13.7,7l-10-0.6c-6.1-0.3-11.9,3.8-13.4,9.5L710.1,98c-3.6,13.5-17.2,23.3-31.7,22.7
			l-32.5-1.4c-5.3-0.2-10.6,2.8-13,7.4l-19.6,37.3c-1.6,3.1,0.4,6.4,3.9,6.5l282,9c3.1,0.1,5.7-2.9,5.1-5.8L897.3,137.7z
			 M781.2,50.2c-3.9-0.2-6.6-3.5-6-7.2s4.2-6.6,8.1-6.4c3.9,0.2,6.6,3.5,6,7.2C788.7,47.6,785.1,50.5,781.2,50.2z"/>
		<path class="st13" d="M899,138.5c-0.9-4.5-4.7-7.7-9.5-7.9l-29.6-1.3c-13.5-0.6-23.3-11.1-22.8-24.4l1.1-30.8
			c0.2-5.7-4-10.3-9.8-10.6l-9.7-0.6c-7.4-0.4-12.4-6.7-11.3-14c1.8-12.7-7.2-23.7-20.4-24.5c-13.2-0.9-25.6,8.8-27.6,21.7
			c-0.3,1.9-1,3.8-2.1,5.5c-3.1,4.7-8.4,7.3-13.7,7l-10-0.6c-6.1-0.3-11.9,3.8-13.4,9.5l-8.4,31.3c-3.6,13.5-17.2,23.3-31.7,22.7
			l-32.5-1.4c-5.3-0.2-10.6,2.8-13,7.4l-19.6,37.3c-1.6,3.1,0.4,6.4,3.9,6.5l282,9c3.1,0.1,5.7-2.9,5.1-5.8L899,138.5z M782.9,51.1
			c-3.9-0.2-6.6-3.5-6-7.2c0.6-3.8,4.2-6.6,8.1-6.4c3.9,0.2,6.6,3.5,6,7.2C790.3,48.5,786.8,51.3,782.9,51.1z"/>
		<g>
			<g>
				<polygon class="st1" points="753.7,704.4 553.4,721.2 553.4,711.2 753.7,694.8 				"/>
				<polygon class="st1" points="753.7,721.6 553.4,739.1 553.4,729.2 753.7,712 				"/>
			</g>
			<g>
				<polygon class="st1" points="955.9,687.4 773.2,702.7 773.2,693.2 955.9,678.2 				"/>
				<polygon class="st1" points="955.9,703.8 773.2,719.9 773.2,710.3 955.9,694.7 				"/>
			</g>
		</g>
		<g>
			<path class="st12" d="M850.7,155.6c-25.2-14.9-44.5-4.3-60.1-21.2c-16.8-18-5.5-41.7-22.8-52.9c-11.1-7.2-21-0.8-34-2.8
				c-4.7-0.7-9.8-2.5-15-6l-7,26.1c-3.6,13.5-17.2,23.3-31.7,22.7l-32.5-1.4c-5.3-0.2-10.6,2.8-13,7.4l-19.6,37.3
				c-1.6,3.1,0.4,6.4,3.9,6.5l256.3,8.2C868.6,169.7,860.6,161.5,850.7,155.6z"/>
		</g>
		<g>
			<linearGradient id="SVGID_17_" gradientUnits="userSpaceOnUse" x1="644.8152" y1="301.5179" x2="1026.5112" y2="750.1409">
				<stop  offset="0" style="stop-color:#FF9085"/>
				<stop  offset="1" style="stop-color:#FB6FBB"/>
			</linearGradient>
			<path class="st18" d="M932.2,654.6L906,532.8c-4.6-27,4.5-55,24.3-75.2c10.9-11.1,17.7-25.3,19.2-40.3
				c2.4-23.5,2.1-61.6-13.6-108.3c-21.1-62.7-86.5-102.8-156.7-95c-35.8,4-78.1,13.6-123.5,34c-26.5,11.9-44.9,35.5-47.8,62.7
				c-1.4,12.7-3.9,26.8-8.5,39.3c-5.8,15.8-8.3,26.7-9.3,33.7c-0.9,6.4,1.8,12.7,7.2,16.8c5.5,4.2,6.9,11.4,3.3,17.2l-40.7,65v2.1
				c0,6.4,5.5,11.5,12.6,11.7l24.5,0.6l-0.9,22.7c-0.2,4.4,3,8.1,7.6,9.1l5.5,1.1l-5.1,3.9c-4.1,3.2-5.2,8.5-2.5,12.5l7.1,10.8
				c3.2,4.9,2.8,11.2-1.2,16c-6.5,8-7.9,18.3-3.5,26.9l2,3.9c9.2,17.9,31,26.8,52.5,21.5c24.1-5.9,54.7-14.6,75.5-25.1
				c5.9-3,12.6,0.7,12.6,6.7v61.8L932.2,654.6z"/>
			<linearGradient id="SVGID_18_" gradientUnits="userSpaceOnUse" x1="745.0224" y1="408.1089" x2="929.5923" y2="164.5793">
				<stop  offset="0" style="stop-color:#AA80F9"/>
				<stop  offset="0.9964" style="stop-color:#6165D7"/>
			</linearGradient>
			<path class="st19" d="M700.7,379.6c-19.2-4.1-24.9,3.5-40.5-2.3c-18.7-6.9-32.7-25.7-35-44.4c-3.3-26.6,17.6-46.4,32-60
				c33-31.1,73.1-38.2,84.8-40.2c15.9-2.6,83.7-11.7,137.4,33.1c37.3,31,46.4,70.2,48.9,81.9c3.7,17,15.2,70.1-14.8,90.9
				c-17.8,12.3-46.4,10.9-64.5,0.4c-13.4-7.7-10.6-13.2-23.8-20.8c-26.3-15.2-44.7,4-75.9-7.9C724.4,400.9,726.6,385.2,700.7,379.6z
				"/>
			<linearGradient id="SVGID_19_" gradientUnits="userSpaceOnUse" x1="806.737" y1="597.9201" x2="979.462" y2="370.0191">
				<stop  offset="0" style="stop-color:#444B8C"/>
				<stop  offset="0.9964" style="stop-color:#26264F"/>
			</linearGradient>
			<path class="st20" d="M1021.6,723.7c-15.9,0-33.6-2.4-51.7-9.3c-58-22.2-101.7-84.3-99.5-141.4c0.9-22.8,9.5-39.9,17.1-55
				c9.1-18,16.9-33.6,8.8-53.4c-0.5-1.1-1.2-2.8-2.1-4.9c-6-13.8-18.6-42.6-16.5-54.3c1.3-7.1,5.4-10.5,5.6-10.7l0.1-0.1
				c1.7-1.2,3.7-1.8,5.5-2.4c1-0.3,1.9-0.6,2.8-1c7.7-3.2,12.7-12.9,11.5-22.6c-1-8-5.5-16.1-13.3-23.9c-2.1-2.1-4.5-4.2-7.3-4.9
				c6.1,4.6,10.3,10,12.2,15.9c2.7,8.3,0,19.9-8.9,24c-3.4,1.6-7.3,1.7-11.2,0.5c2.4,2,4.5,4.3,6.2,7c0.4,0.7,0.7,1.5,0.8,2.2
				c0.5,3.7-3.2,4.8-4.4,5.2c-5.4,1.6-11.2,2.2-16.9,1.7c-1.5,1.3-3.3,2.1-5.3,2.4c-6.1,0.9-11.5-3.7-15.1-12.8
				c-2.7-6.7-4.4-12.9-5-18.6c-0.5-0.4-1-0.8-1.5-1.2c-3.7,1.7-7.6,2.6-11.5,2.6c-0.6,4.4-1.7,8.8-3.3,13c-0.4,1-1.3,1.8-2.4,2
				c-1.1,0.2-2.2-0.2-2.9-1.1c-0.8-1-2-1.4-3.3-1.1c-1.2,0.3-2.1,1.2-2.4,2.4c-2.4,9.7-7.2,15-14.3,15.6c-1.9,0.2-3.9,0-6.1-0.6
				c-13-3.5-24-14.6-28.5-28.6c-9.2,4.5-19.9,5.5-29,2.2c-12.2-4.4-20.8-16.4-21-28.6c-5.6,5.3-15.2,5.6-21.6,2
				c-9.1-5.1-12.7-15.4-14.1-21c-1.7-7.2-1.6-13.7,0.3-19.2c4.8-13.8,20.5-20.4,31.8-24.1c10-3.3,17.6-3.6,23-0.8
				c0.4-1.8,1.7-3.6,3-4.6c26-19.4,62.8-22.2,91.6-7.1c2.4,1.3,4.6,2.6,6.6,3.9c1.5-0.8,3.1-1.4,4.9-1.8c7.1-1.7,14.4,0,21.7,5.1
				c7.4,5.2,12.8,12.4,16.1,17.6c8.9,14.1,11.5,25.9,8.1,36c-0.7,2.2-1.7,4.2-2.9,6c0.7,0.4,1.3,0.8,2,1.2c1.3-0.1,2.6-0.1,3.8,0.2
				c3.5,0.8,6.2,3.1,8.6,5.5c8.2,8.2,12.9,16.7,14,25.2c1.5,12.2-5.4,21.8-12.9,24.9c-1,0.4-2,0.7-3,1.1c-1.8,0.6-3.5,1.1-4.9,2.1
				c-0.3,0.3-3.7,3.4-4.8,9.3c-2,11.1,10.8,40.5,16.3,53c0.9,2.1,1.7,3.8,2.1,5c8.5,20.8,0.5,36.8-8.9,55.3
				c-7.5,14.9-16,31.8-16.9,54.1c-1,26.6,8.2,55.5,26.1,81.4c18.3,26.5,43.8,47,71.9,57.8c42.3,16.2,82.5,7.4,102.7,0.8l0.7,2.1
				C1062.3,719.1,1043.6,723.7,1021.6,723.7z M760.9,369.4c4.3,13.5,14.8,24.2,27.1,27.5c2,0.5,3.7,0.7,5.3,0.6
				c6-0.5,10.2-5.2,12.3-13.9c0.5-2,2.1-3.6,4.1-4.1c2-0.5,4.1,0.2,5.5,1.8c0.3,0.4,0.7,0.3,0.9,0.3c0.1,0,0.5-0.1,0.7-0.5
				c1.5-4,2.6-8.1,3.1-12.3c-1.1-0.1-2.1-0.2-3.1-0.5c-3.4-0.7-6.3-2.1-9-3.9c-2.9,0.7-5.7,1.5-8.4,2.6l-1.3,0.5l-0.2-1.4
				c-0.6-3.9-0.4-7.9,0.3-11.9c0-0.1-0.1-0.1-0.1-0.2c-1,0.2-2,0.4-2.9,0.5c-3,1.6-6.3,3.1-9.9,4.4c-5.7,2.1-11,3.4-15.9,4
				c-0.5,0.5-0.9,0.9-1.4,1.3C765.8,366.2,763.4,367.9,760.9,369.4z M845.3,391c2.3,3.4,5.5,6,9.7,5.4c0.8-0.1,1.5-0.3,2.2-0.6
				c-1.4-0.2-2.8-0.6-4.2-0.9C849.8,393.9,847.2,392.6,845.3,391z M862.4,394.1c4.8,0.3,9.7-0.3,14.3-1.7c2.5-0.8,2.9-1.6,2.8-2.7
				c-0.1-0.4-0.2-0.9-0.5-1.3c-2.2-3.5-5.2-6.2-8.5-8.7c-0.4,1.4-0.8,2.7-1.2,4.1l-0.4,1.1l-1.1-0.4c-1.3-0.5-2.6-1-3.9-1.4
				c0.5,1.7,0.6,3.5,0.5,5.4C864.3,390.5,863.6,392.5,862.4,394.1z M846.3,374.8c-0.5,1.2-1,2.4-1.4,3.6c-0.8,2.1-1.4,4.4-1,6.5
				c0.9,4.9,7,7.1,9.6,7.8c2,0.6,4.1,1,6.2,1.2c1.4-1.5,2.3-3.5,2.5-5.7c0.2-2.2-0.1-4.3-0.9-6.3
				C855.8,379.7,850.9,377.3,846.3,374.8z M837.6,369.2c0.7,4.5,2,9.2,3.9,14.3c0-2,0.6-4,1.3-5.9c0.5-1.3,1-2.7,1.6-4
				C842,372.2,839.7,370.7,837.6,369.2z M863,380.2c1.5,0.6,3,1.2,4.5,1.7c0.4-1.2,0.7-2.4,1-3.7c-1.6-1.1-3.2-2.2-4.9-3.2
				c-4.1-2.7-8.4-5.4-11.9-8.9c-0.2-0.2-0.4-0.4-0.6-0.6c-0.5,0.7-0.9,1.5-1.3,2.2c0.5,0.3,0.9,0.5,1.4,0.8
				C857.1,371.9,861,375.9,863,380.2z M847.3,372.7c3.8,2.2,7.9,4.2,12.4,6.1c-2-3-5.2-5.8-9.6-8.4c-0.5-0.3-0.9-0.5-1.4-0.8
				C848.2,370.7,847.7,371.7,847.3,372.7z M871.4,376.2c0.9,0.5,1.8,1,2.7,1.4c3.8,1.5,7.7,1.5,10.9,0c6.1-2.8,10.8-11.7,7.7-21.2
				c-2.4-7.5-8.5-13-14.1-16.6c-2.1,0.4-4.2,1.4-6.3,3C874.2,353.8,873.8,365.3,871.4,376.2z M870.4,344.5c-0.1,0.1-0.2,0.2-0.4,0.4
				c-6.3,6.6-8.5,16.1-5.5,23.5c1,2.4,2.7,4.6,4.8,6.4C871.5,364.9,871.8,354.5,870.4,344.5z M852.5,363.6c0.3,0.3,0.6,0.6,0.9,1
				c3.3,3.2,7.3,5.9,11.3,8.4c-0.9-1.2-1.6-2.4-2.1-3.8c-2.2-5.5-1.9-12,0.6-17.8c-1.5,1.4-2.9,2.8-4.3,4.3
				C856.5,358.1,854.4,360.8,852.5,363.6z M711.7,336.4l-0.5,4.4c-1.4,12.2,7.1,25.3,19.4,29.8c8.7,3.2,18.9,2.2,27.6-2.2
				c-0.5-1.8-0.9-3.7-1.2-5.6c-1.8-0.3-3.5-0.8-5.1-1.4c-7.7-2.8-14.2-8.6-18.7-16.9c-2.7-5-4.6-10.6-5.5-16.5
				c-1.7,1.9-3.5,3.6-5.6,5.1C719.2,334.9,715.4,336.4,711.7,336.4z M837.3,366.1c2.5,1.9,5.2,3.7,8.1,5.4c0.5-1,0.9-1.9,1.4-2.9
				c-3.1-1.5-6.3-2.7-9.6-3.7C837.2,365.4,837.2,365.7,837.3,366.1z M759.3,363c0.2,1.4,0.5,2.8,0.9,4.2c1.9-1.1,3.8-2.5,5.5-3.9
				C763.5,363.3,761.4,363.2,759.3,363z M838.7,363.1c3.1,0.9,6.2,2.1,9.1,3.6c0.6-1,1.2-1.9,1.8-2.9c-1.7-2.1-3.2-4.3-4.4-6.7
				c-0.8,1-1.7,1.9-2.6,2.8C841.4,361.1,840.1,362.2,838.7,363.1z M822.6,362.8c0,1.2-0.1,2.5-0.2,3.7c3.1-0.1,6.3-0.8,9.3-2
				c-0.3-0.3-0.7-0.6-1-0.9C828,363.1,825.3,362.9,822.6,362.8z M811,363.6c1.9,1.1,4,1.9,6.3,2.4c1,0.2,1.9,0.4,2.9,0.4
				c0.1-1.2,0.2-2.4,0.2-3.7C817.2,362.8,814.1,363.1,811,363.6z M800,356.7c-0.3,2.5-0.3,5-0.1,7.5c1.8-0.7,3.7-1.3,5.6-1.8
				C803.4,360.8,801.6,358.8,800,356.7z M831.7,361.5c1,0.2,2.1,0.4,3.1,0.6c0-3.4,0.4-6.7,1.3-9.8c1-3.8,2.7-7.3,5-10.4
				c-0.2-3.9,0.2-7.7,1.2-11.4c1.5-5.3,5.1-11.2,10.8-12.5c-0.8-4.1-2.3-8.2-5-11.9c-0.6-0.9-1.4-1.6-2.1-2.4
				c-0.8,5.6-3.6,10.9-9,14.4c-3.1,1.9-6.6,2.8-10,2.6c-1.7,7.2-4.5,13.6-8.2,18.8c1.2,3.1,2.2,6.3,2.9,9.6c1.5,2.4,3.2,4.8,5.2,7.1
				C828.2,358,829.9,359.8,831.7,361.5z M846.7,355.1c1.1,2.4,2.6,4.7,4.2,6.8c1.9-2.7,4-5.3,6.3-7.7c2.1-2.2,4.3-4.3,6.5-6.3
				c2.1-2,4.3-4,6.3-6.1c-0.4-2.3-0.9-4.6-1.5-6.8c0-0.1-0.1-0.2-0.1-0.4c-2.7-0.9-5.1-1.3-7.5-1.3c0,0,0,0,0,0
				c-2,0-3.9,0.3-5.7,0.9c-0.1,0.5-0.2,0.9-0.2,1.3C853.4,343,850.6,349.7,846.7,355.1z M800.5,353.6c2.1,3.1,4.7,5.9,7.7,8.2
				c4-0.8,8.1-1.3,12.2-1.3c0-3.6-0.4-7.1-1.1-10.6c-1.3-2.2-2.5-4.5-3.5-6.9c-1.8,2.1-3.9,3.9-6,5.5c-2.8,2.1-5.9,3.6-9.2,4.6
				C800.6,353.4,800.6,353.5,800.5,353.6z M841.5,345.4c-1.4,2.4-2.5,4.9-3.2,7.4c-0.7,2.8-1.1,5.7-1.2,8.7c1.4-1,2.7-2.1,4-3.3
				c1.1-1.1,2.1-2.2,3.1-3.5C842.8,351.8,841.9,348.6,841.5,345.4z M759,360.7c2.9,0.4,6,0.4,9.3,0.1c2.9-3.1,5.4-6.6,7.4-10.5
				c-0.6-0.4-1.1-0.8-1.7-1.3c-6.4-5.4-9-13.1-10-19.9C759.5,339.7,757.8,350.6,759,360.7z M822.7,360.5c1.8,0.1,3.5,0.2,5.3,0.4
				c-1.1-1.1-2.1-2.2-3-3.3c-0.9-1.1-1.8-2.2-2.6-3.3C822.5,356.4,822.7,358.5,822.7,360.5z M777.5,351.5c-1.6,3.2-3.6,6.2-5.8,8.8
				c4-0.7,8.2-1.8,12.7-3.5c1.6-0.6,3.3-1.3,5.1-2.1C785.2,354.6,781.1,353.5,777.5,351.5z M729.5,325.5c2.1,18,12.9,29.9,23.1,33.6
				c1.3,0.5,2.7,0.9,4.1,1.2c-1.1-10.5,0.7-22,5.5-32.9c0.3-0.8,0.8-1.6,1.3-2.4c-0.1-2-0.1-3.8-0.1-5.4c0.3-9.3,2.8-16.4,7.3-21.3
				c-0.8-0.7-1.7-1.3-2.6-2c-1.4,0.3-2.8,0.7-4.1,1.2c-10.9,3.6-21.2,11.4-30,22.4c-0.7,0.9-1.4,1.7-2,2.6
				C731.1,323.5,730.4,324.5,729.5,325.5z M843.4,342.6c0.3,3.4,1,6.8,2.3,10.1c3.3-4.9,5.7-10.9,7-17.7
				C849,336.7,845.9,339.4,843.4,342.6z M778.5,349.5c4.6,2.6,10.2,3.6,15.8,2.9c0.7-0.4,1.3-0.8,2-1.2c-2.4-4.2-4.1-8.4-5.3-11.8
				c-0.8-2.4-1.6-4.8-2.3-7.2c-2,2.1-4.2,4-6.7,5.6C781.4,341.9,780.1,345.8,778.5,349.5z M801.3,350.6
				C801.3,350.6,801.3,350.6,801.3,350.6c2.5-0.9,4.9-2.1,7.1-3.8c2.3-1.7,4.5-3.7,6.4-6.1c-0.5-1.4-1-2.9-1.4-4.4
				c-0.1-0.1-0.2-0.1-0.3-0.1c0,0,0,0,0,0C810.9,341.6,806.9,346.4,801.3,350.6z M790.5,330.3c0.8,2.8,1.7,5.7,2.7,8.4
				c1.1,3.2,2.8,7.3,5.1,11.3c0.4-0.3,0.8-0.5,1.2-0.8c1.5-4.6,3.9-8.9,7-12.5c0.9-1.1,2.6-3.1,5.3-3c0.2-0.8,0.5-1.6,0.6-2.3
				c-0.7-4.1-0.8-8.2-0.4-12.2c-1.8-6.8-6-13.1-11.9-17.4c-1.4-1-2.9-1.9-4.4-2.6c2.6,4.4,3.2,10.2,2.3,15.4
				C796.8,320.2,794.2,325.7,790.5,330.3z M765.8,325.5c0.5,7,2.7,16,9.6,21.8c0.4,0.3,0.8,0.6,1.2,0.9c1.2-2.8,2.2-5.8,2.9-8.8
				c-0.1,0.1-0.3,0.2-0.4,0.2l-1-2c0.7-0.3,1.4-0.7,2-1.1c0.6-3.8,0.8-7.7,0.5-11.6c-0.1-2-1-3.9-2.4-5c-1.3-1.1-2.7-1.4-4.4-1
				C770.8,319.6,767.8,322.5,765.8,325.5z M810.8,336c-0.9,0.3-1.7,1-2.7,2.1c-2.1,2.5-3.9,5.3-5.3,8.4
				C806.2,343.5,809,340.1,810.8,336z M719.4,281.2c-3.8,0-8.3,0.9-13.5,2.6c-10.9,3.6-25.8,9.8-30.4,22.7
				c-1.8,5.1-1.9,11.1-0.3,17.9c1.3,5.3,4.6,14.9,13,19.6c6.5,3.6,16.6,2.9,20.8-4l2.2-3.6c-2.4,0-4.8-0.7-6.9-2.1
				c-2.7-1.9-4.4-4.8-5.7-7.3c-3.3-6.4-7.9-18.8-2.6-29.9c3.6-7.4,11.3-12.9,20.8-14.8c2.1-0.4,4.1-0.7,6.2-0.8
				C722,281.3,720.8,281.2,719.4,281.2z M871,335.5c0.3,1.4,0.6,2.7,0.9,4.1c0.7-0.9,1.4-1.7,2.1-2.6C873,336.4,872,335.9,871,335.5
				z M853.4,320.2c-4.7,1.2-7.7,6.3-8.9,10.9c-0.7,2.7-1.1,5.4-1.2,8.2c2.8-3,6.2-5.4,9.9-6.8C853.6,329,854,324.7,853.4,320.2z
				 M876,338c0,0-0.1,0.1-0.1,0.1c0.1,0,0.1-0.1,0.2-0.1C876.1,338.1,876,338,876,338z M815.4,334.9c0.8,0.6,1.6,1.4,2.1,2.3
				c3.2-4.8,5.6-10.4,7.1-16.8c-2.2-0.4-4.3-1.3-6.1-2.7c-1.4-1-2.5-2.3-3.5-3.7c-0.4,1.6-0.7,3.2-0.9,4.9c1,4.1,1.2,8.4,0.4,12.4
				C814.8,332.5,815.1,333.7,815.4,334.9z M870.3,332.8c1.6,0.6,3.3,1.4,5,2.3c1.1-1.8,2.1-3.7,2.8-5.7c3.2-9.4,0.6-20.6-7.9-34.1
				c-15.3-24.3-30.9-22.8-35.3-21.8c-1.2,0.3-2.3,0.6-3.3,1.1c5.1,3.9,9,8.2,11.5,12.9c2.1,4,3.2,8.7,3.1,13.3
				c1.4,1.1,2.7,2.4,3.7,3.8c3,4,4.7,8.5,5.5,13C862.5,317.6,867.8,324.8,870.3,332.8z M775.1,316.5c1.7,0,3.2,0.6,4.6,1.7
				c1.9,1.6,3,4,3.2,6.6c0.2,3.4,0.1,6.8-0.3,10c2-1.5,3.8-3.2,5.4-5c-2.8-9.2-5.7-18.6-11.7-26c-1.2-1.4-2.4-2.8-3.8-4
				c-4.2,4.5-6.4,11.1-6.7,19.9c0,0.7,0,1.5,0,2.3c2.1-2.5,4.8-4.6,7.6-5.3C773.9,316.6,774.5,316.5,775.1,316.5z M725.7,283.7
				c-2.7,0-5.5,0.2-8.3,0.8c-8.8,1.8-16,6.8-19.2,13.6c-4.9,10.2-0.5,21.8,2.6,27.9c1.2,2.3,2.7,4.9,5,6.5c4.5,3.1,10.9,1.5,15-1.3
				c2.4-1.7,4.5-3.9,6.5-6.3c-0.2-1.9-0.3-3.9-0.3-5.8c0.1-13.1,4.3-25.3,11.7-33.9c-1.9-0.4-4-0.7-6.1-1l1.7,1.5l-3.6-0.6
				c-0.9-0.1-1.6-0.6-2.1-1.3C727.6,283.7,726.7,283.7,725.7,283.7z M860.9,330.9C860.9,330.9,860.9,330.9,860.9,330.9
				c2.2,0,4.4,0.3,6.7,1c-2-5.4-6-11.8-11.9-11.9c0.5,4.2,0.3,8.3-0.1,11.7C857.3,331.1,859.1,330.9,860.9,330.9z M774.1,298.2
				c1.4,1.3,2.7,2.7,3.9,4.2c6,7.3,9,16.3,11.7,25.2c3-4,5-8.7,5.9-13.6c1.5-8.1-0.9-13.8-4.6-16.8c-3.7-1.2-7.6-1.9-11.6-2
				c-1.6,0.5-3.1,1.3-4.6,2.4C774.6,297.8,774.3,298,774.1,298.2z M741.2,285.6c-7.5,8.3-11.9,20.4-12,33.4c0,1.1,0,2.2,0.1,3.3
				c0.3-0.4,0.6-0.8,0.9-1.2c0.7-0.9,1.4-1.8,2-2.6c9.1-11.4,19.8-19.4,31.1-23.1c0.8-0.3,1.5-0.5,2.3-0.7c-6.2-3.8-14-6.7-23.4-8.9
				C741.8,285.7,741.5,285.7,741.2,285.6z M827.4,318.5c2.8,0.1,5.8-0.7,8.3-2.3c5.1-3.2,7.6-8.6,8.1-14.2c-2.9-2-6.3-3.4-9.8-3.8
				c-2.1-0.3-4.1-0.2-6,0.3c1.2,6.9,0.6,13.5-0.2,17.9C827.6,317,827.5,317.7,827.4,318.5z M816,311c0.8,1.8,2.1,3.5,3.9,4.9
				c1.6,1.2,3.4,1.9,5.3,2.3c0.2-0.8,0.3-1.5,0.4-2.3c0.7-4.2,1.3-10.4,0.2-16.8c-1.3,0.5-2.4,1.2-3.5,2c-2.5,2-4.6,5.1-6.1,9.1
				C816.2,310.5,816.1,310.7,816,311z M792.2,295.2c3.3,1.1,6.3,2.7,9,4.6c5.2,3.7,9.1,8.8,11.4,14.5c0.3-1.1,0.5-2.2,0.9-3.2
				c-1.6-4.1-1.7-9.2-0.4-15c0.9-4.1,2.7-8.6,5.4-12.8c-5.8-6.4-15.1-10.4-27.7-12c-19.7-2.5-37.1,2.1-47.9,12.4
				c10.5,2.4,18.9,5.8,25.6,10.2c3.5-0.7,7-1,10.5-1c2.7-0.8,5.5-0.9,8.2-0.2C789.2,293.3,790.8,294.1,792.2,295.2z M820.1,285.1
				c-2.3,3.7-3.9,7.8-4.7,11.5c-0.7,2.9-1.3,7-0.5,11c1.6-3.5,3.6-6.3,6-8.2c1.3-1.1,2.8-1.9,4.4-2.5
				C824.4,292.8,822.8,288.7,820.1,285.1z M831.7,295.7c0.8,0,1.7,0.1,2.5,0.2c3.4,0.4,6.7,1.6,9.5,3.4c-0.1-3.7-1.1-7.4-2.8-10.6
				c-2.5-4.7-6.4-9-11.7-12.9c-3.1,1.8-5.8,4.4-7.9,7.4c3.2,4,5.1,8.5,6.1,13C828.9,295.9,830.3,295.7,831.7,295.7z M771.1,295.7
				c0.4,0.3,0.8,0.6,1.2,1c0.4-0.3,0.7-0.6,1.1-0.9c0.2-0.2,0.4-0.3,0.6-0.4C773.1,295.5,772.1,295.6,771.1,295.7z M730.4,281.6
				c3.6,0.3,7,0.9,10,1.5c0.1-0.1,0.2-0.2,0.3-0.3c11.3-11.3,29.7-16.4,50.5-13.8c12.9,1.6,22.5,5.7,28.7,12.3c2-2.7,4.5-5.2,7.4-7
				c-1.7-1.1-3.5-2.2-5.5-3.2c-28-14.8-63.9-12-89.2,6.9C731.4,278.9,730.6,280.5,730.4,281.6z"/>
		</g>
	</g>
	<g>
		<g>
			
				<linearGradient id="SVGID_20_" gradientUnits="userSpaceOnUse" x1="-5937.2554" y1="2304.3044" x2="-5926.3169" y2="2304.3044" gradientTransform="matrix(-0.9816 0.1911 0.1911 0.9816 -5008.3784 -641.4952)">
				<stop  offset="0" style="stop-color:#444B8C"/>
				<stop  offset="0.9964" style="stop-color:#26264F"/>
			</linearGradient>
			<path class="st21" d="M1248.8,485.3c-0.2-2.7,1.6-4.9,2.5-5.9l4,0c0.7,1.4,1.7,3.3,2.9,5.8c2.4,5.1,3.6,7.6,3,8.2
				C1259.7,495.1,1249.2,491.6,1248.8,485.3z"/>
			
				<linearGradient id="SVGID_21_" gradientUnits="userSpaceOnUse" x1="-1401.2943" y1="822.0026" x2="-1394.3192" y2="807.5657" gradientTransform="matrix(-0.9816 0.1909 0.1909 0.9816 -276.6677 -55.9711)">
				<stop  offset="0" style="stop-color:#FFC444"/>
				<stop  offset="0.9964" style="stop-color:#F36F56"/>
			</linearGradient>
			<path class="st22" d="M1252.9,474.5l2,6.7c-0.2,0.4-2.2,1.5-3.9,0.8l-2.9-6.5L1252.9,474.5z"/>
			
				<linearGradient id="SVGID_22_" gradientUnits="userSpaceOnUse" x1="1767.0001" y1="477.5404" x2="1822.5697" y2="407.1764" gradientTransform="matrix(1 7.100000e-03 -7.100000e-03 1 -586.5275 -20.1844)">
				<stop  offset="0" style="stop-color:#444B8C"/>
				<stop  offset="0.9964" style="stop-color:#26264F"/>
			</linearGradient>
			<path class="st23" d="M1131.6,425.4c-4.2,13.3,3.4,8,19,0.4c16.4-7.9,52.1-19.2,67.3-4c11.4,11.3,3.1,29.1,20.7,48.8
				c3.1,3.5,6,5.9,7.9,7.3c3.2-1.3,6.4-2.6,9.6-3.9c1.3-7.3,5.4-35.4-12.1-60.8c-4.2-6.1-12.3-17.9-26.2-22.9
				C1180.1,376.7,1135.5,413.2,1131.6,425.4z"/>
			<linearGradient id="SVGID_23_" gradientUnits="userSpaceOnUse" x1="1151.6431" y1="389.5482" x2="1174.6982" y2="338.377">
				<stop  offset="0" style="stop-color:#AA80F9"/>
				<stop  offset="0.9964" style="stop-color:#6165D7"/>
			</linearGradient>
			<path class="st24" d="M1141.1,327.9c6.4-2.1,16.1-4.6,28-4.5c15.1,0.1,27.1,9.8,31.2,16.5c9.2,14.9-26,41.6-16,53.1
				c2,2.3,4.9,2.4,4.9,4.2c-0.1,4.9-22.8,1.2-38.4,15c-9.7,8.6-13.7,21.3-20.6,20.3c-1.9-0.3-4-1.7-9.5-2.7
				c-4.1-0.7-5.1-0.4-6.2-0.8c-4.3-1.6-6.1-14.6-1-37.2C1117,376.5,1124.2,354,1141.1,327.9z"/>
			<g>
				
					<linearGradient id="SVGID_24_" gradientUnits="userSpaceOnUse" x1="1899.9946" y1="-589.0953" x2="1901.8638" y2="-638.8847" gradientTransform="matrix(0.9141 0.4053 -0.4053 0.9141 -811.9369 116.5908)">
					<stop  offset="0" style="stop-color:#FFC444"/>
					<stop  offset="0.9964" style="stop-color:#F36F56"/>
				</linearGradient>
				<path class="st25" d="M1180,313.4c0,1.4-3.5,8.3-8.2,11.7c-4.7,3.4-10.6,3.1-12.4,3.6c-4.1,1-4.6,1-4.7,1.4
					c-0.5,2,10.6,8.8,22.1,7.2c7-0.9,13.5-4.9,13.1-7c-0.4-2.1-7.4-1-9.5-4.9c-1.4-2.7,0.2-6.5,2.2-9.6
					C1180.8,312.2,1181.8,316.9,1180,313.4z"/>
				<g>
					
						<linearGradient id="SVGID_25_" gradientUnits="userSpaceOnUse" x1="-1472.7166" y1="-1030.7172" x2="-1486.0363" y2="-1064.5468" gradientTransform="matrix(-0.9022 -0.4313 -0.4313 0.9022 -608.1292 632.4338)">
						<stop  offset="0" style="stop-color:#311944"/>
						<stop  offset="1" style="stop-color:#6B3976"/>
					</linearGradient>
					<path class="st26" d="M1193.4,324.1c2.5-1.3,4.2-4.7,3.6-7.7c-0.6-2.6-2.8-4-4.1-4.8c-3.8-2.4-9.8-3.2-13.3-0.3
						c-2.1,1.7-2.1,7.4-2.1,8.4c0,1.1,0.5,1.8,0.9,2.8c0.5,1.4,1.2,3.7,2.3,7.5c0.6-0.7,1.3-1.5,2.2-2.3c0.4-0.3,1.8-1.5,3.5-2.3
						C1189.7,323.7,1191.1,325.3,1193.4,324.1z"/>
					
						<linearGradient id="SVGID_26_" gradientUnits="userSpaceOnUse" x1="793.368" y1="-990.4416" x2="792.7556" y2="-941.0961" gradientTransform="matrix(0.927 0.3753 -0.3753 0.927 79.0036 941.1101)">
						<stop  offset="0" style="stop-color:#FFC444"/>
						<stop  offset="0.9964" style="stop-color:#F36F56"/>
					</linearGradient>
					<path class="st27" d="M1178.3,326.1c0,0,0.6,5.7,6,7.9c4.9,2,10.7-8.3,8.8-12.1c-0.6-1.2-2.5-2.5-4.4-2.9
						c-1.1-0.2-1.6,0-3.4-0.3c-1.7-0.3-2-0.7-2.6-0.5c-0.8,0.2-1.7,1.2-2.3,4.7c-0.5-1.4-1.4-2.2-2.3-2.2c-0.2,0-0.6,0.1-0.9,0.3
						C1175.8,321.9,1176.2,323.9,1178.3,326.1z"/>
				</g>
			</g>
			
				<linearGradient id="SVGID_27_" gradientUnits="userSpaceOnUse" x1="1015.7958" y1="-334.7173" x2="1033.4742" y2="-334.7173" gradientTransform="matrix(0.872 0.4894 -0.4894 0.872 169.0296 281.3817)">
				<stop  offset="0" style="stop-color:#444B8C"/>
				<stop  offset="0.9964" style="stop-color:#26264F"/>
			</linearGradient>
			<path class="st28" d="M1221.1,483.3l3.8,1.3c0,0,7.5,7.7,8.2,11.7c0.5,2.7-4.2,1.1-7.4-0.2c-1.9-0.8-3.5-2.3-4.5-4.2
				C1219.6,489,1218.1,484.8,1221.1,483.3z"/>
			<linearGradient id="SVGID_28_" gradientUnits="userSpaceOnUse" x1="1152.5917" y1="387.443" x2="1176.6869" y2="333.9631">
				<stop  offset="0" style="stop-color:#AA80F9"/>
				<stop  offset="0.9964" style="stop-color:#6165D7"/>
			</linearGradient>
			<path class="st29" d="M1184.3,393c-1.6-1.8-2-4.3-1.7-7.3c1.4-3.4,6-16.5-0.4-28.5c-1.1-2-5.8-10.9-12.5-11
				c-4.4-0.1-8.6,3.7-13.3,7.8c-4.6,4.1-5.2,6-6.7,5.9c-2.5-0.1-5.8-5.7-8.7-32.1c0,0,0,0,0,0c-16.9,26.1-24.1,48.6-27.6,63.9
				c-5.1,22.6-3.3,35.6,1,37.2c1.1,0.4,2.1,0.1,6.2,0.8c5.6,1,7.7,2.4,9.5,2.7c6.8,1.1,10.9-11.7,20.6-20.3
				c15.6-13.8,38.3-10.1,38.4-15C1189.2,395.4,1186.3,395.3,1184.3,393z"/>
			
				<linearGradient id="SVGID_29_" gradientUnits="userSpaceOnUse" x1="-1370.6621" y1="819.4934" x2="-1363.687" y2="805.0565" gradientTransform="matrix(-0.9816 0.1909 0.1909 0.9816 -276.6677 -55.9711)">
				<stop  offset="0" style="stop-color:#FFC444"/>
				<stop  offset="0.9964" style="stop-color:#F36F56"/>
			</linearGradient>
			<path class="st30" d="M1222.3,477.9l2,6.7c-0.2,0.4-2.2,1.5-3.9,0.8l-2.9-6.5L1222.3,477.9z"/>
			
				<linearGradient id="SVGID_30_" gradientUnits="userSpaceOnUse" x1="1793.0605" y1="413.136" x2="1731.1404" y2="481.7245" gradientTransform="matrix(1 7.100000e-03 -7.100000e-03 1 -586.5275 -20.1844)">
				<stop  offset="0" style="stop-color:#444B8C"/>
				<stop  offset="0.9964" style="stop-color:#26264F"/>
			</linearGradient>
			<path class="st31" d="M1111.4,410.6c-3.4,7-0.6,16.3,3.9,22c9.6,12.2,31.2,11.1,44.7,6.7c16.5-5.3,20.2-15.3,26.7-12.8
				c10,3.9,2.7,28.6,20.7,48.8c3.1,3.5,6,5.9,7.9,7.3c3.2-1.3,6.4-2.6,9.6-3.9c0.6-14.2-1.2-25.7-3.1-33.6
				c-2.6-11.1-5.2-22.2-14.1-33.2c-3.7-4.5-10.1-12.6-21.2-16.9c-9.7-3.8-21.1-1.5-43.4,3.1C1116.3,403.7,1113,407.4,1111.4,410.6z"
				/>
			
				<rect x="1167" y="345.2" transform="matrix(0.4473 -0.8944 0.8944 0.4473 335.9111 1234.9452)" class="st32" width="0.4" height="1"/>
			<linearGradient id="SVGID_31_" gradientUnits="userSpaceOnUse" x1="1150.6324" y1="379.4023" x2="1144.8292" y2="329.3371">
				<stop  offset="0" style="stop-color:#AA80F9"/>
				<stop  offset="0.9964" style="stop-color:#6165D7"/>
			</linearGradient>
			<path class="st33" d="M1141.2,327.8c0,0-21.2,7.8-23.5,36.8c-2.4,29,15.1,31.6,22.5,34.2c7.3,2.6,19.1,0.3,26.1-14.6
				c7.1-14.9,12.1-45.1,12.1-45.1l-3.9-1.6c0,0-17.6,34.1-26.3,31.7s1.6-25.1,1.6-25.1C1153.9,330.6,1151.3,324.8,1141.2,327.8z"/>
			<linearGradient id="SVGID_32_" gradientUnits="userSpaceOnUse" x1="1182.13" y1="398.0199" x2="1203.6035" y2="350.3594">
				<stop  offset="0" style="stop-color:#AA80F9"/>
				<stop  offset="0.9964" style="stop-color:#6165D7"/>
			</linearGradient>
			<path class="st34" d="M1193.3,332.1c0,0,16.8,13.7,17.6,28.6s-3.9,25.9-6.3,25.1c-2.4-0.8-11.8-29.8-11.8-29.8L1193.3,332.1z"/>
			<linearGradient id="SVGID_33_" gradientUnits="userSpaceOnUse" x1="1190.4679" y1="333.2783" x2="1193.3083" y2="348.7542">
				<stop  offset="0" style="stop-color:#FFC444"/>
				<stop  offset="0.9964" style="stop-color:#F36F56"/>
			</linearGradient>
			<path class="st35" d="M1194.8,339.9c0,0-1.4-7.9-4.9-7.8s-2.9,3-1.1,3.6c1.8,0.6,4.2,4.2,4.2,4.2H1194.8z"/>
			<linearGradient id="SVGID_34_" gradientUnits="userSpaceOnUse" x1="1198.6801" y1="354.5456" x2="1202.9081" y2="393.5487">
				<stop  offset="0" style="stop-color:#AA80F9"/>
				<stop  offset="0.9964" style="stop-color:#6165D7"/>
			</linearGradient>
			<path class="st36" d="M1192.5,339.9l3.1-0.8c0,0,8.2,13.7,10.6,20s7.5,29-3.1,29C1185.8,388.1,1192.5,339.9,1192.5,339.9z"/>
			<linearGradient id="SVGID_35_" gradientUnits="userSpaceOnUse" x1="1178.7568" y1="332.6112" x2="1181.0132" y2="344.9043">
				<stop  offset="0" style="stop-color:#FFC444"/>
				<stop  offset="0.9964" style="stop-color:#F36F56"/>
			</linearGradient>
			<path class="st37" d="M1175.2,337.9c0,0,3-6.6,5.5-6.6s4,2.4,1.7,4c-2.4,1.6-4.9,3.5-4.9,3.5S1175.8,338.9,1175.2,337.9z"/>
		</g>
	</g>
	<g>
		<linearGradient id="SVGID_36_" gradientUnits="userSpaceOnUse" x1="1122.0518" y1="830" x2="1143.696" y2="830">
			<stop  offset="0" style="stop-color:#311944"/>
			<stop  offset="1" style="stop-color:#6B3976"/>
		</linearGradient>
		<path class="st38" d="M1138.9,825.8c0,0-13.1,4.7-16.1,6.5c-3,1.8,3.3,2.2,7.2,1.9c3.9-0.2,11.8,0.1,13.2-1.6
			C1144.8,830.9,1142.1,825.6,1138.9,825.8z"/>
		<linearGradient id="SVGID_37_" gradientUnits="userSpaceOnUse" x1="1142.5115" y1="836.543" x2="1136.6345" y2="775.8151">
			<stop  offset="0" style="stop-color:#FFC444"/>
			<stop  offset="0.9964" style="stop-color:#F36F56"/>
		</linearGradient>
		<path class="st39" d="M1139.2,820.7l-1.2,5.3c-0.2,1,0.4,1.9,1.4,2.1l0.9,0.2c0.8,0.2,1.6-0.2,1.9-0.9l2.5-5.1L1139.2,820.7z"/>
		<linearGradient id="SVGID_38_" gradientUnits="userSpaceOnUse" x1="1137.6324" y1="760.4161" x2="1182.1407" y2="760.4161">
			<stop  offset="0" style="stop-color:#AA80F9"/>
			<stop  offset="0.9964" style="stop-color:#6165D7"/>
		</linearGradient>
		<path class="st40" d="M1153.3,699.2c-2.6,7.7-5.9,19.3-7.8,33.7c-2.2,16.7-0.9,25.9-1.6,42.3c-0.4,11.5-1.8,27.9-6.3,47.8
			c2.6,0.5,5.2,1,7.8,1.6c5.3-7,12.3-18,16.5-32.9c2-7.3,1.3-8,3.9-21.2c1.1-5.3,2.5-11.5,10.2-40c6.2-22.8,7.5-27.1,4.7-30.6
			C1175.4,693.5,1161,696.9,1153.3,699.2z"/>
		<linearGradient id="SVGID_39_" gradientUnits="userSpaceOnUse" x1="1137.6324" y1="760.4163" x2="1182.1407" y2="760.4163">
			<stop  offset="0" style="stop-color:#AA80F9"/>
			<stop  offset="0.9964" style="stop-color:#6165D7"/>
		</linearGradient>
		<path class="st41" d="M1180.7,700c-4.3-5.2-14.5-4-22.3-2.2c7.1,16.1,6.7,27.7,4.6,35.9c-2.1,8.3-5.7,11.6-7.8,23.5
			c-2.8,15.9,1.5,22.1,0,32.9c-1,7.3-4.7,17-16.6,27.8c-0.3,1.7-0.7,3.4-1.1,5.1c2.6,0.5,5.2,1,7.8,1.6c5.3-7,12.3-18,16.5-32.9
			c2-7.3,1.3-8,3.9-21.2c1.1-5.3,2.5-11.5,10.2-40C1182.2,707.8,1183.6,703.5,1180.7,700z"/>
		<linearGradient id="SVGID_40_" gradientUnits="userSpaceOnUse" x1="1199.627" y1="833.1343" x2="1221.2712" y2="833.1343">
			<stop  offset="0" style="stop-color:#311944"/>
			<stop  offset="1" style="stop-color:#6B3976"/>
		</linearGradient>
		<path class="st42" d="M1216.5,828.9c0,0-13.1,4.7-16.1,6.5c-3,1.8,3.3,2.2,7.2,1.9c3.9-0.2,11.8,0.1,13.2-1.6
			C1222.3,834.1,1219.6,828.7,1216.5,828.9z"/>
		<linearGradient id="SVGID_41_" gradientUnits="userSpaceOnUse" x1="1216.1144" y1="830.0268" x2="1210.2375" y2="769.2988">
			<stop  offset="0" style="stop-color:#FFC444"/>
			<stop  offset="0.9964" style="stop-color:#F36F56"/>
		</linearGradient>
		<path class="st43" d="M1212.1,824.6c-0.7,0.4,3.1,6.3,3.1,6.3s2.4,0.8,3.9,0v-7.1C1219.1,823.8,1214.4,823,1212.1,824.6z"/>
		<linearGradient id="SVGID_42_" gradientUnits="userSpaceOnUse" x1="1171.322" y1="757.8973" x2="1222.0862" y2="757.8973">
			<stop  offset="0" style="stop-color:#AA80F9"/>
			<stop  offset="0.9964" style="stop-color:#6165D7"/>
		</linearGradient>
		<path class="st44" d="M1171.3,700.8c-0.1,7.2,0.4,18.2,3.1,31.3c3.5,16.8,8.8,27,17.2,46.2c4.8,11.1,11.8,27.6,19.6,48.6
			c3.1-0.3,6.3-0.5,9.4-0.8c1.5-8.5,2.5-21.1-0.8-35.3c-3.2-13.8-8.6-21.2-12.5-29.8c-5.7-12.5-10.1-32-3.1-61.9
			c-0.4-0.8-4.6-8.9-13.3-10.2C1183.1,687.9,1174.9,692.6,1171.3,700.8z"/>
		<path class="st15" d="M1114.1,620.1c3,5.6,23.7-20.4,31.3-25.1c9.4-5.8,4.7,36.8,4.7,36.8l-25.1,18.8L1114.1,620.1z"/>
		<linearGradient id="SVGID_43_" gradientUnits="userSpaceOnUse" x1="1114.1249" y1="622.5455" x2="1151.3573" y2="622.5455">
			<stop  offset="0" style="stop-color:#AA80F9"/>
			<stop  offset="0.9964" style="stop-color:#6165D7"/>
		</linearGradient>
		<path class="st45" d="M1114.1,620.1c3,5.6,23.7-20.4,31.3-25.1c9.4-5.8,4.7,36.8,4.7,36.8l-25.1,18.8L1114.1,620.1z"/>
		<path class="st15" d="M1140.8,607.5c3.2,13.4,4.7,25.2,5.5,34.5c1.4,16.8,2.5,29.8-0.8,46.2c-3.2,16.3-8.4,24.1-4.7,27.4
			c4.8,4.3,15.1-7.1,31.3-3.9c7.3,1.4,7.4,4.2,18,7.1c8.7,2.4,18.8,5.1,23.5,0.8c4.1-3.7,1.9-10.7-3.9-35.3
			c-6.1-26.1-4.3-21.1-9.4-40.7c-7.4-28.9-9.9-34.3-14.1-40c0,0-8.5-11.6-21.2-16.5c-5.4-2.1-9.1-1.8-11-1.6c-1,0.2-4.7,0.8-7.8,3.1
			C1141.3,592.6,1139.3,599.9,1140.8,607.5z"/>
		<linearGradient id="SVGID_44_" gradientUnits="userSpaceOnUse" x1="1149.5315" y1="590.665" x2="1151.0986" y2="575.5809">
			<stop  offset="0" style="stop-color:#FFC444"/>
			<stop  offset="0.9964" style="stop-color:#F36F56"/>
		</linearGradient>
		<path class="st46" d="M1147.8,580.1c0,0,3.9,5.5,7.8,6.3c3.9,0.8-10.2,3.1-11.8,8.6c0,0,0.5-3.7,1.6-5.4c0.4-0.7,0.5-1.6,0.1-2.3
			l-1.7-4L1147.8,580.1z"/>
		<g>
			
				<linearGradient id="SVGID_45_" gradientUnits="userSpaceOnUse" x1="-108.6088" y1="429.7846" x2="-119.7618" y2="401.4583" gradientTransform="matrix(1 3.700000e-03 -3.700000e-03 1 1264.8887 166.9489)">
				<stop  offset="0" style="stop-color:#311944"/>
				<stop  offset="1" style="stop-color:#6B3976"/>
			</linearGradient>
			<path class="st47" d="M1138.3,575.8c-1.4-1.8-1.5-5.1,0.1-7.1c1.4-1.8,3.6-2,4.9-2.2c3.8-0.4,8.5,1.1,10.2,4.6
				c1,2.1-1.1,6.3-1.5,7.1c-0.4,0.9-1.1,1.2-1.7,1.8c-0.9,0.9-2.2,2.4-4.5,4.8c-0.2-0.7-0.4-1.6-0.9-2.6c-0.2-0.4-0.8-1.8-1.8-3
				C1141.2,576.8,1139.6,577.5,1138.3,575.8z"/>
			
				<linearGradient id="SVGID_46_" gradientUnits="userSpaceOnUse" x1="-659.0737" y1="387.8596" x2="-659.5866" y2="429.1819" gradientTransform="matrix(-0.9979 -6.490000e-02 -6.490000e-02 0.9979 512.4673 146.0405)">
				<stop  offset="0" style="stop-color:#FFC444"/>
				<stop  offset="0.9964" style="stop-color:#F36F56"/>
			</linearGradient>
			<path class="st48" d="M1149,582.8c0,0-2.5,4.1-7.4,3.7c-4.4-0.3-5.1-10.2-2.2-12.3c0.9-0.7,2.8-1,4.4-0.6c0.9,0.3,1.2,0.6,2.7,1
				c1.4,0.4,1.8,0.2,2.2,0.6c0.5,0.4,0.9,1.5,0,4.4c0.8-0.9,1.9-1.2,2.6-0.8c0.1,0.1,0.4,0.3,0.6,0.6
				C1152.4,580.5,1151.3,581.9,1149,582.8z"/>
			
				<linearGradient id="SVGID_47_" gradientUnits="userSpaceOnUse" x1="-112.016" y1="431.141" x2="-123.1802" y2="402.7859" gradientTransform="matrix(1 3.700000e-03 -3.700000e-03 1 1264.8887 166.9489)">
				<stop  offset="0" style="stop-color:#311944"/>
				<stop  offset="1" style="stop-color:#6B3976"/>
			</linearGradient>
			<path class="st49" d="M1148.8,574.6c-0.2,0.2,0.4,1,0.5,2.1c0.1,2.2-2.1,4.8-4.4,5c-1.3,0.1-1.7-0.7-3.9-0.9
				c-1.4-0.1-2.5,0-3.2,0.2c-0.7,2.4,0,4.8,1.6,5.9c1.7,1.2,3.9,0.5,4.8,0.2c0.6-0.2,2.6-0.8,3.6-2.7c1.1-1.9,0-3,1.3-4.3
				c0.6-0.6,1.4-0.9,2.2-2.2c0.2-0.3,0.4-0.6,0.4-0.8C1150.6,575.9,1149.1,574.4,1148.8,574.6z"/>
			
				<linearGradient id="SVGID_48_" gradientUnits="userSpaceOnUse" x1="-122.9425" y1="414.0559" x2="-122.3619" y2="419.2321" gradientTransform="matrix(1 3.700000e-03 -3.700000e-03 1 1264.8887 166.9489)">
				<stop  offset="0" style="stop-color:#FFC444"/>
				<stop  offset="1" style="stop-color:#F36F56"/>
			</linearGradient>
			<path class="st50" d="M1139.4,581.9c0,0,1,0.5,2.6,0.4c0.1,0,0.2,0,0.2,0.1c0,0.2-1,0.9-2,0.6c-0.7-0.2-1.2-0.8-1.1-1
				C1139.1,581.9,1139.2,581.9,1139.4,581.9z"/>
		</g>
		<g>
			
				<linearGradient id="SVGID_49_" gradientUnits="userSpaceOnUse" x1="1060.3385" y1="563.1534" x2="1051.9802" y2="860.3944" gradientTransform="matrix(1 1.200000e-03 -1.200000e-03 1 1.2264 -0.5257)">
				<stop  offset="0" style="stop-color:#444B8C"/>
				<stop  offset="0.9964" style="stop-color:#26264F"/>
			</linearGradient>
			<path class="st51" d="M1029.6,563.2c-11.3,2.3-24.8,5.1-35.3,16.4c-11,12-14.6,29.1-17.3,42.3c-1,4.8-2.1,10.4-2.4,16.5
				c-0.8,21.5,9.7,45.6,27.4,61.2c25.3,22.4,62.8,25.1,91.7,11.9c6.2-2.8,40.9-19.6,47.9-58.7c7.1-39.6-20.5-67.7-23.4-70.6
				C1086.9,551.5,1043,560.5,1029.6,563.2z"/>
			
				<linearGradient id="SVGID_50_" gradientUnits="userSpaceOnUse" x1="1056.7841" y1="563.0533" x2="1048.4258" y2="860.2944" gradientTransform="matrix(1 1.200000e-03 -1.200000e-03 1 1.2264 -0.5257)">
				<stop  offset="0" style="stop-color:#444B8C"/>
				<stop  offset="0.9964" style="stop-color:#26264F"/>
			</linearGradient>
			<path class="st52" d="M1075.3,679.6c-9.3-10.1,4.6-26.7-5.4-48.6c-12.9-28.2-48.4-27.5-50.9-46.3c-0.7-4.9,0.9-12,10.3-21.5
				c-11.2,2.3-24.6,5.1-35,16.4c-11,12-14.6,29.1-17.3,42.3c-1,4.8-2.1,10.4-2.4,16.5c-0.8,21.5,9.7,45.6,27.4,61.2
				c25.3,22.4,62.8,25.1,91.7,11.9c5-2.3,28.3-13.6,41-38.2C1097.4,688.5,1081.7,686.6,1075.3,679.6z"/>
			
				<linearGradient id="SVGID_51_" gradientUnits="userSpaceOnUse" x1="1049.7211" y1="559.8687" x2="1045.5853" y2="706.9479" gradientTransform="matrix(1 1.200000e-03 -1.200000e-03 1 1.2264 -0.5257)">
				<stop  offset="0" style="stop-color:#AA80F9"/>
				<stop  offset="0.9964" style="stop-color:#6165D7"/>
			</linearGradient>
			<path class="st53" d="M1082.8,573.3c-0.7-4.5-2.1-9.1-6-11.9c-0.3-0.2-0.7,0.3-0.4,0.5c3.9,3.1,4.8,8.4,5.3,13
				c0.5,4.8,0.7,9.8,0.3,14.6c-0.8,12.6-4.8,25-9,36.8c-8.1,22.8-19.6,45-35.4,63.4c-5.3,6.1-15.4,17.9-24.6,14.7
				c-1.1-0.4-1.6,1.4-0.5,1.8c8.3,2.9,16.9-5.2,22.2-10.5c8.4-8.4,15.3-18.4,21.4-28.6c6.8-11.4,12.5-23.4,17.1-35.8
				c4.8-12.9,9.3-26.5,10.4-40.3C1084,585.2,1083.7,579.1,1082.8,573.3z"/>
			
				<linearGradient id="SVGID_52_" gradientUnits="userSpaceOnUse" x1="1059.2866" y1="560.6816" x2="1055.001" y2="713.09" gradientTransform="matrix(1 1.200000e-03 -1.200000e-03 1 1.2264 -0.5257)">
				<stop  offset="0" style="stop-color:#AA80F9"/>
				<stop  offset="0.9964" style="stop-color:#6165D7"/>
			</linearGradient>
			<path class="st54" d="M1095.1,578.1c-1.3-3-2.8-6-4.5-8.9c-1.5-2.4-2.5-4-4.6-5.9c-0.3-0.3-1.1-0.3-0.8,0
				c1.7,1.7,2.5,3.3,3.7,5.3c1.5,2.6,2.8,5.3,4.1,8.1c2.8,6.3,3.9,12.8,4.2,19.7c0.5,11.9-2,23.6-6.1,34.7
				c-4.4,12.1-10.7,22.7-17.5,33.5c-6.3,10.1-12.9,20-20.7,29.1c-7.3,8.6-18.4,19.7-30.1,17.4c8.4-1.6,16.3-7.4,22.3-13
				c8.8-8.2,15.9-18.2,22.2-28.4c6.5-10.6,12.1-21.8,16.9-33.2c4.8-11.5,8.8-22.9,9.1-35.5c0.2-6.7-0.5-13.5-1.9-20
				c-0.7-3.3-1.6-6.5-2.9-9.6c-1.3-3-3.8-4.8-4-8.1c0-0.4-0.8-1.2-0.8-0.8c-0.1,2.6,0.7,3.4,1.9,5.6c1.9,3.6,3.1,7.4,4,11.3
				c1.8,7.5,2.6,15.3,2.2,23c-0.7,15.8-7.3,30.5-14,44.6c-6.5,13.6-14.1,27.1-23.5,38.9c-8.6,10.8-20.3,22.4-34.7,24.3
				c-0.5-0.2-1.1-0.5-1.6-0.7c1.7-0.5,3.4-0.7,5.1-1.4c2.9-1.2,5.7-2.9,8.3-4.6c4.5-3.1,8.4-6.9,12.2-10.9
				c8.1-8.5,15.2-18,21.4-27.9c12.3-19.6,21.7-41.9,23.9-65.1c1.3-13.4-0.3-25.4-6.9-37.3c-0.1-0.2-0.6-0.1-0.5,0.2
				c2.5,6.8,5.4,13.5,6.1,20.8c0.7,7.4,0.1,15.1-1.1,22.4c-2.2,14.3-7,28.2-13.4,41.2c-6.3,12.9-14.1,25.2-23.2,36.3
				c-4.4,5.3-9.1,10.6-14.2,15.1c-2.6,2.3-5.4,4.4-8.4,6.1c-1.9,1.1-4,2.3-6.1,2.9c-0.5,0.2-4.3,1.3-4.6,0.8c-0.6-0.7-1.5,0.3-1,1
				l0,0c-0.1,0.3-0.1,0.7,0.3,0.9c0.9,0.5,1.7,1,2.6,1.4c0.1,0.1,0.3,0.2,0.5,0.2c9.8,4,19.2-1.4,27-8.3
				c9.4-8.4,17.1-19.3,23.9-29.8c14.5-22.3,28.8-46.1,28.9-73.6C1098.8,592.6,1098,584.9,1095.1,578.1z"/>
			
				<linearGradient id="SVGID_53_" gradientUnits="userSpaceOnUse" x1="1062.7858" y1="566.8254" x2="1059.0585" y2="699.3777" gradientTransform="matrix(1 1.200000e-03 -1.200000e-03 1 1.2264 -0.5257)">
				<stop  offset="0" style="stop-color:#FFC444"/>
				<stop  offset="0.9964" style="stop-color:#F36F56"/>
			</linearGradient>
			<path class="st55" d="M1109.1,699.9c-13.8-3.9-25.8-13-36.2-22.6c-10.3-9.5-19.2-20.4-27-32c-8.3-12.3-15.5-25.4-21.1-39.2
				c-2.7-6.6-5.1-13.4-7-20.3c-1-3.7-2.1-7.6-2.5-11.5c-0.3-2.7-0.2-5.3-1.1-7.9c-0.2-0.6-1.2-0.4-1,0.3c1.5,4.9,1.1,10.4,2.2,15.4
				c1.3,5.7,3,11.4,5,16.9c4.1,11.5,9.3,22.7,15.4,33.3c10.9,19,24.5,36.8,41.3,51c9.3,7.8,19.7,14.9,31.5,18.3
				C1109.7,701.8,1110.1,700.2,1109.1,699.9z"/>
			
				<linearGradient id="SVGID_54_" gradientUnits="userSpaceOnUse" x1="1059.4603" y1="566.834" x2="1055.601" y2="704.0833" gradientTransform="matrix(1 1.200000e-03 -1.200000e-03 1 1.2264 -0.5257)">
				<stop  offset="0" style="stop-color:#FFC444"/>
				<stop  offset="0.9964" style="stop-color:#F36F56"/>
			</linearGradient>
			<path class="st56" d="M1104.1,704.6c-1.6-0.6-3-0.4-4.7-0.8c-1.9-0.5-3.7-1.6-5.3-2.6c-3.5-2-6.7-4.2-9.8-6.8
				c-5.2-4.4-10-9.3-14.8-14.2c-9.8-10-19-20.5-27.1-31.9c-8.1-11.3-15.1-23.5-20.6-36.2c-6.1-14-8.9-30.4-9.5-45.5
				c0-0.6-0.9-0.6-0.9,0c-1.1,47.5,30,88.4,62.2,120.2c4.4,4.4,8.9,8.7,14,12.4c2.6,1.9,5.4,3.6,8.3,5.1c2.6,1.3,5,1.1,7.8,1.9
				C1104.7,706.5,1105,705,1104.1,704.6z"/>
			
				<linearGradient id="SVGID_55_" gradientUnits="userSpaceOnUse" x1="1055.9617" y1="567.3243" x2="1052.0337" y2="707.0144" gradientTransform="matrix(1 1.200000e-03 -1.200000e-03 1 1.2264 -0.5257)">
				<stop  offset="0" style="stop-color:#FFC444"/>
				<stop  offset="0.9964" style="stop-color:#F36F56"/>
			</linearGradient>
			<path class="st57" d="M1099.4,707.5c-13.9-4.8-24-16.1-34-26.5c-9.8-10.2-19.3-20.9-27.5-32.5c-8.4-11.8-15.4-24.6-20.2-38.2
				c-5-14.1-6.8-28.4-7.8-43.2c0-0.6-0.9-0.6-0.9,0c-1.3,22.9,6.4,46.8,17.5,66.6c11.3,20.2,26.8,37.5,43,53.9
				c8.6,8.8,17.6,17.4,29.4,21.5C1099.9,709.4,1100.4,707.8,1099.4,707.5z"/>
			
				<linearGradient id="SVGID_56_" gradientUnits="userSpaceOnUse" x1="1051.6726" y1="570.0766" x2="1047.7394" y2="709.9525" gradientTransform="matrix(1 1.200000e-03 -1.200000e-03 1 1.2264 -0.5257)">
				<stop  offset="0" style="stop-color:#FFC444"/>
				<stop  offset="0.9964" style="stop-color:#F36F56"/>
			</linearGradient>
			<path class="st58" d="M1093.8,710.4c-6.6-3.8-12.3-8.6-18-13.6c-5-4.4-10.2-8.6-15-13.1c-10.1-9.4-19.2-19.9-26.9-31.4
				c-7.9-11.9-13.6-24.7-18.6-38.1c-2.5-6.7-4.8-13.5-6.4-20.4c-0.9-4-1.6-8-1.7-12.1c-0.1-3.9,0.7-7.8,0.3-11.7
				c-0.1-0.7-1.1-0.7-1.1,0c0,5.9-1.1,11.5-0.3,17.4c0.8,5.8,2.4,11.5,4.1,17.1c3.5,10.9,7.6,21.8,12.7,32.1
				c9.8,19.8,24.1,37.2,40.6,51.8c9.4,8.3,18.7,17.2,29.5,23.5C1093.9,712.4,1094.8,711,1093.8,710.4z"/>
			
				<linearGradient id="SVGID_57_" gradientUnits="userSpaceOnUse" x1="1057.3014" y1="626.8746" x2="1056.6709" y2="649.2945" gradientTransform="matrix(1 1.200000e-03 -1.200000e-03 1 1.2264 -0.5257)">
				<stop  offset="0" style="stop-color:#FF9085"/>
				<stop  offset="1" style="stop-color:#FB6FBB"/>
			</linearGradient>
			<path class="st59" d="M1141.5,651.1c-4.3-4-9.6-6.5-15.1-8.7c-6.9-2.7-14-5-21.2-6.8c-14.5-3.5-29.4-6-44.2-7.4
				c-15.3-1.5-30.9-1.4-46.2,0.1c-7.4,0.7-14.8,1.6-21.9,3.8c-3.6,1.1-7.1,2.5-10.6,3.6c-3.3,1-6.1,2.6-9.3,3.9
				c-0.4,0.2-0.3,0.9,0.2,0.7c6.3-2.2,12.5-4.4,18.8-6.4c7.4-2.4,15.2-3.4,22.9-4.1c14.3-1.3,28.9-1.5,43.2-0.3
				c14.7,1.3,29.4,3.7,43.8,7c7,1.6,13.9,3.6,20.7,6.2c5.9,2.2,12,4.6,16.8,8.8c-0.1,0.5,0.2,1,0.8,1l0.7,0
				C1141.6,652.5,1142,651.6,1141.5,651.1z"/>
			
				<linearGradient id="SVGID_58_" gradientUnits="userSpaceOnUse" x1="1057.6458" y1="623.9188" x2="1057.1233" y2="642.5017" gradientTransform="matrix(1 1.200000e-03 -1.200000e-03 1 1.2264 -0.5257)">
				<stop  offset="0" style="stop-color:#FF9085"/>
				<stop  offset="1" style="stop-color:#FB6FBB"/>
			</linearGradient>
			<path class="st60" d="M1142.1,644c-4.3-3.8-9.9-5.6-15.2-7.3c-7.6-2.4-15.4-4-23.2-5.6c-14.7-3-29.7-5.1-44.6-6.1
				c-28.2-1.9-60.3-2.2-85.9,11.2c-0.5,0.2-0.1,0.9,0.4,0.7c26.3-11.5,55.8-12.1,84.1-10.3c14.9,0.9,29.6,2.9,44.2,5.8
				c6.8,1.4,13.6,2.8,20.3,4.6c3,0.8,6,1.8,8.9,2.8c1.8,0.7,3.6,1.4,5.3,2.3c1.6,0.8,2.7,2,4.6,1.9c-1.1,0-1.1,1.7,0,1.7
				c0.6,0,0.9-0.1,1.2-0.7C1142.5,644.7,1142.4,644.3,1142.1,644z"/>
			
				<linearGradient id="SVGID_59_" gradientUnits="userSpaceOnUse" x1="1058.9338" y1="621.7188" x2="1058.4169" y2="640.1034" gradientTransform="matrix(1 1.200000e-03 -1.200000e-03 1 1.2264 -0.5257)">
				<stop  offset="0" style="stop-color:#FF9085"/>
				<stop  offset="1" style="stop-color:#FB6FBB"/>
			</linearGradient>
			<path class="st61" d="M1144.2,641.9c-6.5-6.3-15.7-8.9-24.3-10.9c-11.3-2.6-22.7-4.7-34.2-6.1c-25-3.1-50.9-4-76.1-1.5
				c-12.5,1.3-25.3,3.2-36.1,10c-0.5,0.3-0.1,1,0.4,0.8c13-7.1,28.5-8.8,43.1-9.8c15-1,30.2-0.8,45.2,0c15.6,0.9,31.2,2.7,46.5,5.8
				c11.5,2.3,25.5,4.3,34.2,12.8C1143.8,643.8,1145,642.7,1144.2,641.9z"/>
			
				<linearGradient id="SVGID_60_" gradientUnits="userSpaceOnUse" x1="1059.1737" y1="617.4548" x2="1058.645" y2="636.2579" gradientTransform="matrix(1 1.200000e-03 -1.200000e-03 1 1.2264 -0.5257)">
				<stop  offset="0" style="stop-color:#FF9085"/>
				<stop  offset="1" style="stop-color:#FB6FBB"/>
			</linearGradient>
			<path class="st62" d="M1143.8,637.9c-3.9-3-7.4-5.8-12.1-7.4c-5.8-1.9-11.6-3.6-17.6-4.8c-11.6-2.4-23.4-4-35.2-4.8
				c-13-0.8-25.9-2.4-38.8-3.1c-6.1-0.3-12.2-0.8-18.3-0.5c-5.7,0.2-11.4,1.2-17.1,2.1c-6.8,1-13.1,3.3-19.6,5.4
				c-3.5,1.1-7.9,1.6-10.7,4.2c-0.3,0.3,0.1,0.9,0.5,0.7c4-2.7,10.4-3.4,15-4.9c6.9-2.3,13.8-3.6,21-4.6c15.3-2.2,31.2-0.9,46.5,0.6
				c15.4,1.5,30.9,2.2,46.1,4.7c7.1,1.2,14.2,2.6,21.1,4.6c3.5,1.1,7.4,2,10.7,3.7c2.8,1.5,5.1,3.7,7.6,5.6
				C1143.8,640,1144.6,638.5,1143.8,637.9z"/>
			<g>
				
					<linearGradient id="SVGID_61_" gradientUnits="userSpaceOnUse" x1="1012.523" y1="633.8802" x2="1059.959" y2="633.8802" gradientTransform="matrix(1 1.200000e-03 -1.200000e-03 1 1.2264 -0.5257)">
					<stop  offset="3.597120e-03" style="stop-color:#E38DDD"/>
					<stop  offset="1" style="stop-color:#9571F6"/>
				</linearGradient>
				<path class="st63" d="M1060,560.6c-7.4,4.1-10.9,13.5-14.5,20.6c-5.6,11.1-11.1,22.2-15,34c-7.9,23.5-12.8,47.3-16.2,71.8
					c-0.6,4.2-1.2,8.3-1.3,12.5c-0.1,2.8-0.3,6.5,1.8,8.8c0.7,0.8,1.9-0.4,1.2-1.2c-2.7-3-1.2-10-0.8-13.6c0.5-4.4,1.1-8.9,1.7-13.3
					c1.9-15.2,5.1-30.2,9.1-45c4-14.7,8.8-29,15.4-42.7c2.6-5.5,5.4-11,8.2-16.4c2.7-5.3,5.8-11.5,10.9-14.9
					C1060.7,561,1060.4,560.4,1060,560.6z"/>
				
					<linearGradient id="SVGID_62_" gradientUnits="userSpaceOnUse" x1="1009.9138" y1="633.098" x2="1054.4375" y2="633.098" gradientTransform="matrix(1 1.200000e-03 -1.200000e-03 1 1.2264 -0.5257)">
					<stop  offset="3.597120e-03" style="stop-color:#E38DDD"/>
					<stop  offset="1" style="stop-color:#9571F6"/>
				</linearGradient>
				<path class="st64" d="M1054.5,559.8c-3.5,1.9-5.8,6.2-7.8,9.5c-3.4,5.7-6.2,11.8-8.9,17.9c-5.6,12.4-9,25.9-13.3,38.8
					c-4.6,13.6-8.1,27.6-10.6,41.8c-2.3,12.8-5.1,26.5-2.5,39.4c0.2,1.1,1.9,0.6,1.7-0.5c-2.6-13.1,0.4-27.1,2.8-40
					c2.4-13.2,5.6-26.3,9.8-39c4-12.2,7.5-24.8,12.2-36.8c2.4-6.1,5.3-12.2,8.4-18.1c2.2-4.3,4.8-9.6,8.7-12.5
					C1055.2,560.2,1054.9,559.6,1054.5,559.8z"/>
				
					<linearGradient id="SVGID_63_" gradientUnits="userSpaceOnUse" x1="1005.3431" y1="631.191" x2="1049.6428" y2="631.191" gradientTransform="matrix(1 1.200000e-03 -1.200000e-03 1 1.2264 -0.5257)">
					<stop  offset="3.597120e-03" style="stop-color:#E38DDD"/>
					<stop  offset="1" style="stop-color:#9571F6"/>
				</linearGradient>
				<path class="st65" d="M1049.8,558.8c-7.7,10.2-14.8,21.8-19.6,33.7c-4.9,12.3-9.2,25.3-12.4,38.1c-3.3,13.3-6.7,26.8-8.7,40.4
					c-0.9,6.1-1.6,12.2-2.5,18.4c-0.8,5.1-1.4,10.2,0.1,15.2c0.3,1.1,2,0.6,1.7-0.5c-1.7-6.1-0.4-12.4,0.6-18.4
					c0.9-6,1.4-12,2.4-17.9c2.1-12.7,5.2-25.5,8.4-38c3-11.9,7.1-23.9,11.5-35.4c2.4-6.2,5.4-12,8.8-17.7
					c3.4-5.7,7.5-11.3,10.2-17.5C1050.3,558.8,1049.9,558.6,1049.8,558.8z"/>
				
					<linearGradient id="SVGID_64_" gradientUnits="userSpaceOnUse" x1="1001.2514" y1="631.6714" x2="1043.4962" y2="631.6714" gradientTransform="matrix(1 1.200000e-03 -1.200000e-03 1 1.2264 -0.5257)">
					<stop  offset="3.597120e-03" style="stop-color:#E38DDD"/>
					<stop  offset="1" style="stop-color:#9571F6"/>
				</linearGradient>
				<path class="st66" d="M1043.4,560.3c-3.2,5.2-7.5,9.4-10.5,14.7c-3.1,5.6-5.6,11.6-8.1,17.4c-5.1,11.9-7.9,24.2-11.3,36.5
					c-3.5,12.6-7.4,25.2-9.6,38.1c-2,11.7-3.8,25.5,0.2,37c0.3,1,1.7,0.6,1.5-0.4c-5.9-25.3,3.3-51.4,9.9-75.6
					c3.4-12.5,6.4-24.8,11.5-36.8c2.3-5.4,4.6-10.9,7.5-16.1c2.8-5.1,7.2-9.1,9.6-14.4C1044.2,560.3,1043.6,559.9,1043.4,560.3z"/>
			</g>
			<g>
				
					<linearGradient id="SVGID_65_" gradientUnits="userSpaceOnUse" x1="983.9518" y1="630.3546" x2="1117.3209" y2="630.3546" gradientTransform="matrix(1 1.200000e-03 -1.200000e-03 1 1.2264 -0.5257)">
					<stop  offset="0" style="stop-color:#FF9085"/>
					<stop  offset="1" style="stop-color:#FB6FBB"/>
				</linearGradient>
				<path class="st67" d="M1117.3,582.9c-3.8,4.9-6.3,10.7-9.9,15.8c-4.3,6-9.2,11.6-14.3,16.9c-9.7,10.2-20.5,19.5-32.3,27.3
					c-11.5,7.6-23.9,14.1-36.2,20.1c-6.4,3.2-13.2,5.8-19.8,8.7c-3.4,1.5-6.9,2.7-10.5,3.7c-1.9,0.5-6.8,2.8-8.8,2.1
					c-1-0.4-1.5,1.3-0.5,1.7c1.6,0.6,3.3-0.3,4.8-0.7c3.5-1.1,7-1.9,10.5-3.1c6.8-2.4,13.2-5.7,19.9-8.5
					c13.7-5.8,27.3-13.3,39.8-21.4c12.2-7.9,23.3-17.4,33.3-27.8c4.9-5.1,9.5-10.4,13.7-16.1c4.3-5.8,7.3-12.1,10.9-18.3
					C1118,583,1117.5,582.6,1117.3,582.9z"/>
				
					<linearGradient id="SVGID_66_" gradientUnits="userSpaceOnUse" x1="985.545" y1="632.009" x2="1119.6729" y2="632.009" gradientTransform="matrix(1 1.200000e-03 -1.200000e-03 1 1.2264 -0.5257)">
					<stop  offset="0" style="stop-color:#FF9085"/>
					<stop  offset="1" style="stop-color:#FB6FBB"/>
				</linearGradient>
				<path class="st68" d="M1119.6,583.5c-3.4,5.7-5.7,12-9.3,17.7c-3.8,6.1-8.3,11.7-13.1,17c-9.4,10.4-20,19.6-31.9,27
					c-12.1,7.5-25,14.2-37.8,20.5c-6.9,3.4-14,6.9-21.3,9.4c-3.1,1.1-6.3,1.8-9.4,2.8c-3.3,1-6.6,2.5-10.1,2.5c-1,0-1.1,1.6,0,1.6
					c2.9,0,5.4-0.9,8.1-1.8c3.5-1.1,7-2,10.5-3.1c7-2.2,13.8-5.5,20.3-8.7c13.7-6.7,27.5-13.8,40.4-21.9c12-7.5,22.8-16.7,32.2-27.3
					c4.5-5.1,8.8-10.5,12.5-16.3c3.8-6.1,6.4-12.7,9.4-19.2C1120.3,583.5,1119.8,583.2,1119.6,583.5z"/>
				
					<linearGradient id="SVGID_67_" gradientUnits="userSpaceOnUse" x1="987.8668" y1="635.3306" x2="1121.8805" y2="635.3306" gradientTransform="matrix(1 1.200000e-03 -1.200000e-03 1 1.2264 -0.5257)">
					<stop  offset="0" style="stop-color:#FF9085"/>
					<stop  offset="1" style="stop-color:#FB6FBB"/>
				</linearGradient>
				<path class="st69" d="M1121.8,586c-1.1,0.9-1.5,2.9-1.9,4.2c-1.3,3.7-2.6,7.4-4.6,10.7c-3.9,6.6-8.9,12.6-14,18.4
					c-10,11.4-21.3,21.2-34.1,29.4c-12.4,8-25.6,14.8-39,21c-7.3,3.4-14.8,6.6-22.3,9.6c-2.9,1.2-5.8,2.4-8.7,3.5
					c-1.9,0.7-5.7,2.6-7.6,1.3c-0.9-0.6-1.8,0.9-0.9,1.5c2.3,1.6,5.9,0,8.1-0.8c5.1-1.9,10.1-4,15.1-6.1c11.4-4.8,22.7-10,33.7-15.7
					c22.2-11.6,42.2-25.5,58.5-44.7c4-4.7,7.9-9.6,11.2-14.9c1.6-2.6,2.9-5.3,4-8.2c0.7-2.1,1.4-6.9,3.1-8.6
					C1122.6,586.2,1122.1,585.7,1121.8,586z"/>
				
					<linearGradient id="SVGID_68_" gradientUnits="userSpaceOnUse" x1="990.9772" y1="638.249" x2="1123.5168" y2="638.249" gradientTransform="matrix(1 1.200000e-03 -1.200000e-03 1 1.2264 -0.5257)">
					<stop  offset="0" style="stop-color:#FF9085"/>
					<stop  offset="1" style="stop-color:#FB6FBB"/>
				</linearGradient>
				<path class="st70" d="M1123.2,588.3c-8.5,26.8-28,47.8-50.9,63.5c-12.3,8.4-25.6,14.2-38.9,20.7c-6.7,3.3-13.4,6.6-20.1,9.6
					c-3.7,1.7-7.5,3.2-11.4,4.4c-2.8,0.8-6.5,2.4-9.4,1.7c-1.1-0.3-1.5,1.4-0.5,1.7c3.7,0.9,8.1-1,11.6-2.1
					c5.7-1.7,11.1-4.4,16.4-6.9c11.8-5.5,23.7-11,35.3-16.9c19.9-10.3,38.6-24.8,52.3-42.6c7.4-9.6,13.8-20.7,16.4-32.7
					C1124.1,588,1123.3,587.7,1123.2,588.3z"/>
			</g>
		</g>
		<linearGradient id="SVGID_69_" gradientUnits="userSpaceOnUse" x1="1139.4829" y1="654.0258" x2="1215.7261" y2="654.0258">
			<stop  offset="0" style="stop-color:#AA80F9"/>
			<stop  offset="0.9964" style="stop-color:#6165D7"/>
		</linearGradient>
		<path class="st71" d="M1203.8,713.3c7.3-12.2-19.3-30.5-18.8-65.8c0.1-10.2,2.4-12.9,0.8-22.7c-1.9-12-9.5-34.2-25.1-36
			c-8.2-1-15.4,4.1-19.6,8c-0.9,3.3-1.1,7-0.3,10.9c3.2,13.4,4.7,25.2,5.5,34.5c1.4,16.8,2.5,29.8-0.8,46.2
			c-3.2,16.3-8.4,24.1-4.7,27.4c4.8,4.3,15.1-7.1,31.3-3.9c7.3,1.4,7.4,4.2,18,7.1c0.8,0.2,1.6,0.4,2.3,0.6
			C1199.4,718.3,1202.4,715.7,1203.8,713.3z"/>
		<g>
			<linearGradient id="SVGID_70_" gradientUnits="userSpaceOnUse" x1="1124.1304" y1="673.8653" x2="1101.2103" y2="649.9658">
				<stop  offset="0" style="stop-color:#FFC444"/>
				<stop  offset="0.9964" style="stop-color:#F36F56"/>
			</linearGradient>
			<path class="st72" d="M1122.7,667.1c0,0-0.8,0-3.1-3.9c-2.4-3.9-2.4-0.8-0.8,1.6c0,0-1.6,0.8-5.5,0c-3.9-0.8-4.7,0-1.6,2.4
				c3.1,2.4,11,1.6,11,1.6V667.1z"/>
			<path class="st15" d="M1122.7,665.5c-0.5,1.6-1,3.1-1.6,4.7c5.9,3.6,16.8,8.7,29,6.3c24.3-4.9,36.2-36.4,32.9-58
				c-0.3-1.8-3.4-21-13.3-22.7c-4-0.7-8.4,1.7-11,4.7c-4.2,5.1-2.5,11.3-2.4,19.6c0.1,3.2,0.3,27.1-12.5,38.4
				C1141,661,1134.7,665.3,1122.7,665.5z"/>
		</g>
	</g>
	<g>
		<g>
			<ellipse class="st73" cx="401.1" cy="878.6" rx="54.4" ry="22.2"/>
			<path class="st15" d="M455.4,876c0,11.6-24.3,20.9-54.4,20.9c-30,0-54.4-9.4-54.4-20.9c0-11.6,24.3-30.5,54.4-30.5
				C431.1,845.5,455.4,864.5,455.4,876z"/>
			<linearGradient id="SVGID_71_" gradientUnits="userSpaceOnUse" x1="364.0738" y1="865.918" x2="455.4392" y2="865.918">
				<stop  offset="0" style="stop-color:#AA80F9"/>
				<stop  offset="0.9964" style="stop-color:#6165D7"/>
			</linearGradient>
			<path class="st74" d="M455.4,876c0-11.6-24.3-30.5-54.4-30.5c-13.9,0-26.5,4-36.1,9.5c-0.7,1.4-1,2.8-0.9,4.1
				c0.6,6.5,11.2,10.5,17.3,11.8c15.3,3.3,22.8-5.9,35.5-5.5c7.8,0.2,18.7,4.1,31.5,20.8C452.9,883.3,455.4,879.8,455.4,876z"/>
			<path class="st15" d="M404,856c-2.2,0.5-4.2,0.5-6.1,0c-1.7-0.4-2.9-2-2.9-3.8l0-61.3h12.1v61.2C407.1,854,405.8,855.6,404,856z"
				/>
			<linearGradient id="SVGID_72_" gradientUnits="userSpaceOnUse" x1="395.0272" y1="823.6924" x2="407.1166" y2="823.6924">
				<stop  offset="0" style="stop-color:#AA80F9"/>
				<stop  offset="0.9964" style="stop-color:#6165D7"/>
			</linearGradient>
			<path class="st75" d="M404,856c-2.2,0.5-4.2,0.5-6.1,0c-1.7-0.4-2.9-2-2.9-3.8l0-61.3h12.1v61.2C407.1,854,405.8,855.6,404,856z"
				/>
			<g>
				<linearGradient id="SVGID_73_" gradientUnits="userSpaceOnUse" x1="461.0862" y1="810.8369" x2="438.9214" y2="781.9553">
					<stop  offset="0" style="stop-color:#311944"/>
					<stop  offset="1" style="stop-color:#893976"/>
				</linearGradient>
				<path class="st76" d="M337.2,765.1l18.5-11.7c0.8-4.4,9.5-50,44.8-64.3c14.4-5.8,29.8-5.1,38.3-4.8c16.9,0.8,29,1.3,34.8,9.4
					c7.5,10.4-5.1,19.8-2.5,49.5c1.1,12.1,3.7,17.5,0.4,25.5c-4,9.6-13.3,14.9-20.5,17.9c-8.6,5-23.7,12.2-43.6,13.9
					c-33.5,2.9-58.5-11.4-67.1-16.9c-3.8-1.2-6.7-4.4-7.5-8.3C332,771.4,333.8,767.3,337.2,765.1z"/>
				<linearGradient id="SVGID_74_" gradientUnits="userSpaceOnUse" x1="410.5556" y1="746.3218" x2="439.0356" y2="670.8273">
					<stop  offset="0" style="stop-color:#311944"/>
					<stop  offset="1" style="stop-color:#893976"/>
				</linearGradient>
				<path class="st77" d="M442.5,686.8c12.5,0.4,20.3,0.2,24.6,5.8c4.5,5.9,0,10.9-0.9,31.8c-0.8,19.1,2.6,26.6-3.6,37.2
					c0,0-3.1,5.4-8.1,9.4c-17.5,14.3-62.5,14.1-81.5-15.7c-15.1-23.7-8.8-58.7,9-70.3C390.8,679.4,392.8,685.4,442.5,686.8z"/>
				<linearGradient id="SVGID_75_" gradientUnits="userSpaceOnUse" x1="394.6277" y1="759.7881" x2="394.1931" y2="796.7336">
					<stop  offset="0" style="stop-color:#311944"/>
					<stop  offset="1" style="stop-color:#893976"/>
				</linearGradient>
				<path class="st78" d="M335.8,754.7l18.5-11.7c0,0,49.5-16.3,95.2,6.7c5.1,2.6,8.3,7.9,8.3,13.6c0,4.4-2.6,8.4-6.7,10.1
					c-8,5.5-23.6,14.5-45.1,16.8c-34.2,3.7-59.6-11.9-67.1-16.9c-3.8-1.2-6.7-4.4-7.5-8.3C330.7,760.9,332.4,756.8,335.8,754.7z"/>
			</g>
		</g>
		<g>
			<g>
				<g>
					
						<linearGradient id="SVGID_76_" gradientUnits="userSpaceOnUse" x1="4026.8486" y1="546.1411" x2="4242.4644" y2="692.597" gradientTransform="matrix(1 0 0 1 -3672.4539 0)">
						<stop  offset="0" style="stop-color:#311944"/>
						<stop  offset="1" style="stop-color:#6B3976"/>
					</linearGradient>
					<path class="st79" d="M366.2,624c-4.1-2.6-0.4-10.3-0.1-26.7c0.3-20.1-5.1-23.9-0.8-31.8c5.3-9.7,18.5-13.7,27.2-13.8
						c1.9,0,2.4-1.1,18.6,3.1c29.2,7.6,36.5-0.5,49.5,7.5c12.6,7.8,7.1,16.4,19.3,25.5c19.9,14.9,40.7-1.2,54.9,11.2
						c13.4,11.8,13.7,41.7-0.4,58c-16,18.5-44.9,13-64.2,9.3c-4.1-0.8-24.6-5.1-46-20.9c-11.8-8.7-20-18.1-25.1-25
						c-1.2-1.4-3.1-3-5.6-3.3c-3-0.3-5.4,1.5-6.6,2.3C380.8,623.8,370.2,626.6,366.2,624z"/>
					
						<linearGradient id="SVGID_77_" gradientUnits="userSpaceOnUse" x1="-5974.1133" y1="629.3685" x2="-5969.1104" y2="709.7692" gradientTransform="matrix(-1 0 0 1 -5622.1685 0)">
						<stop  offset="0" style="stop-color:#FF9085"/>
						<stop  offset="1" style="stop-color:#FB6FBB"/>
					</linearGradient>
					<path class="st80" d="M382.5,613c-5.2-4.8-23.8,4.4-36.2,16.6c-14.5,14.3-13.4,25.9-26,43.6c-6.3,8.8-4.7,41.5,12.2,30.4
						c11.7-7.7,17.8-17.8,29.4-37.9C373.6,645.6,389.1,618.9,382.5,613z"/>
					
						<linearGradient id="SVGID_78_" gradientUnits="userSpaceOnUse" x1="3931.4919" y1="884.6093" x2="3960.5303" y2="884.6093" gradientTransform="matrix(1 0 0 1 -3672.4539 0)">
						<stop  offset="0" style="stop-color:#311944"/>
						<stop  offset="1" style="stop-color:#6B3976"/>
					</linearGradient>
					<path class="st81" d="M265,884.6l14.5-8.7h6.6c0,0,2.2,8.3,2,8.7c-2.9,4.8-16.5,8.4-25,8.7c-1.4,0-3.4,0.1-3.9-1
						C258.3,890.6,262.1,887,265,884.6z"/>
					
						<linearGradient id="SVGID_79_" gradientUnits="userSpaceOnUse" x1="3945.1865" y1="896.053" x2="3988.509" y2="766.0853" gradientTransform="matrix(1 0 0 1 -3672.4539 0)">
						<stop  offset="0" style="stop-color:#FFC444"/>
						<stop  offset="0.9964" style="stop-color:#F36F56"/>
					</linearGradient>
					<path class="st82" d="M279.8,866.3c0.9,5.4-0.2,8.2-1.5,9.8c-0.9,1.1-1.7,1.4-7,6c-1.8,1.5-2.7,2.3-2.5,2.8
						c0.2,0.5,1.8,0.2,5.1-0.6c7.3-1.8,11-2.7,11.9-4.4c0.8-1.6,0.1-2.3,0.1-6.6c0-2.9,0.6-5.2,1.1-6.6
						C284.6,866.6,282.2,866.5,279.8,866.3z"/>
					
						<linearGradient id="SVGID_80_" gradientUnits="userSpaceOnUse" x1="3936.114" y1="831.291" x2="3953.873" y2="831.291" gradientTransform="matrix(1 0 0 1 -3672.4539 0)">
						<stop  offset="0" style="stop-color:#311944"/>
						<stop  offset="1" style="stop-color:#6B3976"/>
					</linearGradient>
					<path class="st83" d="M269.3,823.5c0,0-6.6,7.8-5.5,16.4c1.1,8.6,12.6-4,14.2-8.2c1.6-4.2,3.5-10.3,3.5-10.3
						S273.4,816.4,269.3,823.5z"/>
					
						<linearGradient id="SVGID_81_" gradientUnits="userSpaceOnUse" x1="3925.8215" y1="880.0537" x2="3954.8201" y2="793.0582" gradientTransform="matrix(1 0 0 1 -3672.4539 0)">
						<stop  offset="0" style="stop-color:#FFC444"/>
						<stop  offset="0.9964" style="stop-color:#F36F56"/>
					</linearGradient>
					<path class="st84" d="M271.8,811.3c0,0,1.8,9.1-1.6,13.9c-1.7,2.4-4,4.4-3.3,6.4c0.4,1.3,2.2,2.2,3.6,2.1
						c2.8-0.3,4.3-4.5,5.4-7.5c1.6-4.4,2.5-13.9,2.5-13.9L271.8,811.3z"/>
					
						<linearGradient id="SVGID_82_" gradientUnits="userSpaceOnUse" x1="3961.553" y1="733.4871" x2="3983.1821" y2="858.5305" gradientTransform="matrix(1 0 0 1 -3672.4539 0)">
						<stop  offset="0" style="stop-color:#AB316D"/>
						<stop  offset="1" style="stop-color:#792D3D"/>
					</linearGradient>
					<path class="st85" d="M277,818.9c-2-0.7-4-1.5-6.1-2.2c-3.1-7.2-7-19-5.7-33.4c3.3-36.9,37.5-56.5,41.3-58.6
						c9.3,4.7,18.7,11.3,19.1,19.6c0.4,10.4-13.8,15.9-27.1,31.2C290.4,784.7,281.9,798.3,277,818.9z"/>
					
						<linearGradient id="SVGID_83_" gradientUnits="userSpaceOnUse" x1="3992.0984" y1="881.6819" x2="4022.8525" y2="784.3503" gradientTransform="matrix(1 0 0 1 -3672.4539 0)">
						<stop  offset="0" style="stop-color:#AB316D"/>
						<stop  offset="1" style="stop-color:#792D3D"/>
					</linearGradient>
					<path class="st86" d="M279.2,870.6c-6.7-26.1-5-47.3-3-59.6c2.9-18.5,8.8-56.2,34-70.2c5.5-3.1,13.3-5.8,22.9-14.3
						c8-7.1,13.1-14.6,16.1-19.9c33.6-9.9,64.6-5.9,78.3,12.2c1.6,2.1,5.5,6.6,6.3,13.3c1.7,15-13,33.1-29.6,36.9
						c-21.1,4.8-33.3-16.8-52-9.6c-5.2,2-9.6,7-18.5,17c-11.3,12.7-17.6,24.4-20,29.1c-7.1,14-12.5,24.3-13.3,37.6
						c-0.2,3.1-0.3,9.4-3.9,16.2c-2.8,5.2-6.6,8.7-9.4,10.8C284.4,870.2,281.8,870.4,279.2,870.6z"/>
					
						<linearGradient id="SVGID_84_" gradientUnits="userSpaceOnUse" x1="3992.1011" y1="881.6829" x2="4022.8552" y2="784.3513" gradientTransform="matrix(1 0 0 1 -3672.4539 0)">
						<stop  offset="0" style="stop-color:#AB316D"/>
						<stop  offset="1" style="stop-color:#792D3D"/>
					</linearGradient>
					<path class="st87" d="M433.8,732c-0.8-6.7-4.7-11.2-6.3-13.3c-13.7-18-44.7-22-78.3-12.2c-3.1,5.3-8.1,12.8-16.1,19.9
						c-9.6,8.5-17.4,11.3-22.9,14.3c-15.4,8.6-23.5,26-28.2,42.4c7-10.8,13-13.7,17.6-13.8c6.6-0.1,9.6,5.6,17.5,4.8
						c8.5-0.8,10.4-7.8,17.2-8.6c2.1-0.2,4.6,0.1,7.6,1.7c4-4.2,7.1-6.7,10.4-8c18.7-7.2,30.9,14.4,52,9.6
						C420.7,765.1,435.5,747,433.8,732z"/>
					
						<linearGradient id="SVGID_85_" gradientUnits="userSpaceOnUse" x1="4035.3762" y1="720.8666" x2="4056.9556" y2="845.6219" gradientTransform="matrix(1 0 0 1 -3672.4539 0)">
						<stop  offset="0" style="stop-color:#AB316D"/>
						<stop  offset="1" style="stop-color:#792D3D"/>
					</linearGradient>
					<path class="st88" d="M296.6,752.4c3.8-0.2,9.7-0.3,16.7,0.4c33.5,3.3,42.8,19.9,70.5,24c6.6,1,35.8,5.2,48.4-11.7
						c9.1-12.1,7.7-33-2.2-41.2c-4.2-3.5-8.4-3.4-35.3-3.1c-10.1,0.1-20.3,0.1-30.4,0.3c-42.9,0.5-51.1-2.4-58.9,4.7
						C301.8,729,296.4,736.1,296.6,752.4z"/>
					<g>
						<g>
							
								<linearGradient id="SVGID_86_" gradientUnits="userSpaceOnUse" x1="4004.1772" y1="643.4124" x2="4195.8696" y2="713.6097" gradientTransform="matrix(1 0 0 1 -3672.4539 0)">
								<stop  offset="0" style="stop-color:#FF9085"/>
								<stop  offset="1" style="stop-color:#FB6FBB"/>
							</linearGradient>
							<path class="st89" d="M387.2,614.7c0,0,50.1-14.6,55.3,22.1c5,35.1-20.5,51.3-8.9,86.9c1.3,4.1-95.3-14.8-95.3-14.8
								c12.9-16.1,15.9-29.4,16.2-38.6c0.3-10.1-2.6-14.7,0-26.7c0,0,2.9-13.4,13.3-24.8C369.2,617.1,371,615.4,387.2,614.7z"/>
						</g>
						<path class="st90" d="M419.3,716c-0.5-0.1-47.3-12.6-74.9-14.1l0.1-1c27.7,1.6,74.6,14,75.1,14.2L419.3,716z"/>
					</g>
					<g>
						
							<linearGradient id="SVGID_87_" gradientUnits="userSpaceOnUse" x1="-4050.3474" y1="1456.4518" x2="-4048.1438" y2="1397.7521" gradientTransform="matrix(-0.984 0.1784 0.1784 0.984 -3848.106 -71.1711)">
							<stop  offset="0" style="stop-color:#FFC444"/>
							<stop  offset="0.9964" style="stop-color:#F36F56"/>
						</linearGradient>
						<path class="st91" d="M398.1,592.8c-0.5,2.1-2.8,13.6,1.9,16.6c1,0.6,3,1,6.9,1.7c2.6,0.5,4.7,0.8,6.2,1
							c-0.2,1.9-0.9,5.1-3.1,7.9c-6.2,8-18.7,5.9-20.5,5.6c-6.3-1.1-12.5-3.1-14-4.3c-2.3-1.8-4.1-3.2-5.1-4.5
							c2.4-1.2,7.4-4.3,10.7-5.3c2.5-0.8,4.8-1.3,6.9-1.7c0.3-2.2,0.7-4.4,1-6.7C392,599.7,395,596.2,398.1,592.8z"/>
						
							<linearGradient id="SVGID_88_" gradientUnits="userSpaceOnUse" x1="-4051.0352" y1="1404.6315" x2="-4051.9785" y2="1480.6321" gradientTransform="matrix(-0.984 0.1784 0.1784 0.984 -3848.106 -71.1711)">
							<stop  offset="0" style="stop-color:#FFC444"/>
							<stop  offset="0.9964" style="stop-color:#F36F56"/>
						</linearGradient>
						<path class="st92" d="M398.3,598.5c0,0-0.9,8.4-9,9.9c-7.3,1.3-12.9-16.4-9.1-21c1.3-1.5,4.3-3,7-2.9c1.9,0.1,8.3,2.5,9.1,8.8
							c1.3-1.3,2.8-1.7,3.6-1.2c1,0.7,0.5,2.8,0.3,3.2C399.9,597.1,398.8,598.1,398.3,598.5z"/>
					</g>
				</g>
			</g>
			<g>
				
					<linearGradient id="SVGID_89_" gradientUnits="userSpaceOnUse" x1="-6038.9961" y1="-14.4159" x2="-6033.8687" y2="67.9909" gradientTransform="matrix(-0.9933 -0.1159 -0.1159 0.9933 -5552.3574 -45.3426)">
					<stop  offset="0" style="stop-color:#FF9085"/>
					<stop  offset="1" style="stop-color:#FB6FBB"/>
				</linearGradient>
				<path class="st93" d="M398.4,710.4c-1-2.6-2-5.3-3-7.9c11-3,26.3-7.5,41.9-13.1c2.4-0.9,5.4-2,6.3-4.5
					c2.7-7.2-14.3-14.7-20.9-30.5c-6.1-14.6-2.7-34.9,4.3-37.3c14.8-5,67.1,60.2,48.4,87.7C464.9,720.3,432.3,722.8,398.4,710.4z"/>
			</g>
			<linearGradient id="SVGID_90_" gradientUnits="userSpaceOnUse" x1="303.7214" y1="680.9333" x2="385.7079" y2="680.9333">
				<stop  offset="0" style="stop-color:#40447E"/>
				<stop  offset="0.9964" style="stop-color:#3C3B6B"/>
			</linearGradient>
			<path class="st94" d="M385.6,718l-16-61.4c-0.4-1.5-1.6-2.7-3.1-3.1l-57.5-14.8c-3.2-0.8-6.1,2.1-5.2,5.3l17.9,65
				c0.4,1.6,1.7,2.7,3.3,3.1l55.5,11.3C383.7,723.9,386.4,721,385.6,718z"/>
			
				<linearGradient id="SVGID_91_" gradientUnits="userSpaceOnUse" x1="-6000.6035" y1="702.7167" x2="-6028.4526" y2="728.9614" gradientTransform="matrix(-1 0 0 1 -5622.1685 0)">
				<stop  offset="0" style="stop-color:#FFC444"/>
				<stop  offset="0.9964" style="stop-color:#F36F56"/>
			</linearGradient>
			<path class="st95" d="M395.4,702.5c-6.9-3.7-15.2,0.1-15.7,0.3c-1.5,0.7-3.7,2-6,4.3c-0.3,0.3-3.3,4.5-2.2,5.8
				c0.9,1.1,4.3,0.2,8.4-2.4c1.7-0.2,4.3-0.5,7.3-0.2c5.6,0.5,8.2,2.3,10.2,0.8c1.5-1.1,2-3.5,1.5-5.2
				C398.3,704.1,396.6,703.2,395.4,702.5z"/>
		</g>
	</g>
	<linearGradient id="SVGID_92_" gradientUnits="userSpaceOnUse" x1="1209.7225" y1="262.7592" x2="1307.8497" y2="262.7592">
		<stop  offset="0" style="stop-color:#FFC444"/>
		<stop  offset="0.9964" style="stop-color:#F36F56"/>
	</linearGradient>
	<polygon class="st96" points="1209.7,295.3 1241.1,257.1 1252.5,266.2 1283.9,230.2 1307.8,252.5 1252.5,290.7 1239.4,280.4 	"/>
	<linearGradient id="SVGID_93_" gradientUnits="userSpaceOnUse" x1="1186.2594" y1="249.1165" x2="1191.4833" y2="156.1308">
		<stop  offset="0" style="stop-color:#FFC444"/>
		<stop  offset="0.9964" style="stop-color:#F36F56"/>
	</linearGradient>
	<polygon class="st97" points="1183.9,292.9 1167.4,247.5 1181.5,244.3 1170.5,186.4 1207.4,186.4 1205,257.7 1184.6,259.2 	"/>
	<linearGradient id="SVGID_94_" gradientUnits="userSpaceOnUse" x1="1149.1736" y1="292.8249" x2="1077.6361" y2="216.6556">
		<stop  offset="0" style="stop-color:#FFC444"/>
		<stop  offset="0.9964" style="stop-color:#F36F56"/>
	</linearGradient>
	<polygon class="st98" points="1167.4,292.9 1132.9,270.2 1142.3,249 1098.5,201.2 1083.6,239.6 1120.4,262.4 1111.8,290.6 	"/>
</g>
</svg>
