<svg id="visual" viewBox="0 0 1920 300" width="1920" height="300" xmlns="http://www.w3.org/2000/svg" xmlns:xlink="http://www.w3.org/1999/xlink" version="1.1"><path d="M0 127L13.8 115.5C27.7 104 55.3 81 83.2 72C111 63 139 68 166.8 68C194.7 68 222.3 63 250.2 69.5C278 76 306 94 333.8 90.5C361.7 87 389.3 62 417.2 57.5C445 53 473 69 500.8 74C528.7 79 556.3 73 584.2 67.5C612 62 640 57 667.8 49.5C695.7 42 723.3 32 751.2 45.5C779 59 807 96 834.8 99C862.7 102 890.3 71 918.2 68.5C946 66 974 92 1001.8 95C1029.7 98 1057.3 78 1085.2 75.5C1113 73 1141 88 1168.8 93.5C1196.7 99 1224.3 95 1252.2 85.5C1280 76 1308 61 1335.8 49C1363.7 37 1391.3 28 1419.2 41C1447 54 1475 89 1502.8 98.5C1530.7 108 1558.3 92 1586.2 83.5C1614 75 1642 74 1669.8 67C1697.7 60 1725.3 47 1753.2 37.5C1781 28 1809 22 1836.8 26.5C1864.7 31 1892.3 46 1906.2 53.5L1920 61L1920 0L1906.2 0C1892.3 0 1864.7 0 1836.8 0C1809 0 1781 0 1753.2 0C1725.3 0 1697.7 0 1669.8 0C1642 0 1614 0 1586.2 0C1558.3 0 1530.7 0 1502.8 0C1475 0 1447 0 1419.2 0C1391.3 0 1363.7 0 1335.8 0C1308 0 1280 0 1252.2 0C1224.3 0 1196.7 0 1168.8 0C1141 0 1113 0 1085.2 0C1057.3 0 1029.7 0 1001.8 0C974 0 946 0 918.2 0C890.3 0 862.7 0 834.8 0C807 0 779 0 751.2 0C723.3 0 695.7 0 667.8 0C640 0 612 0 584.2 0C556.3 0 528.7 0 500.8 0C473 0 445 0 417.2 0C389.3 0 361.7 0 333.8 0C306 0 278 0 250.2 0C222.3 0 194.7 0 166.8 0C139 0 111 0 83.2 0C55.3 0 27.7 0 13.8 0L0 0Z" fill="#ffffff"></path><path d="M0 160L13.8 159C27.7 158 55.3 156 83.2 151C111 146 139 138 166.8 133.5C194.7 129 222.3 128 250.2 132.5C278 137 306 147 333.8 145C361.7 143 389.3 129 417.2 123.5C445 118 473 121 500.8 125C528.7 129 556.3 134 584.2 133.5C612 133 640 127 667.8 116.5C695.7 106 723.3 91 751.2 105C779 119 807 162 834.8 159C862.7 156 890.3 107 918.2 98.5C946 90 974 122 1001.8 129.5C1029.7 137 1057.3 120 1085.2 122C1113 124 1141 145 1168.8 153C1196.7 161 1224.3 156 1252.2 146C1280 136 1308 121 1335.8 107.5C1363.7 94 1391.3 82 1419.2 90C1447 98 1475 126 1502.8 138.5C1530.7 151 1558.3 148 1586.2 144.5C1614 141 1642 137 1669.8 127C1697.7 117 1725.3 101 1753.2 94.5C1781 88 1809 91 1836.8 106.5C1864.7 122 1892.3 150 1906.2 164L1920 178L1920 59L1906.2 51.5C1892.3 44 1864.7 29 1836.8 24.5C1809 20 1781 26 1753.2 35.5C1725.3 45 1697.7 58 1669.8 65C1642 72 1614 73 1586.2 81.5C1558.3 90 1530.7 106 1502.8 96.5C1475 87 1447 52 1419.2 39C1391.3 26 1363.7 35 1335.8 47C1308 59 1280 74 1252.2 83.5C1224.3 93 1196.7 97 1168.8 91.5C1141 86 1113 71 1085.2 73.5C1057.3 76 1029.7 96 1001.8 93C974 90 946 64 918.2 66.5C890.3 69 862.7 100 834.8 97C807 94 779 57 751.2 43.5C723.3 30 695.7 40 667.8 47.5C640 55 612 60 584.2 65.5C556.3 71 528.7 77 500.8 72C473 67 445 51 417.2 55.5C389.3 60 361.7 85 333.8 88.5C306 92 278 74 250.2 67.5C222.3 61 194.7 66 166.8 66C139 66 111 61 83.2 70C55.3 79 27.7 102 13.8 113.5L0 125Z" fill="#c2bccb"></path><path d="M0 217L13.8 219.5C27.7 222 55.3 227 83.2 228.5C111 230 139 228 166.8 221.5C194.7 215 222.3 204 250.2 205.5C278 207 306 221 333.8 223C361.7 225 389.3 215 417.2 215.5C445 216 473 227 500.8 237.5C528.7 248 556.3 258 584.2 251.5C612 245 640 222 667.8 214C695.7 206 723.3 213 751.2 219.5C779 226 807 232 834.8 229.5C862.7 227 890.3 216 918.2 221C946 226 974 247 1001.8 246C1029.7 245 1057.3 222 1085.2 218.5C1113 215 1141 231 1168.8 235.5C1196.7 240 1224.3 233 1252.2 233C1280 233 1308 240 1335.8 237.5C1363.7 235 1391.3 223 1419.2 216C1447 209 1475 207 1502.8 209C1530.7 211 1558.3 217 1586.2 214.5C1614 212 1642 201 1669.8 201.5C1697.7 202 1725.3 214 1753.2 220.5C1781 227 1809 228 1836.8 235.5C1864.7 243 1892.3 257 1906.2 264L1920 271L1920 176L1906.2 162C1892.3 148 1864.7 120 1836.8 104.5C1809 89 1781 86 1753.2 92.5C1725.3 99 1697.7 115 1669.8 125C1642 135 1614 139 1586.2 142.5C1558.3 146 1530.7 149 1502.8 136.5C1475 124 1447 96 1419.2 88C1391.3 80 1363.7 92 1335.8 105.5C1308 119 1280 134 1252.2 144C1224.3 154 1196.7 159 1168.8 151C1141 143 1113 122 1085.2 120C1057.3 118 1029.7 135 1001.8 127.5C974 120 946 88 918.2 96.5C890.3 105 862.7 154 834.8 157C807 160 779 117 751.2 103C723.3 89 695.7 104 667.8 114.5C640 125 612 131 584.2 131.5C556.3 132 528.7 127 500.8 123C473 119 445 116 417.2 121.5C389.3 127 361.7 141 333.8 143C306 145 278 135 250.2 130.5C222.3 126 194.7 127 166.8 131.5C139 136 111 144 83.2 149C55.3 154 27.7 156 13.8 157L0 158Z" fill="#877d9a"></path><path d="M0 286L13.8 279C27.7 272 55.3 258 83.2 258.5C111 259 139 274 166.8 275C194.7 276 222.3 263 250.2 255C278 247 306 244 333.8 245.5C361.7 247 389.3 253 417.2 258.5C445 264 473 269 500.8 274C528.7 279 556.3 284 584.2 278C612 272 640 255 667.8 254C695.7 253 723.3 268 751.2 276.5C779 285 807 287 834.8 282.5C862.7 278 890.3 267 918.2 267C946 267 974 278 1001.8 281.5C1029.7 285 1057.3 281 1085.2 281C1113 281 1141 285 1168.8 280.5C1196.7 276 1224.3 263 1252.2 259C1280 255 1308 260 1335.8 265C1363.7 270 1391.3 275 1419.2 271.5C1447 268 1475 256 1502.8 258.5C1530.7 261 1558.3 278 1586.2 278.5C1614 279 1642 263 1669.8 258.5C1697.7 254 1725.3 261 1753.2 262C1781 263 1809 258 1836.8 260.5C1864.7 263 1892.3 273 1906.2 278L1920 283L1920 269L1906.2 262C1892.3 255 1864.7 241 1836.8 233.5C1809 226 1781 225 1753.2 218.5C1725.3 212 1697.7 200 1669.8 199.5C1642 199 1614 210 1586.2 212.5C1558.3 215 1530.7 209 1502.8 207C1475 205 1447 207 1419.2 214C1391.3 221 1363.7 233 1335.8 235.5C1308 238 1280 231 1252.2 231C1224.3 231 1196.7 238 1168.8 233.5C1141 229 1113 213 1085.2 216.5C1057.3 220 1029.7 243 1001.8 244C974 245 946 224 918.2 219C890.3 214 862.7 225 834.8 227.5C807 230 779 224 751.2 217.5C723.3 211 695.7 204 667.8 212C640 220 612 243 584.2 249.5C556.3 256 528.7 246 500.8 235.5C473 225 445 214 417.2 213.5C389.3 213 361.7 223 333.8 221C306 219 278 205 250.2 203.5C222.3 202 194.7 213 166.8 219.5C139 226 111 228 83.2 226.5C55.3 225 27.7 220 13.8 217.5L0 215Z" fill="#50436b"></path><path d="M0 301L13.8 301C27.7 301 55.3 301 83.2 301C111 301 139 301 166.8 301C194.7 301 222.3 301 250.2 301C278 301 306 301 333.8 301C361.7 301 389.3 301 417.2 301C445 301 473 301 500.8 301C528.7 301 556.3 301 584.2 301C612 301 640 301 667.8 301C695.7 301 723.3 301 751.2 301C779 301 807 301 834.8 301C862.7 301 890.3 301 918.2 301C946 301 974 301 1001.8 301C1029.7 301 1057.3 301 1085.2 301C1113 301 1141 301 1168.8 301C1196.7 301 1224.3 301 1252.2 301C1280 301 1308 301 1335.8 301C1363.7 301 1391.3 301 1419.2 301C1447 301 1475 301 1502.8 301C1530.7 301 1558.3 301 1586.2 301C1614 301 1642 301 1669.8 301C1697.7 301 1725.3 301 1753.2 301C1781 301 1809 301 1836.8 301C1864.7 301 1892.3 301 1906.2 301L1920 301L1920 281L1906.2 276C1892.3 271 1864.7 261 1836.8 258.5C1809 256 1781 261 1753.2 260C1725.3 259 1697.7 252 1669.8 256.5C1642 261 1614 277 1586.2 276.5C1558.3 276 1530.7 259 1502.8 256.5C1475 254 1447 266 1419.2 269.5C1391.3 273 1363.7 268 1335.8 263C1308 258 1280 253 1252.2 257C1224.3 261 1196.7 274 1168.8 278.5C1141 283 1113 279 1085.2 279C1057.3 279 1029.7 283 1001.8 279.5C974 276 946 265 918.2 265C890.3 265 862.7 276 834.8 280.5C807 285 779 283 751.2 274.5C723.3 266 695.7 251 667.8 252C640 253 612 270 584.2 276C556.3 282 528.7 277 500.8 272C473 267 445 262 417.2 256.5C389.3 251 361.7 245 333.8 243.5C306 242 278 245 250.2 253C222.3 261 194.7 274 166.8 273C139 272 111 257 83.2 256.5C55.3 256 27.7 270 13.8 277L0 284Z" fill="#1a103f"></path></svg>